Work Sans-Light.ufo
<glyph name="dollar" format="1">
  <advance width="609"/>
  <unicode hex="0024"/>
  <outline>
	<contour>
	  <point x="159" y="660"/>
	  <point x="72" y="578"/>
	  <point x="72" y="487" type="curve" smooth="yes"/>
	  <point x="72" y="245"/>
	  <point x="542" y="388"/>
	  <point x="542" y="165" type="curve" smooth="yes"/>
	  <point x="542" y="68"/>
	  <point x="443" y="14"/>
	  <point x="321" y="14" type="curve" smooth="yes"/>
	  <point x="194" y="14"/>
	  <point x="96" y="72"/>
	  <point x="72" y="179" type="curve"/>
	  <point x="57" y="171" type="line"/>
	  <point x="85" y="60"/>
	  <point x="186" y="0"/>
	  <point x="321" y="0" type="curve" smooth="yes"/>
	  <point x="465" y="0"/>
	  <point x="558" y="68"/>
	  <point x="558" y="165" type="curve" smooth="yes"/>
	  <point x="558" y="408"/>
	  <point x="88" y="260"/>
	  <point x="88" y="487" type="curve" smooth="yes"/>
	  <point x="88" y="577"/>
	  <point x="173" y="646"/>
	  <point x="307" y="646" type="curve" smooth="yes"/>
	  <point x="427" y="646"/>
	  <point x="508" y="602"/>
	  <point x="535" y="502" type="curve"/>
	  <point x="548" y="512" type="line"/>
	  <point x="517" y="614"/>
	  <point x="432" y="660"/>
	  <point x="307" y="660" type="curve" smooth="yes"/>
	</contour>
	<contour>
	  <point x="309" y="750" type="line"/>
	  <point x="309" y="-90" type="line"/>
	  <point x="323" y="-90" type="line"/>
	  <point x="323" y="750" type="line"/>
	</contour>
	<contour>
	  <point x="313" y="742" type="move" name="top"/>
	</contour>
	<contour>
	  <point x="323" y="0" type="move" name="bottom"/>
	</contour>
  </outline>
</glyph>
<glyph name="percent" format="1">
  <advance width="783"/>
  <unicode hex="0025"/>
  <outline>
	<contour>
	  <point x="493" y="333"/>
	  <point x="452" y="251"/>
	  <point x="452" y="166" type="curve" smooth="yes"/>
	  <point x="452" y="81"/>
	  <point x="494" y="0"/>
	  <point x="592" y="0" type="curve" smooth="yes"/>
	  <point x="690" y="0"/>
	  <point x="730" y="81"/>
	  <point x="730" y="166" type="curve" smooth="yes"/>
	  <point x="730" y="251"/>
	  <point x="690" y="333"/>
	  <point x="592" y="333" type="curve" smooth="yes"/>
	</contour>
	<contour>
	  <point x="93" y="660"/>
	  <point x="53" y="577"/>
	  <point x="53" y="492" type="curve" smooth="yes"/>
	  <point x="53" y="407"/>
	  <point x="94" y="327"/>
	  <point x="192" y="327" type="curve" smooth="yes"/>
	  <point x="290" y="327"/>
	  <point x="330" y="407"/>
	  <point x="330" y="492" type="curve" smooth="yes"/>
	  <point x="330" y="577"/>
	  <point x="290" y="660"/>
	  <point x="192" y="660" type="curve" smooth="yes"/>
	</contour>
	<contour>
	  <point x="277" y="646"/>
	  <point x="314" y="572"/>
	  <point x="314" y="492" type="curve" smooth="yes"/>
	  <point x="314" y="412"/>
	  <point x="278" y="341"/>
	  <point x="192" y="341" type="curve" smooth="yes"/>
	  <point x="106" y="341"/>
	  <point x="69" y="412"/>
	  <point x="69" y="492" type="curve" smooth="yes"/>
	  <point x="69" y="572"/>
	  <point x="106" y="646"/>
	  <point x="192" y="646" type="curve" smooth="yes"/>
	</contour>
	<contour>
	  <point x="677" y="319"/>
	  <point x="714" y="246"/>
	  <point x="714" y="166" type="curve" smooth="yes"/>
	  <point x="714" y="86"/>
	  <point x="677" y="14"/>
	  <point x="592" y="14" type="curve" smooth="yes"/>
	  <point x="506" y="14"/>
	  <point x="468" y="86"/>
	  <point x="468" y="166" type="curve" smooth="yes"/>
	  <point x="468" y="246"/>
	  <point x="505" y="319"/>
	  <point x="592" y="319" type="curve" smooth="yes"/>
	</contour>
	<contour>
	  <point x="177" y="0" type="line"/>
	  <point x="624" y="660" type="line"/>
	  <point x="605" y="660" type="line"/>
	  <point x="158" y="0" type="line"/>
	</contour>
  </outline>
</glyph>
<glyph name="ampersand" format="1">
  <advance width="583"/>
  <unicode hex="0026"/>
  <outline>
	<contour>
	  <point x="589" y="3" type="line"/>
	  <point x="528" y="3"/>
	  <point x="482" y="50"/>
	  <point x="326" y="256" type="curve" smooth="yes"/>
	  <point x="181" y="448"/>
	  <point x="160" y="470"/>
	  <point x="160" y="533" type="curve" smooth="yes"/>
	  <point x="160" y="605"/>
	  <point x="209" y="652"/>
	  <point x="284" y="652" type="curve" smooth="yes"/>
	  <point x="356" y="652"/>
	  <point x="402" y="611"/>
	  <point x="402" y="548" type="curve" smooth="yes"/>
	  <point x="402" y="483"/>
	  <point x="370" y="435"/>
	  <point x="251" y="366" type="curve" smooth="yes"/>
	  <point x="136" y="299"/>
	  <point x="55" y="248"/>
	  <point x="55" y="139" type="curve" smooth="yes"/>
	  <point x="55" y="45"/>
	  <point x="137" y="-10"/>
	  <point x="244" y="-10" type="curve" smooth="yes"/>
	  <point x="456" y="-10"/>
	  <point x="520" y="190"/>
	  <point x="520" y="366" type="curve"/>
	  <point x="505" y="366" type="line"/>
	  <point x="505" y="173"/>
	  <point x="430" y="4"/>
	  <point x="241" y="4" type="curve" smooth="yes"/>
	  <point x="146" y="4"/>
	  <point x="71" y="54"/>
	  <point x="71" y="139" type="curve" smooth="yes"/>
	  <point x="71" y="243"/>
	  <point x="150" y="290"/>
	  <point x="261" y="354" type="curve" smooth="yes"/>
	  <point x="384" y="425"/>
	  <point x="418" y="477"/>
	  <point x="418" y="548" type="curve" smooth="yes"/>
	  <point x="418" y="620"/>
	  <point x="365" y="666"/>
	  <point x="284" y="666" type="curve" smooth="yes"/>
	  <point x="199" y="666"/>
	  <point x="144" y="614"/>
	  <point x="144" y="533" type="curve" smooth="yes"/>
	  <point x="144" y="462"/>
	  <point x="182" y="423"/>
	  <point x="317" y="245" type="curve" smooth="yes"/>
	  <point x="467" y="47"/>
	  <point x="516" y="-10"/>
	  <point x="588" y="-10" type="curve"/>
	</contour>
  </outline>
</glyph>
<glyph name="quotesingle" format="1">
  <advance width="127"/>
  <unicode hex="0027"/>
  <outline>
	<contour>
	  <point x="55" y="680" type="line"/>
	  <point x="55" y="521" type="line"/>
	  <point x="72" y="521" type="line"/>
	  <point x="72" y="680" type="line"/>
	</contour>
  </outline>
</glyph>
<glyph name="asterisk" format="1">
  <advance width="432"/>
  <unicode hex="002A"/>
  <outline>
	<contour>
	  <point x="216" y="473" type="line"/>
	  <point x="211" y="470" type="line"/>
	  <point x="258" y="401" type="line"/>
	  <point x="337" y="293" type="line"/>
	  <point x="350" y="302" type="line"/>
	  <point x="271" y="411" type="line"/>
	  <point x="221" y="477" type="line"/>
	</contour>
	<contour>
	  <point x="161" y="411" type="line"/>
	  <point x="82" y="302" type="line"/>
	  <point x="95" y="293" type="line"/>
	  <point x="174" y="401" type="line"/>
	  <point x="221" y="470" type="line"/>
	  <point x="216" y="473" type="line"/>
	  <point x="211" y="477" type="line"/>
	</contour>
	<contour>
	  <point x="7" y="533" type="line"/>
	  <point x="134" y="491" type="line"/>
	  <point x="214" y="468" type="line"/>
	  <point x="216" y="473" type="line"/>
	  <point x="218" y="479" type="line"/>
	  <point x="139" y="507" type="line"/>
	  <point x="12" y="548" type="line"/>
	</contour>
	<contour>
	  <point x="208" y="690" type="line"/>
	  <point x="208" y="556" type="line"/>
	  <point x="210" y="473" type="line"/>
	  <point x="216" y="473" type="line"/>
	  <point x="222" y="473" type="line"/>
	  <point x="224" y="556" type="line"/>
	  <point x="224" y="690" type="line"/>
	</contour>
	<contour>
	  <point x="292" y="507" type="line"/>
	  <point x="214" y="479" type="line"/>
	  <point x="216" y="473" type="line"/>
	  <point x="218" y="468" type="line"/>
	  <point x="297" y="491" type="line"/>
	  <point x="425" y="533" type="line"/>
	  <point x="420" y="548" type="line"/>
	</contour>
  </outline>
</glyph>
<glyph name="period" format="1">
  <advance width="152"/>
  <unicode hex="002E"/>
  <outline>
	<contour>
	  <point x="62" y="45"/>
	  <point x="51" y="34"/>
	  <point x="51" y="20" type="curve" smooth="yes"/>
	  <point x="51" y="6"/>
	  <point x="62" y="-5"/>
	  <point x="76" y="-5" type="curve" smooth="yes"/>
	  <point x="90" y="-5"/>
	  <point x="101" y="6"/>
	  <point x="101" y="20" type="curve" smooth="yes"/>
	  <point x="101" y="34"/>
	  <point x="90" y="45"/>
	  <point x="76" y="45" type="curve" smooth="yes"/>
	</contour>
  </outline>
</glyph>
<glyph name="six" format="1">
  <advance width="533"/>
  <unicode hex="0036"/>
  <outline>
	<contour>
	  <point x="160" y="670"/>
	  <point x="51" y="558"/>
	  <point x="51" y="330" type="curve" smooth="yes"/>
	  <point x="51" y="107"/>
	  <point x="130" y="-10"/>
	  <point x="286" y="-10" type="curve" smooth="yes"/>
	  <point x="416" y="-10"/>
	  <point x="500" y="69"/>
	  <point x="500" y="192" type="curve" smooth="yes"/>
	  <point x="500" y="313"/>
	  <point x="423" y="395"/>
	  <point x="290" y="395" type="curve" smooth="yes"/>
	  <point x="181" y="395"/>
	  <point x="79" y="320"/>
	  <point x="77" y="198" type="curve"/>
	  <point x="76" y="198" type="line"/>
	  <point x="44" y="391"/>
	  <point x="82" y="656"/>
	  <point x="306" y="656" type="curve" smooth="yes"/>
	  <point x="397" y="656"/>
	  <point x="450" y="607"/>
	  <point x="469" y="543" type="curve"/>
	  <point x="484" y="550" type="line"/>
	  <point x="461" y="618"/>
	  <point x="406" y="670"/>
	  <point x="306" y="670" type="curve" smooth="yes"/>
	</contour>
	<contour>
	  <point x="408" y="381"/>
	  <point x="484" y="304"/>
	  <point x="484" y="194" type="curve" smooth="yes"/>
	  <point x="484" y="80"/>
	  <point x="407" y="4"/>
	  <point x="285" y="4" type="curve" smooth="yes"/>
	  <point x="170" y="4"/>
	  <point x="91" y="86"/>
	  <point x="91" y="194" type="curve" smooth="yes"/>
	  <point x="91" y="284"/>
	  <point x="170" y="381"/>
	  <point x="290" y="381" type="curve" smooth="yes"/>
	</contour>
  </outline>
</glyph>
<glyph name="eight" format="1">
  <advance width="501"/>
  <unicode hex="0038"/>
  <outline>
	<contour>
	  <point x="118" y="352"/>
	  <point x="25" y="276"/>
	  <point x="25" y="169" type="curve" smooth="yes"/>
	  <point x="25" y="64"/>
	  <point x="118" y="-10"/>
	  <point x="251" y="-10" type="curve" smooth="yes"/>
	  <point x="383" y="-10"/>
	  <point x="476" y="64"/>
	  <point x="476" y="169" type="curve" smooth="yes"/>
	  <point x="476" y="276"/>
	  <point x="383" y="352"/>
	  <point x="251" y="352" type="curve" smooth="yes"/>
	</contour>
	<contour>
	  <point x="374" y="339"/>
	  <point x="460" y="268"/>
	  <point x="460" y="169" type="curve" smooth="yes"/>
	  <point x="460" y="72"/>
	  <point x="374" y="4"/>
	  <point x="251" y="4" type="curve" smooth="yes"/>
	  <point x="127" y="4"/>
	  <point x="41" y="72"/>
	  <point x="41" y="169" type="curve" smooth="yes"/>
	  <point x="41" y="268"/>
	  <point x="127" y="339"/>
	  <point x="251" y="339" type="curve" smooth="yes"/>
	</contour>
	<contour>
	  <point x="361" y="656"/>
	  <point x="433" y="598"/>
	  <point x="433" y="508" type="curve" smooth="yes"/>
	  <point x="433" y="417"/>
	  <point x="361" y="355"/>
	  <point x="251" y="355" type="curve" smooth="yes"/>
	  <point x="141" y="355"/>
	  <point x="69" y="417"/>
	  <point x="69" y="508" type="curve" smooth="yes"/>
	  <point x="69" y="598"/>
	  <point x="141" y="656"/>
	  <point x="251" y="656" type="curve" smooth="yes"/>
	</contour>
	<contour>
	  <point x="131" y="670"/>
	  <point x="53" y="606"/>
	  <point x="53" y="508" type="curve" smooth="yes"/>
	  <point x="53" y="408"/>
	  <point x="131" y="342"/>
	  <point x="251" y="342" type="curve" smooth="yes"/>
	  <point x="371" y="342"/>
	  <point x="449" y="408"/>
	  <point x="449" y="508" type="curve" smooth="yes"/>
	  <point x="449" y="606"/>
	  <point x="371" y="670"/>
	  <point x="251" y="670" type="curve" smooth="yes"/>
	</contour>
  </outline>
</glyph>
<glyph name="nine" format="1">
  <advance width="542"/>
  <unicode hex="0039"/>
  <outline>
	<contour>
	  <point x="126" y="670"/>
	  <point x="42" y="591"/>
	  <point x="42" y="468" type="curve" smooth="yes"/>
	  <point x="42" y="345"/>
	  <point x="123" y="265"/>
	  <point x="253" y="265" type="curve" smooth="yes"/>
	  <point x="356" y="265"/>
	  <point x="468" y="341"/>
	  <point x="463" y="470" type="curve"/>
	  <point x="464" y="470" type="line"/>
	  <point x="497" y="286"/>
	  <point x="472" y="4"/>
	  <point x="257" y="4" type="curve" smooth="yes"/>
	  <point x="146" y="4"/>
	  <point x="79" y="58"/>
	  <point x="65" y="139" type="curve"/>
	  <point x="48" y="130" type="line"/>
	  <point x="66" y="47"/>
	  <point x="148" y="-10"/>
	  <point x="257" y="-10" type="curve" smooth="yes"/>
	  <point x="392" y="-10"/>
	  <point x="491" y="102"/>
	  <point x="491" y="330" type="curve" smooth="yes"/>
	  <point x="491" y="547"/>
	  <point x="408" y="670"/>
	  <point x="256" y="670" type="curve" smooth="yes"/>
	</contour>
	<contour>
	  <point x="372" y="656"/>
	  <point x="451" y="574"/>
	  <point x="451" y="466" type="curve" smooth="yes"/>
	  <point x="451" y="376"/>
	  <point x="368" y="279"/>
	  <point x="253" y="279" type="curve" smooth="yes"/>
	  <point x="135" y="279"/>
	  <point x="58" y="354"/>
	  <point x="58" y="466" type="curve" smooth="yes"/>
	  <point x="58" y="580"/>
	  <point x="135" y="656"/>
	  <point x="257" y="656" type="curve" smooth="yes"/>
	</contour>
  </outline>
</glyph>
<glyph name="less" format="1">
  <advance width="553"/>
  <unicode hex="003C"/>
  <outline>
	<contour>
	  <point x="58" y="345" type="line"/>
	  <point x="58" y="328" type="line"/>
	  <point x="97" y="349" type="line"/>
	  <point x="510" y="571" type="line"/>
	  <point x="510" y="589" type="line"/>
	</contour>
	<contour>
	  <point x="58" y="326" type="line"/>
	  <point x="510" y="72" type="line"/>
	  <point x="510" y="90" type="line"/>
	  <point x="96" y="321" type="line"/>
	  <point x="58" y="343" type="line"/>
	</contour>
  </outline>
</glyph>
<glyph name="equal" format="1">
  <advance width="553"/>
  <unicode hex="003D"/>
  <outline>
	<contour>
	  <point x="50" y="432" type="line"/>
	  <point x="50" y="418" type="line"/>
	  <point x="503" y="418" type="line"/>
	  <point x="503" y="432" type="line"/>
	</contour>
	<contour>
	  <point x="50" y="213" type="line"/>
	  <point x="50" y="199" type="line"/>
	  <point x="503" y="199" type="line"/>
	  <point x="503" y="213" type="line"/>
	</contour>
  </outline>
</glyph>
<glyph name="at" format="1">
  <advance width="898"/>
  <unicode hex="0040"/>
  <outline>
	<contour>
	  <point x="198" y="670"/>
	  <point x="32" y="501"/>
	  <point x="32" y="234" type="curve" smooth="yes"/>
	  <point x="32" y="-34"/>
	  <point x="207" y="-191"/>
	  <point x="468" y="-191" type="curve" smooth="yes"/>
	  <point x="556" y="-191"/>
	  <point x="654" y="-160"/>
	  <point x="713" y="-110" type="curve"/>
	  <point x="703" y="-97" type="line"/>
	  <point x="648" y="-149"/>
	  <point x="550" y="-177"/>
	  <point x="468" y="-177" type="curve" smooth="yes"/>
	  <point x="217" y="-177"/>
	  <point x="48" y="-25"/>
	  <point x="48" y="234" type="curve" smooth="yes"/>
	  <point x="48" y="492"/>
	  <point x="208" y="656"/>
	  <point x="454" y="656" type="curve" smooth="yes"/>
	  <point x="746" y="656"/>
	  <point x="847" y="454"/>
	  <point x="847" y="245" type="curve" smooth="yes"/>
	  <point x="847" y="94"/>
	  <point x="808" y="4"/>
	  <point x="742" y="4" type="curve" smooth="yes"/>
	  <point x="683" y="4"/>
	  <point x="655" y="52"/>
	  <point x="655" y="132" type="curve" smooth="yes"/>
	  <point x="655" y="456" type="line"/>
	  <point x="641" y="456" type="line"/>
	  <point x="641" y="330" type="line"/>
	  <point x="616" y="420"/>
	  <point x="548" y="475"/>
	  <point x="449" y="475" type="curve" smooth="yes"/>
	  <point x="314" y="475"/>
	  <point x="227" y="381"/>
	  <point x="227" y="235" type="curve" smooth="yes"/>
	  <point x="227" y="86"/>
	  <point x="314" y="-10"/>
	  <point x="449" y="-10" type="curve" smooth="yes"/>
	  <point x="548" y="-10"/>
	  <point x="616" y="47"/>
	  <point x="641" y="140" type="curve"/>
	  <point x="641" y="37"/>
	  <point x="669" y="-10"/>
	  <point x="739" y="-10" type="curve" smooth="yes"/>
	  <point x="817" y="-10"/>
	  <point x="863" y="85"/>
	  <point x="863" y="245" type="curve" smooth="yes"/>
	  <point x="863" y="460"/>
	  <point x="756" y="670"/>
	  <point x="454" y="670" type="curve" smooth="yes"/>
	</contour>
	<contour>
	  <point x="568" y="461"/>
	  <point x="641" y="368"/>
	  <point x="641" y="251" type="curve" smooth="yes"/>
	  <point x="641" y="221" type="line" smooth="yes"/>
	  <point x="641" y="99"/>
	  <point x="568" y="4"/>
	  <point x="449" y="4" type="curve" smooth="yes"/>
	  <point x="324" y="4"/>
	  <point x="243" y="95"/>
	  <point x="243" y="235" type="curve" smooth="yes"/>
	  <point x="243" y="372"/>
	  <point x="324" y="461"/>
	  <point x="449" y="461" type="curve" smooth="yes"/>
	</contour>
  </outline>
</glyph>
<glyph name="D" format="1">
  <advance width="685"/>
  <unicode hex="0044"/>
  <outline>
	<contour>
	  <point x="109" y="660" type="line"/>
	  <point x="109" y="646" type="line"/>
	  <point x="303" y="646" type="line" smooth="yes"/>
	  <point x="506" y="646"/>
	  <point x="612" y="541"/>
	  <point x="612" y="340" type="curve" smooth="yes"/>
	  <point x="612" y="126"/>
	  <point x="506" y="14"/>
	  <point x="303" y="14" type="curve" smooth="yes"/>
	  <point x="108" y="14" type="line"/>
	  <point x="108" y="0" type="line"/>
	  <point x="303" y="0" type="line" smooth="yes"/>
	  <point x="517" y="0"/>
	  <point x="628" y="117"/>
	  <point x="628" y="340" type="curve" smooth="yes"/>
	  <point x="628" y="550"/>
	  <point x="517" y="660"/>
	  <point x="303" y="660" type="curve" smooth="yes"/>
	</contour>
	<contour>
	  <point x="100" y="660" type="line"/>
	  <point x="100" y="0" type="line"/>
	  <point x="116" y="0" type="line"/>
	  <point x="116" y="660" type="line"/>
	</contour>
	<contour>
	  <point x="356" y="330" type="move" name="center"/>
	</contour>
	<contour>
	  <point x="310" y="660" type="move" name="top"/>
	</contour>
  </outline>
</glyph>
<glyph name="F" format="1">
  <advance width="553"/>
  <unicode hex="0046"/>
  <outline>
	<contour>
	  <point x="100" y="660" type="line"/>
	  <point x="100" y="0" type="line"/>
	  <point x="116" y="0" type="line"/>
	  <point x="116" y="660" type="line"/>
	</contour>
	<contour>
	  <point x="106" y="344" type="line"/>
	  <point x="106" y="330" type="line"/>
	  <point x="454" y="330" type="line"/>
	  <point x="454" y="344" type="line"/>
	</contour>
	<contour>
	  <point x="106" y="660" type="line"/>
	  <point x="106" y="646" type="line"/>
	  <point x="536" y="646" type="line"/>
	  <point x="536" y="660" type="line"/>
	</contour>
  </outline>
</glyph>
<glyph name="G" format="1">
  <advance width="664"/>
  <unicode hex="0047"/>
  <outline>
	<contour>
	  <point x="174" y="670"/>
	  <point x="57" y="539"/>
	  <point x="57" y="330" type="curve" smooth="yes"/>
	  <point x="57" y="121"/>
	  <point x="171" y="-10"/>
	  <point x="346" y="-10" type="curve" smooth="yes"/>
	  <point x="512" y="-10"/>
	  <point x="603" y="85"/>
	  <point x="603" y="228" type="curve"/>
	  <point x="595" y="244" type="line"/>
	  <point x="595" y="157"/>
	  <point x="546" y="4"/>
	  <point x="346" y="4" type="curve" smooth="yes"/>
	  <point x="181" y="4"/>
	  <point x="73" y="130"/>
	  <point x="73" y="330" type="curve" smooth="yes"/>
	  <point x="73" y="530"/>
	  <point x="184" y="656"/>
	  <point x="350" y="656" type="curve" smooth="yes"/>
	  <point x="480" y="656"/>
	  <point x="559" y="601"/>
	  <point x="592" y="489" type="curve"/>
	  <point x="606" y="496" type="line"/>
	  <point x="573" y="612"/>
	  <point x="489" y="670"/>
	  <point x="350" y="670" type="curve" smooth="yes"/>
	</contour>
	<contour>
	  <point x="611" y="208" type="line"/>
	  <point x="611" y="213" type="line"/>
	  <point x="611" y="304" type="line"/>
	  <point x="595" y="304" type="line"/>
	  <point x="595" y="213" type="line"/>
	  <point x="595" y="208" type="line"/>
	  <point x="595" y="0" type="line"/>
	  <point x="611" y="0" type="line"/>
	</contour>
	<contour>
	  <point x="354" y="297" type="line"/>
	  <point x="611" y="297" type="line"/>
	  <point x="611" y="311" type="line"/>
	  <point x="354" y="311" type="line"/>
	</contour>
	<contour>
	  <point x="344" y="660" type="move" name="top"/>
	</contour>
	<contour>
	  <point x="392" y="0" type="move" name="bottom"/>
	</contour>
  </outline>
</glyph>
<glyph name="H" format="1">
  <advance width="698"/>
  <unicode hex="0048"/>
  <outline>
	<contour>
	  <point x="582" y="660" type="line"/>
	  <point x="582" y="0" type="line"/>
	  <point x="598" y="0" type="line"/>
	  <point x="598" y="660" type="line"/>
	</contour>
	<contour>
	  <point x="100" y="660" type="line"/>
	  <point x="100" y="0" type="line"/>
	  <point x="116" y="0" type="line"/>
	  <point x="116" y="660" type="line"/>
	</contour>
	<contour>
	  <point x="108" y="344" type="line"/>
	  <point x="108" y="330" type="line"/>
	  <point x="591" y="330" type="line"/>
	  <point x="591" y="344" type="line"/>
	</contour>
  </outline>
</glyph>
<glyph name="K" format="1">
  <advance width="569"/>
  <unicode hex="004B"/>
  <outline>
	<contour>
	  <point x="512" y="660" type="line"/>
	  <point x="107" y="248" type="line"/>
	  <point x="107" y="225" type="line"/>
	  <point x="269" y="389" type="line"/>
	  <point x="271" y="391" type="line"/>
	  <point x="535" y="660" type="line"/>
	</contour>
	<contour>
	  <point x="100" y="660" type="line"/>
	  <point x="100" y="0" type="line"/>
	  <point x="116" y="0" type="line"/>
	  <point x="116" y="660" type="line"/>
	</contour>
	<contour>
	  <point x="260" y="390" type="line"/>
	  <point x="524" y="0" type="line"/>
	  <point x="545" y="0" type="line"/>
	  <point x="271" y="404" type="line"/>
	</contour>
	<contour>
	  <point x="320" y="660" type="move" name="top"/>
	</contour>
	<contour>
	  <point x="320" y="0" type="move" name="bottom"/>
	</contour>
  </outline>
</glyph>
<glyph name="L" format="1">
  <advance width="533"/>
  <unicode hex="004C"/>
  <outline>
	<contour>
	  <point x="100" y="660" type="line"/>
	  <point x="100" y="0" type="line"/>
	  <point x="116" y="0" type="line"/>
	  <point x="116" y="660" type="line"/>
	</contour>
	<contour>
	  <point x="106" y="14" type="line"/>
	  <point x="106" y="0" type="line"/>
	  <point x="532" y="0" type="line"/>
	  <point x="532" y="14" type="line"/>
	</contour>
	<contour>
	  <point x="108" y="660" type="move" name="top"/>
	</contour>
	<contour>
	  <point x="332" y="0" type="move" name="bottom"/>
	</contour>
	<contour>
	  <point x="244" y="700" type="move" name="topright"/>
	</contour>
  </outline>
</glyph>
<glyph name="M" format="1">
  <advance width="788"/>
  <unicode hex="004D"/>
  <outline>
	<contour>
	  <point x="667" y="660" type="line"/>
	  <point x="406" y="47" type="line"/>
	  <point x="394" y="19" type="line"/>
	  <point x="394" y="19" type="line"/>
	  <point x="382" y="48" type="line"/>
	  <point x="121" y="660" type="line"/>
	  <point x="100" y="660" type="line"/>
	  <point x="100" y="0" type="line"/>
	  <point x="116" y="0" type="line"/>
	  <point x="116" y="580" type="line"/>
	  <point x="116" y="637" type="line"/>
	  <point x="116" y="637" type="line"/>
	  <point x="129" y="600" type="line"/>
	  <point x="384" y="0" type="line"/>
	  <point x="404" y="0" type="line"/>
	  <point x="659" y="600" type="line"/>
	  <point x="672" y="637" type="line"/>
	  <point x="672" y="637" type="line"/>
	  <point x="672" y="580" type="line"/>
	  <point x="672" y="0" type="line"/>
	  <point x="688" y="0" type="line"/>
	  <point x="688" y="660" type="line"/>
	</contour>
  </outline>
</glyph>
<glyph name="N" format="1">
  <advance width="696"/>
  <unicode hex="004E"/>
  <outline>
	<contour>
	  <point x="580" y="660" type="line"/>
	  <point x="580" y="73" type="line"/>
	  <point x="581" y="16" type="line"/>
	  <point x="581" y="16" type="line"/>
	  <point x="555" y="55" type="line"/>
	  <point x="122" y="660" type="line"/>
	  <point x="100" y="660" type="line"/>
	  <point x="100" y="0" type="line"/>
	  <point x="116" y="0" type="line"/>
	  <point x="116" y="587" type="line"/>
	  <point x="115" y="644" type="line"/>
	  <point x="115" y="644" type="line"/>
	  <point x="141" y="605" type="line"/>
	  <point x="574" y="0" type="line"/>
	  <point x="596" y="0" type="line"/>
	  <point x="596" y="660" type="line"/>
	</contour>
	<contour>
	  <point x="354" y="660" type="move" name="top"/>
	</contour>
	<contour>
	  <point x="348" y="0" type="move" name="bottom"/>
	</contour>
  </outline>
</glyph>
<glyph name="Q" format="1">
  <advance width="705"/>
  <unicode hex="0051"/>
  <outline>
	<contour>
	  <point x="356" y="-4" type="line"/>
	  <point x="361" y="-126"/>
	  <point x="434" y="-195"/>
	  <point x="536" y="-195" type="curve" smooth="yes"/>
	  <point x="585" y="-195"/>
	  <point x="622" y="-182"/>
	  <point x="648" y="-157" type="curve"/>
	  <point x="640" y="-144" type="line"/>
	  <point x="614" y="-171"/>
	  <point x="575" y="-181"/>
	  <point x="536" y="-181" type="curve" smooth="yes"/>
	  <point x="441" y="-181"/>
	  <point x="375" y="-120"/>
	  <point x="370" y="-4" type="curve"/>
	</contour>
	<component base="O"/>
  </outline>
</glyph>
<glyph name="R" format="1">
  <advance width="617"/>
  <unicode hex="0052"/>
  <outline>
	<contour>
	  <point x="108" y="660" type="line"/>
	  <point x="108" y="646" type="line"/>
	  <point x="339" y="646" type="line" smooth="yes"/>
	  <point x="460" y="646"/>
	  <point x="532" y="584"/>
	  <point x="532" y="480" type="curve" smooth="yes"/>
	  <point x="532" y="376"/>
	  <point x="460" y="314"/>
	  <point x="339" y="314" type="curve" smooth="yes"/>
	  <point x="108" y="314" type="line"/>
	  <point x="108" y="300" type="line"/>
	  <point x="339" y="300" type="line" smooth="yes"/>
	  <point x="468" y="300"/>
	  <point x="548" y="368"/>
	  <point x="548" y="480" type="curve" smooth="yes"/>
	  <point x="548" y="592"/>
	  <point x="468" y="660"/>
	  <point x="339" y="660" type="curve" smooth="yes"/>
	</contour>
	<contour>
	  <point x="100" y="660" type="line"/>
	  <point x="100" y="0" type="line"/>
	  <point x="116" y="0" type="line"/>
	  <point x="116" y="660" type="line"/>
	</contour>
	<contour>
	  <point x="357" y="304" type="line"/>
	  <point x="559" y="0" type="line"/>
	  <point x="577" y="0" type="line"/>
	  <point x="370" y="314" type="line"/>
	</contour>
	<contour>
	  <point x="294" y="660" type="move" name="top"/>
	</contour>
	<contour>
	  <point x="347" y="0" type="move" name="bottom"/>
	</contour>
  </outline>
</glyph>
<glyph name="S" format="1">
  <advance width="591"/>
  <unicode hex="0053"/>
  <outline>
	<contour>
	  <point x="147" y="670"/>
	  <point x="60" y="586"/>
	  <point x="60" y="492" type="curve" smooth="yes"/>
	  <point x="60" y="242"/>
	  <point x="532" y="390"/>
	  <point x="532" y="160" type="curve" smooth="yes"/>
	  <point x="532" y="60"/>
	  <point x="433" y="4"/>
	  <point x="309" y="4" type="curve" smooth="yes"/>
	  <point x="179" y="4"/>
	  <point x="75" y="57"/>
	  <point x="57" y="174" type="curve"/>
	  <point x="42" y="166" type="line"/>
	  <point x="64" y="45"/>
	  <point x="171" y="-10"/>
	  <point x="309" y="-10" type="curve" smooth="yes"/>
	  <point x="450" y="-10"/>
	  <point x="548" y="60"/>
	  <point x="548" y="160" type="curve" smooth="yes"/>
	  <point x="548" y="408"/>
	  <point x="76" y="261"/>
	  <point x="76" y="492" type="curve" smooth="yes"/>
	  <point x="76" y="584"/>
	  <point x="161" y="656"/>
	  <point x="295" y="656" type="curve" smooth="yes"/>
	  <point x="415" y="656"/>
	  <point x="496" y="610"/>
	  <point x="523" y="507" type="curve"/>
	  <point x="536" y="517" type="line"/>
	  <point x="505" y="623"/>
	  <point x="420" y="670"/>
	  <point x="295" y="670" type="curve" smooth="yes"/>
	</contour>
	<contour>
	  <point x="290" y="660" type="move" name="top"/>
	</contour>
	<contour>
	  <point x="311" y="0" type="move" name="bottom"/>
	</contour>
  </outline>
</glyph>
<glyph name="U" format="1">
  <advance width="698"/>
  <unicode hex="0055"/>
  <outline>
	<contour>
	  <point x="582" y="660" type="line"/>
	  <point x="582" y="235" type="line" smooth="yes"/>
	  <point x="582" y="88"/>
	  <point x="495" y="4"/>
	  <point x="349" y="4" type="curve" smooth="yes"/>
	  <point x="203" y="4"/>
	  <point x="116" y="88"/>
	  <point x="116" y="235" type="curve" smooth="yes"/>
	  <point x="116" y="660" type="line"/>
	  <point x="100" y="660" type="line"/>
	  <point x="100" y="235" type="line" smooth="yes"/>
	  <point x="100" y="78"/>
	  <point x="193" y="-10"/>
	  <point x="349" y="-10" type="curve" smooth="yes"/>
	  <point x="505" y="-10"/>
	  <point x="598" y="78"/>
	  <point x="598" y="235" type="curve" smooth="yes"/>
	  <point x="598" y="660" type="line"/>
	</contour>
	<contour>
	  <point x="445" y="8" type="move" name="ogonek"/>
	</contour>
	<contour>
	  <point x="349" y="660" type="move" name="top"/>
	</contour>
  </outline>
</glyph>
<glyph name="V" format="1">
  <advance width="554"/>
  <unicode hex="0056"/>
  <outline>
	<contour>
	  <point x="531" y="660" type="line"/>
	  <point x="304" y="86" type="line"/>
	  <point x="277" y="18" type="line"/>
	  <point x="250" y="87" type="line"/>
	  <point x="23" y="660" type="line"/>
	  <point x="6" y="660" type="line"/>
	  <point x="266" y="0" type="line"/>
	  <point x="288" y="0" type="line"/>
	  <point x="548" y="660" type="line"/>
	</contour>
  </outline>
</glyph>
<glyph name="X" format="1">
  <advance width="519"/>
  <unicode hex="0058"/>
  <outline>
	<contour>
	  <point x="477" y="660" type="line"/>
	  <point x="258" y="350" type="line"/>
	  <point x="255" y="346" type="line"/>
	  <point x="11" y="0" type="line"/>
	  <point x="32" y="0" type="line"/>
	  <point x="266" y="331" type="line"/>
	  <point x="271" y="338" type="line"/>
	  <point x="499" y="660" type="line"/>
	</contour>
	<contour>
	  <point x="32" y="660" type="line"/>
	  <point x="255" y="337" type="line"/>
	  <point x="259" y="331" type="line"/>
	  <point x="488" y="0" type="line"/>
	  <point x="508" y="0" type="line"/>
	  <point x="271" y="343" type="line"/>
	  <point x="264" y="353" type="line"/>
	  <point x="52" y="660" type="line"/>
	</contour>
  </outline>
</glyph>
<glyph name="asciicircum" format="1">
  <advance width="457"/>
  <unicode hex="005E"/>
  <outline>
	<contour>
	  <point x="241" y="660" type="line"/>
	  <point x="222" y="660" type="line"/>
	  <point x="405" y="348" type="line"/>
	  <point x="424" y="348" type="line"/>
	</contour>
	<contour>
	  <point x="52" y="348" type="line"/>
	  <point x="235" y="660" type="line"/>
	  <point x="216" y="660" type="line"/>
	  <point x="33" y="348" type="line"/>
	</contour>
  </outline>
</glyph>
<glyph name="underscore" format="1">
  <advance width="474"/>
  <unicode hex="005F"/>
  <outline>
	<contour>
	  <point x="-13" y="-97" type="line"/>
	  <point x="-13" y="-111" type="line"/>
	  <point x="486" y="-111" type="line"/>
	  <point x="486" y="-97" type="line"/>
	</contour>
  </outline>
</glyph>
<glyph name="a" format="1">
  <advance width="505"/>
  <unicode hex="0061"/>
  <outline>
	<contour>
	  <point x="143" y="510"/>
	  <point x="82" y="471"/>
	  <point x="51" y="388" type="curve"/>
	  <point x="64" y="378" type="line"/>
	  <point x="94" y="462"/>
	  <point x="152" y="496"/>
	  <point x="243" y="496" type="curve" smooth="yes"/>
	  <point x="346" y="496"/>
	  <point x="402" y="441"/>
	  <point x="402" y="348" type="curve" smooth="yes"/>
	  <point x="402" y="113" type="line"/>
	  <point x="402" y="82" type="line" smooth="yes"/>
	  <point x="402" y="4"/>
	  <point x="443" y="-10"/>
	  <point x="474" y="-10" type="curve" smooth="yes"/>
	  <point x="490" y="-10"/>
	  <point x="501" y="-7"/>
	  <point x="510" y="-1" type="curve"/>
	  <point x="511" y="13" type="line"/>
	  <point x="502" y="6"/>
	  <point x="488" y="4"/>
	  <point x="473" y="4" type="curve" smooth="yes"/>
	  <point x="440" y="4"/>
	  <point x="418" y="27"/>
	  <point x="418" y="76" type="curve" smooth="yes"/>
	  <point x="418" y="348" type="line" smooth="yes"/>
	  <point x="418" y="453"/>
	  <point x="356" y="510"/>
	  <point x="243" y="510" type="curve" smooth="yes"/>
	</contour>
	<contour>
	  <point x="225" y="253" type="line" smooth="yes"/>
	  <point x="95" y="229"/>
	  <point x="41" y="187"/>
	  <point x="41" y="108" type="curve" smooth="yes"/>
	  <point x="41" y="34"/>
	  <point x="99" y="-10"/>
	  <point x="197" y="-10" type="curve" smooth="yes"/>
	  <point x="295" y="-10"/>
	  <point x="410" y="37"/>
	  <point x="410" y="140" type="curve"/>
	  <point x="402" y="151" type="line"/>
	  <point x="402" y="47"/>
	  <point x="280" y="4"/>
	  <point x="202" y="4" type="curve" smooth="yes"/>
	  <point x="111" y="4"/>
	  <point x="57" y="43"/>
	  <point x="57" y="108" type="curve" smooth="yes"/>
	  <point x="57" y="175"/>
	  <point x="105" y="217"/>
	  <point x="236" y="241" type="curve" smooth="yes"/>
	  <point x="409" y="273" type="line"/>
	  <point x="407" y="287" type="line"/>
	</contour>
	<contour>
	  <point x="510" y="-1" type="move" name="ogonek"/>
	</contour>
	<contour>
	  <point x="237" y="500" type="move" name="top"/>
	</contour>
  </outline>
</glyph>
<glyph name="c" format="1">
  <advance width="512"/>
  <unicode hex="0063"/>
  <outline>
	<contour>
	  <point x="131" y="510"/>
	  <point x="46" y="412"/>
	  <point x="46" y="250" type="curve" smooth="yes"/>
	  <point x="46" y="88"/>
	  <point x="128" y="-10"/>
	  <point x="273" y="-10" type="curve" smooth="yes"/>
	  <point x="374" y="-10"/>
	  <point x="460" y="47"/>
	  <point x="477" y="137" type="curve"/>
	  <point x="463" y="142" type="line"/>
	  <point x="449" y="57"/>
	  <point x="366" y="4"/>
	  <point x="273" y="4" type="curve" smooth="yes"/>
	  <point x="138" y="4"/>
	  <point x="62" y="97"/>
	  <point x="62" y="250" type="curve" smooth="yes"/>
	  <point x="62" y="403"/>
	  <point x="141" y="496"/>
	  <point x="276" y="496" type="curve" smooth="yes"/>
	  <point x="370" y="496"/>
	  <point x="437" y="449"/>
	  <point x="459" y="366" type="curve"/>
	  <point x="473" y="373" type="line"/>
	  <point x="449" y="461"/>
	  <point x="375" y="510"/>
	  <point x="276" y="510" type="curve" smooth="yes"/>
	</contour>
	<contour>
	  <point x="270" y="500" type="move" name="top"/>
	</contour>
	<contour>
	  <point x="273" y="0" type="move" name="bottom"/>
	</contour>
  </outline>
</glyph>
<glyph name="f" format="1">
  <advance width="298"/>
  <unicode hex="0066"/>
  <outline>
	<contour>
	  <point x="168" y="735"/>
	  <point x="118" y="678"/>
	  <point x="118" y="583" type="curve" smooth="yes"/>
	  <point x="118" y="0" type="line"/>
	  <point x="134" y="0" type="line"/>
	  <point x="134" y="491" type="line"/>
	  <point x="134" y="500" type="line"/>
	  <point x="134" y="583" type="line" smooth="yes"/>
	  <point x="134" y="669"/>
	  <point x="178" y="721"/>
	  <point x="251" y="721" type="curve" smooth="yes"/>
	  <point x="283" y="721"/>
	  <point x="303" y="713"/>
	  <point x="321" y="692" type="curve"/>
	  <point x="328" y="704" type="line"/>
	  <point x="312" y="722"/>
	  <point x="290" y="735"/>
	  <point x="251" y="735" type="curve" smooth="yes"/>
	</contour>
	<contour>
	  <point x="18" y="500" type="line"/>
	  <point x="18" y="486" type="line"/>
	  <point x="320" y="486" type="line"/>
	  <point x="320" y="500" type="line"/>
	</contour>
  </outline>
</glyph>
<glyph name="g" format="1">
  <advance width="491"/>
  <unicode hex="0067"/>
  <outline>
	<contour>
	  <point x="419" y="592"/>
	  <point x="377" y="544"/>
	  <point x="377" y="470" type="curve"/>
	  <point x="390" y="465" type="line"/>
	  <point x="390" y="533"/>
	  <point x="427" y="578"/>
	  <point x="494" y="578" type="curve"/>
	  <point x="489" y="592" type="line"/>
	</contour>
	<component base="gbase" xOffset="-17"/>
	<contour>
	  <point x="251" y="500" type="move" name="top"/>
	</contour>
  </outline>
</glyph>
<glyph name="i" format="1">
  <advance width="188"/>
  <unicode hex="0069"/>
  <outline>
	<contour>
	  <point x="108" y="602"/>
	  <point x="119" y="613"/>
	  <point x="119" y="627" type="curve" smooth="yes"/>
	  <point x="119" y="641"/>
	  <point x="108" y="652"/>
	  <point x="94" y="652" type="curve" smooth="yes"/>
	  <point x="80" y="652"/>
	  <point x="69" y="641"/>
	  <point x="69" y="627" type="curve" smooth="yes"/>
	  <point x="69" y="613"/>
	  <point x="80" y="602"/>
	  <point x="94" y="602" type="curve" smooth="yes"/>
	</contour>
	<component base="dotlessi"/>
  </outline>
</glyph>
<glyph name="k" format="1">
  <advance width="477"/>
  <unicode hex="006B"/>
  <outline>
	<contour>
	  <point x="442" y="500" type="line"/>
	  <point x="94" y="177" type="line"/>
	  <point x="94" y="155" type="line"/>
	  <point x="238" y="289" type="line"/>
	  <point x="242" y="292" type="line"/>
	  <point x="466" y="500" type="line"/>
	</contour>
	<contour>
	  <point x="86" y="730" type="line"/>
	  <point x="86" y="0" type="line"/>
	  <point x="102" y="0" type="line"/>
	  <point x="102" y="730" type="line"/>
	</contour>
	<contour>
	  <point x="229" y="291" type="line"/>
	  <point x="451" y="0" type="line"/>
	  <point x="471" y="0" type="line"/>
	  <point x="241" y="302" type="line"/>
	</contour>
	<contour>
	  <point x="311" y="0" type="move" name="bottom"/>
	</contour>
  </outline>
</glyph>
<glyph name="l" format="1">
  <advance width="240"/>
  <unicode hex="006C"/>
  <outline>
	<contour>
	  <point x="86" y="730" type="line"/>
	  <point x="86" y="107" type="line" smooth="yes"/>
	  <point x="86" y="25"/>
	  <point x="119" y="-10"/>
	  <point x="183" y="-10" type="curve" smooth="yes"/>
	  <point x="211" y="-10"/>
	  <point x="229" y="-4"/>
	  <point x="243" y="4" type="curve"/>
	  <point x="244" y="20" type="line"/>
	  <point x="227" y="10"/>
	  <point x="214" y="4"/>
	  <point x="183" y="4" type="curve" smooth="yes"/>
	  <point x="130" y="4"/>
	  <point x="102" y="34"/>
	  <point x="102" y="107" type="curve" smooth="yes"/>
	  <point x="102" y="730" type="line"/>
	</contour>
	<contour>
	  <point x="94" y="730" type="move" name="top"/>
	</contour>
	<contour>
	  <point x="184" y="0" type="move" name="bottom"/>
	</contour>
	<contour>
	  <point x="216" y="730" type="move" name="topright"/>
	</contour>
  </outline>
</glyph>
<glyph name="n" format="1">
  <advance width="578"/>
  <unicode hex="006E"/>
  <outline>
	<contour>
	  <point x="185" y="510"/>
	  <point x="95" y="423"/>
	  <point x="95" y="317" type="curve"/>
	  <point x="102" y="301" type="line"/>
	  <point x="102" y="405"/>
	  <point x="190" y="496"/>
	  <point x="307" y="496" type="curve" smooth="yes"/>
	  <point x="413" y="496"/>
	  <point x="480" y="434"/>
	  <point x="480" y="327" type="curve" smooth="yes"/>
	  <point x="480" y="0" type="line"/>
	  <point x="496" y="0" type="line"/>
	  <point x="496" y="329" type="line" smooth="yes"/>
	  <point x="496" y="444"/>
	  <point x="425" y="510"/>
	  <point x="310" y="510" type="curve" smooth="yes"/>
	</contour>
	<contour>
	  <point x="86" y="500" type="line"/>
	  <point x="86" y="301" type="line"/>
	  <point x="86" y="0" type="line"/>
	  <point x="102" y="0" type="line"/>
	  <point x="102" y="292" type="line"/>
	  <point x="102" y="301" type="line"/>
	  <point x="102" y="500" type="line"/>
	</contour>
	<contour>
	  <point x="294" y="500" type="move" name="top"/>
	</contour>
	<contour>
	  <point x="324" y="0" type="move" name="bottom"/>
	</contour>
  </outline>
</glyph>
<glyph name="o" format="1">
  <advance width="559"/>
  <unicode hex="006F"/>
  <outline>
	<contour>
	  <point x="135" y="510"/>
	  <point x="46" y="412"/>
	  <point x="46" y="250" type="curve" smooth="yes"/>
	  <point x="46" y="88"/>
	  <point x="135" y="-10"/>
	  <point x="280" y="-10" type="curve" smooth="yes"/>
	  <point x="425" y="-10"/>
	  <point x="513" y="88"/>
	  <point x="513" y="250" type="curve" smooth="yes"/>
	  <point x="513" y="412"/>
	  <point x="425" y="510"/>
	  <point x="280" y="510" type="curve" smooth="yes"/>
	</contour>
	<contour>
	  <point x="415" y="496"/>
	  <point x="497" y="403"/>
	  <point x="497" y="250" type="curve" smooth="yes"/>
	  <point x="497" y="97"/>
	  <point x="415" y="4"/>
	  <point x="280" y="4" type="curve" smooth="yes"/>
	  <point x="145" y="4"/>
	  <point x="62" y="97"/>
	  <point x="62" y="250" type="curve" smooth="yes"/>
	  <point x="62" y="403"/>
	  <point x="145" y="496"/>
	  <point x="280" y="496" type="curve" smooth="yes"/>
	</contour>
	<contour>
	  <point x="280" y="500" type="move" name="top"/>
	</contour>
  </outline>
</glyph>
<glyph name="r" format="1">
  <advance width="343"/>
  <unicode hex="0072"/>
  <outline>
	<contour>
	  <point x="163" y="510"/>
	  <point x="93" y="411"/>
	  <point x="93" y="305" type="curve"/>
	  <point x="102" y="291" type="line"/>
	  <point x="102" y="395"/>
	  <point x="171" y="496"/>
	  <point x="264" y="496" type="curve" smooth="yes"/>
	  <point x="301" y="496"/>
	  <point x="315" y="487"/>
	  <point x="328" y="474" type="curve"/>
	  <point x="337" y="486" type="line"/>
	  <point x="323" y="500"/>
	  <point x="302" y="510"/>
	  <point x="266" y="510" type="curve" smooth="yes"/>
	</contour>
	<contour>
	  <point x="86" y="500" type="line"/>
	  <point x="86" y="291" type="line"/>
	  <point x="86" y="0" type="line"/>
	  <point x="102" y="0" type="line"/>
	  <point x="102" y="334" type="line"/>
	  <point x="102" y="341" type="line"/>
	  <point x="102" y="500" type="line"/>
	</contour>
	<contour>
	  <point x="196" y="500" type="move" name="top"/>
	</contour>
	<contour>
	  <point x="106" y="0" type="move" name="bottom"/>
	</contour>
  </outline>
</glyph>
<glyph name="s" format="1">
  <advance width="453"/>
  <unicode hex="0073"/>
  <outline>
	<contour>
	  <point x="125" y="510"/>
	  <point x="47" y="451"/>
	  <point x="47" y="374" type="curve" smooth="yes"/>
	  <point x="47" y="186"/>
	  <point x="404" y="290"/>
	  <point x="404" y="124" type="curve" smooth="yes"/>
	  <point x="404" y="51"/>
	  <point x="337" y="4"/>
	  <point x="231" y="4" type="curve" smooth="yes"/>
	  <point x="130" y="4"/>
	  <point x="57" y="43"/>
	  <point x="40" y="118" type="curve"/>
	  <point x="25" y="111" type="line"/>
	  <point x="44" y="31"/>
	  <point x="124" y="-10"/>
	  <point x="228" y="-10" type="curve" smooth="yes"/>
	  <point x="346" y="-10"/>
	  <point x="420" y="41"/>
	  <point x="420" y="124" type="curve" smooth="yes"/>
	  <point x="420" y="310"/>
	  <point x="63" y="199"/>
	  <point x="63" y="378" type="curve" smooth="yes"/>
	  <point x="63" y="445"/>
	  <point x="134" y="496"/>
	  <point x="232" y="496" type="curve" smooth="yes"/>
	  <point x="326" y="496"/>
	  <point x="386" y="459"/>
	  <point x="403" y="377" type="curve"/>
	  <point x="417" y="385" type="line"/>
	  <point x="398" y="472"/>
	  <point x="334" y="510"/>
	  <point x="232" y="510" type="curve" smooth="yes"/>
	</contour>
	<contour>
	  <point x="227" y="500" type="move" name="top"/>
	</contour>
	<contour>
	  <point x="240" y="0" type="move" name="bottom"/>
	</contour>
  </outline>
</glyph>
<glyph name="w" format="1">
  <advance width="749"/>
  <unicode hex="0077"/>
  <outline>
	<contour>
	  <point x="366" y="500" type="line"/>
	  <point x="553" y="0" type="line"/>
	  <point x="569" y="0" type="line"/>
	  <point x="383" y="500" type="line"/>
	</contour>
	<contour>
	  <point x="14" y="500" type="line"/>
	  <point x="180" y="0" type="line"/>
	  <point x="196" y="0" type="line"/>
	  <point x="31" y="500" type="line"/>
	</contour>
	<contour>
	  <point x="366" y="500" type="line"/>
	  <point x="180" y="0" type="line"/>
	  <point x="196" y="0" type="line"/>
	  <point x="383" y="500" type="line"/>
	</contour>
	<contour>
	  <point x="718" y="500" type="line"/>
	  <point x="553" y="0" type="line"/>
	  <point x="569" y="0" type="line"/>
	  <point x="735" y="500" type="line"/>
	</contour>
  </outline>
</glyph>
<glyph name="braceleft" format="1">
  <advance width="359"/>
  <unicode hex="007B"/>
  <outline>
	<contour>
	  <point x="219" y="740"/>
	  <point x="175" y="698"/>
	  <point x="175" y="628" type="curve" smooth="yes"/>
	  <point x="175" y="386" type="line" smooth="yes"/>
	  <point x="175" y="327"/>
	  <point x="132" y="292"/>
	  <point x="61" y="292" type="curve"/>
	  <point x="61" y="279" type="line"/>
	  <point x="142" y="279"/>
	  <point x="191" y="319"/>
	  <point x="191" y="386" type="curve" smooth="yes"/>
	  <point x="191" y="628" type="line" smooth="yes"/>
	  <point x="191" y="689"/>
	  <point x="229" y="726"/>
	  <point x="292" y="726" type="curve"/>
	  <point x="292" y="740" type="line"/>
	</contour>
	<contour>
	  <point x="61" y="279" type="line"/>
	  <point x="132" y="279"/>
	  <point x="175" y="244"/>
	  <point x="175" y="185" type="curve" smooth="yes"/>
	  <point x="175" y="-58" type="line" smooth="yes"/>
	  <point x="175" y="-128"/>
	  <point x="219" y="-170"/>
	  <point x="292" y="-170" type="curve"/>
	  <point x="292" y="-156" type="line"/>
	  <point x="229" y="-156"/>
	  <point x="191" y="-119"/>
	  <point x="191" y="-58" type="curve" smooth="yes"/>
	  <point x="191" y="185" type="line" smooth="yes"/>
	  <point x="191" y="252"/>
	  <point x="142" y="292"/>
	  <point x="61" y="292" type="curve"/>
	</contour>
  </outline>
</glyph>
<glyph name="asciitilde" format="1">
  <advance width="553"/>
  <unicode hex="007E"/>
  <outline>
	<contour>
	  <point x="513" y="368" type="line"/>
	  <point x="501" y="293"/>
	  <point x="462" y="255"/>
	  <point x="394" y="255" type="curve" smooth="yes"/>
	  <point x="292" y="255"/>
	  <point x="259" y="367"/>
	  <point x="157" y="367" type="curve" smooth="yes"/>
	  <point x="82" y="367"/>
	  <point x="36" y="324"/>
	  <point x="24" y="240" type="curve"/>
	  <point x="40" y="240" type="line"/>
	  <point x="52" y="315"/>
	  <point x="91" y="353"/>
	  <point x="157" y="353" type="curve" smooth="yes"/>
	  <point x="247" y="353"/>
	  <point x="280" y="241"/>
	  <point x="394" y="241" type="curve" smooth="yes"/>
	  <point x="469" y="241"/>
	  <point x="517" y="284"/>
	  <point x="529" y="368" type="curve"/>
	</contour>
  </outline>
</glyph>
<glyph name="currency" format="1">
  <advance width="560"/>
  <unicode hex="00A4"/>
  <outline>
	<contour>
	  <point x="173" y="516"/>
	  <point x="103" y="444"/>
	  <point x="103" y="333" type="curve" smooth="yes"/>
	  <point x="103" y="221"/>
	  <point x="173" y="148"/>
	  <point x="280" y="148" type="curve" smooth="yes"/>
	  <point x="386" y="148"/>
	  <point x="456" y="221"/>
	  <point x="456" y="333" type="curve" smooth="yes"/>
	  <point x="456" y="444"/>
	  <point x="386" y="516"/>
	  <point x="280" y="516" type="curve" smooth="yes"/>
	</contour>
	<contour>
	  <point x="378" y="502"/>
	  <point x="440" y="436"/>
	  <point x="440" y="333" type="curve" smooth="yes"/>
	  <point x="440" y="228"/>
	  <point x="378" y="162"/>
	  <point x="280" y="162" type="curve" smooth="yes"/>
	  <point x="182" y="162"/>
	  <point x="119" y="228"/>
	  <point x="119" y="333" type="curve" smooth="yes"/>
	  <point x="119" y="436"/>
	  <point x="182" y="502"/>
	  <point x="280" y="502" type="curve" smooth="yes"/>
	</contour>
	<contour>
	  <point x="41" y="557" type="line"/>
	  <point x="147" y="451" type="line"/>
	  <point x="159" y="462" type="line"/>
	  <point x="53" y="569" type="line"/>
	</contour>
	<contour>
	  <point x="41" y="103" type="line"/>
	  <point x="53" y="91" type="line"/>
	  <point x="161" y="199" type="line"/>
	  <point x="149" y="211" type="line"/>
	</contour>
	<contour>
	  <point x="400" y="199" type="line"/>
	  <point x="508" y="91" type="line"/>
	  <point x="519" y="102" type="line"/>
	  <point x="410" y="211" type="line"/>
	</contour>
	<contour>
	  <point x="401" y="463" type="line"/>
	  <point x="412" y="450" type="line"/>
	  <point x="519" y="558" type="line"/>
	  <point x="508" y="569" type="line"/>
	</contour>
	<contour>
	  <point x="514" y="96" type="move" name="top"/>
	</contour>
  </outline>
</glyph>
<glyph name="yen" format="1">
  <advance width="512"/>
  <unicode hex="00A5"/>
  <outline>
	<contour>
	  <point x="477" y="660" type="line"/>
	  <point x="276" y="308" type="line"/>
	  <point x="257" y="273" type="line"/>
	  <point x="255" y="273" type="line"/>
	  <point x="235" y="310" type="line"/>
	  <point x="35" y="660" type="line"/>
	  <point x="16" y="660" type="line"/>
	  <point x="221" y="304" type="line"/>
	  <point x="240" y="270" type="line"/>
	  <point x="195" y="270" type="line"/>
	  <point x="42" y="270" type="line"/>
	  <point x="42" y="256" type="line"/>
	  <point x="195" y="256" type="line"/>
	  <point x="248" y="256" type="line"/>
	  <point x="248" y="232" type="line"/>
	  <point x="248" y="147" type="line"/>
	  <point x="42" y="147" type="line"/>
	  <point x="42" y="133" type="line"/>
	  <point x="248" y="133" type="line"/>
	  <point x="248" y="0" type="line"/>
	  <point x="264" y="0" type="line"/>
	  <point x="264" y="133" type="line"/>
	  <point x="471" y="133" type="line"/>
	  <point x="471" y="147" type="line"/>
	  <point x="264" y="147" type="line"/>
	  <point x="264" y="232" type="line"/>
	  <point x="264" y="256" type="line"/>
	  <point x="314" y="256" type="line"/>
	  <point x="471" y="256" type="line"/>
	  <point x="471" y="270" type="line"/>
	  <point x="314" y="270" type="line"/>
	  <point x="272" y="270" type="line"/>
	  <point x="291" y="303" type="line"/>
	  <point x="496" y="660" type="line"/>
	</contour>
	<contour>
	  <point x="256" y="660" type="move" name="top"/>
	</contour>
  </outline>
</glyph>
<glyph name="brokenbar" format="1">
  <advance width="223"/>
  <unicode hex="00A6"/>
  <outline>
	<contour>
	  <point x="104" y="730" type="line"/>
	  <point x="104" y="394" type="line"/>
	  <point x="119" y="394" type="line"/>
	  <point x="119" y="730" type="line"/>
	</contour>
	<contour>
	  <point x="104" y="168" type="line"/>
	  <point x="104" y="-168" type="line"/>
	  <point x="119" y="-168" type="line"/>
	  <point x="119" y="168" type="line"/>
	</contour>
  </outline>
</glyph>
<glyph name="ordfeminine" format="1">
  <advance width="372"/>
  <unicode hex="00AA"/>
  <outline>
	<contour>
	  <point x="113" y="670"/>
	  <point x="66" y="639"/>
	  <point x="47" y="582" type="curve"/>
	  <point x="61" y="574" type="line"/>
	  <point x="75" y="627"/>
	  <point x="117" y="656"/>
	  <point x="181" y="656" type="curve" smooth="yes"/>
	  <point x="252" y="656"/>
	  <point x="291" y="616"/>
	  <point x="291" y="544" type="curve" smooth="yes"/>
	  <point x="291" y="420" type="line"/>
	  <point x="291" y="394" type="line" smooth="yes"/>
	  <point x="291" y="339"/>
	  <point x="315" y="316"/>
	  <point x="353" y="316" type="curve" smooth="yes"/>
	  <point x="360" y="316"/>
	  <point x="368" y="317"/>
	  <point x="373" y="321" type="curve"/>
	  <point x="369" y="332" type="line"/>
	  <point x="366" y="331"/>
	  <point x="362" y="330"/>
	  <point x="354" y="330" type="curve" smooth="yes"/>
	  <point x="325" y="330"/>
	  <point x="307" y="350"/>
	  <point x="307" y="398" type="curve" smooth="yes"/>
	  <point x="307" y="551" type="line" smooth="yes"/>
	  <point x="307" y="628"/>
	  <point x="261" y="670"/>
	  <point x="179" y="670" type="curve" smooth="yes"/>
	</contour>
	<contour>
	  <point x="37" y="216" type="line"/>
	  <point x="37" y="202" type="line"/>
	  <point x="356" y="202" type="line"/>
	  <point x="356" y="216" type="line"/>
	</contour>
	<contour>
	  <point x="147" y="494" type="line" smooth="yes"/>
	  <point x="83" y="482"/>
	  <point x="38" y="450"/>
	  <point x="38" y="400" type="curve" smooth="yes"/>
	  <point x="38" y="344"/>
	  <point x="80" y="316"/>
	  <point x="149" y="316" type="curve" smooth="yes"/>
	  <point x="241" y="316"/>
	  <point x="297" y="374"/>
	  <point x="299" y="439" type="curve"/>
	  <point x="291" y="451" type="line"/>
	  <point x="291" y="385"/>
	  <point x="234" y="330"/>
	  <point x="149" y="330" type="curve" smooth="yes"/>
	  <point x="90" y="330"/>
	  <point x="54" y="353"/>
	  <point x="54" y="399" type="curve" smooth="yes"/>
	  <point x="54" y="442"/>
	  <point x="95" y="471"/>
	  <point x="155" y="482" type="curve" smooth="yes"/>
	  <point x="301" y="510" type="line"/>
	  <point x="299" y="523" type="line"/>
	</contour>
  </outline>
</glyph>
<glyph name="registered" format="1">
  <advance width="776"/>
  <unicode hex="00AE"/>
  <outline>
	<contour>
	  <point x="180" y="670"/>
	  <point x="46" y="536"/>
	  <point x="46" y="330" type="curve" smooth="yes"/>
	  <point x="46" y="124"/>
	  <point x="180" y="-10"/>
	  <point x="388" y="-10" type="curve" smooth="yes"/>
	  <point x="596" y="-10"/>
	  <point x="730" y="124"/>
	  <point x="730" y="330" type="curve" smooth="yes"/>
	  <point x="730" y="536"/>
	  <point x="596" y="670"/>
	  <point x="388" y="670" type="curve" smooth="yes"/>
	</contour>
	<contour>
	  <point x="266" y="513" type="line"/>
	  <point x="266" y="143" type="line"/>
	  <point x="282" y="143" type="line"/>
	  <point x="282" y="513" type="line"/>
	</contour>
	<contour>
	  <point x="417" y="316" type="line"/>
	  <point x="528" y="143" type="line"/>
	  <point x="546" y="143" type="line"/>
	  <point x="431" y="322" type="line"/>
	</contour>
	<contour>
	  <point x="587" y="656"/>
	  <point x="714" y="529"/>
	  <point x="714" y="330" type="curve" smooth="yes"/>
	  <point x="714" y="131"/>
	  <point x="587" y="4"/>
	  <point x="388" y="4" type="curve" smooth="yes"/>
	  <point x="189" y="4"/>
	  <point x="62" y="131"/>
	  <point x="62" y="330" type="curve" smooth="yes"/>
	  <point x="62" y="529"/>
	  <point x="189" y="656"/>
	  <point x="388" y="656" type="curve" smooth="yes"/>
	</contour>
	<contour>
	  <point x="272" y="513" type="line"/>
	  <point x="272" y="499" type="line"/>
	  <point x="421" y="499" type="line" smooth="yes"/>
	  <point x="490" y="499"/>
	  <point x="525" y="470"/>
	  <point x="525" y="412" type="curve" smooth="yes"/>
	  <point x="525" y="355"/>
	  <point x="490" y="325"/>
	  <point x="421" y="324" type="curve" smooth="yes"/>
	  <point x="272" y="324" type="line"/>
	  <point x="272" y="311" type="line"/>
	  <point x="421" y="311" type="line" smooth="yes"/>
	  <point x="500" y="312"/>
	  <point x="540" y="346"/>
	  <point x="540" y="412" type="curve" smooth="yes"/>
	  <point x="540" y="479"/>
	  <point x="500" y="513"/>
	  <point x="421" y="513" type="curve" smooth="yes"/>
	</contour>
  </outline>
</glyph>
<glyph name="macron" format="1">
  <advance width="550"/>
  <unicode hex="00AF"/>
  <outline>
	<contour>
	  <point x="110" y="619" type="line"/>
	  <point x="110" y="605" type="line"/>
	  <point x="398" y="605" type="line"/>
	  <point x="398" y="619" type="line"/>
	</contour>
	<contour>
	  <point x="500" y="10" type="move" name="ogonek"/>
	</contour>
	<contour>
	  <point x="254" y="500" type="move" name="_top"/>
	</contour>
  </outline>
</glyph>
<glyph name="degree" format="1">
  <advance width="346"/>
  <unicode hex="00B0"/>
  <outline>
	<contour>
	  <point x="254" y="400"/>
	  <point x="307" y="455"/>
	  <point x="307" y="535" type="curve" smooth="yes"/>
	  <point x="307" y="615"/>
	  <point x="254" y="670"/>
	  <point x="173" y="670" type="curve" smooth="yes"/>
	  <point x="92" y="670"/>
	  <point x="39" y="615"/>
	  <point x="39" y="535" type="curve" smooth="yes"/>
	  <point x="39" y="455"/>
	  <point x="92" y="400"/>
	  <point x="173" y="400" type="curve" smooth="yes"/>
	</contour>
	<contour>
	  <point x="101" y="414"/>
	  <point x="55" y="464"/>
	  <point x="55" y="535" type="curve" smooth="yes"/>
	  <point x="55" y="606"/>
	  <point x="101" y="656"/>
	  <point x="173" y="656" type="curve" smooth="yes"/>
	  <point x="245" y="656"/>
	  <point x="291" y="606"/>
	  <point x="291" y="535" type="curve" smooth="yes"/>
	  <point x="291" y="464"/>
	  <point x="245" y="414"/>
	  <point x="173" y="414" type="curve" smooth="yes"/>
	</contour>
  </outline>
</glyph>
<glyph name="threesuperior" format="1">
  <advance width="291"/>
  <unicode hex="00B3"/>
  <outline>
	<contour>
	  <point x="187" y="557" type="line"/>
	  <point x="231" y="557"/>
	  <point x="262" y="595"/>
	  <point x="262" y="643" type="curve" smooth="yes"/>
	  <point x="262" y="704"/>
	  <point x="218" y="740"/>
	  <point x="146" y="740" type="curve" smooth="yes"/>
	  <point x="83" y="740"/>
	  <point x="44" y="712"/>
	  <point x="32" y="656" type="curve"/>
	  <point x="46" y="650" type="line"/>
	  <point x="58" y="699"/>
	  <point x="83" y="726"/>
	  <point x="146" y="726" type="curve" smooth="yes"/>
	  <point x="209" y="726"/>
	  <point x="246" y="693"/>
	  <point x="246" y="638" type="curve" smooth="yes"/>
	  <point x="246" y="589"/>
	  <point x="217" y="561"/>
	  <point x="150" y="561" type="curve" smooth="yes"/>
	  <point x="109" y="561" type="line"/>
	  <point x="109" y="547" type="line"/>
	  <point x="150" y="547" type="line" smooth="yes"/>
	  <point x="222" y="547"/>
	  <point x="253" y="519"/>
	  <point x="254" y="475" type="curve" smooth="yes"/>
	  <point x="256" y="422"/>
	  <point x="217" y="390"/>
	  <point x="143" y="390" type="curve" smooth="yes"/>
	  <point x="83" y="390"/>
	  <point x="44" y="419"/>
	  <point x="27" y="474" type="curve"/>
	  <point x="16" y="468" type="line"/>
	  <point x="32" y="407"/>
	  <point x="76" y="376"/>
	  <point x="145" y="376" type="curve" smooth="yes"/>
	  <point x="226" y="376"/>
	  <point x="270" y="413"/>
	  <point x="270" y="473" type="curve" smooth="yes"/>
	  <point x="270" y="524"/>
	  <point x="231" y="555"/>
	  <point x="187" y="555" type="curve"/>
	</contour>
  </outline>
</glyph>
<glyph name="acute" format="1">
  <advance width="550"/>
  <unicode hex="00B4"/>
  <outline>
	<component base="grave" xOffset="550" xScale="-1"/>
	<contour>
	  <point x="302" y="500" type="move" name="_top"/>
	</contour>
  </outline>
</glyph>
<glyph name="onesuperior" format="1">
  <advance width="151"/>
  <unicode hex="00B9"/>
  <outline>
	<contour>
	  <point x="113" y="588" type="line"/>
	  <point x="113" y="730" type="line"/>
	  <point x="97" y="730" type="line"/>
	  <point x="97" y="588" type="line"/>
	  <point x="97" y="376" type="line"/>
	  <point x="113" y="376" type="line"/>
	</contour>
	<contour>
	  <point x="44" y="664"/>
	  <point x="91" y="691"/>
	  <point x="113" y="730" type="curve"/>
	  <point x="97" y="730" type="line"/>
	  <point x="78" y="698"/>
	  <point x="36" y="676"/>
	  <point x="-4" y="665" type="curve"/>
	  <point x="-4" y="651" type="line"/>
	</contour>
  </outline>
</glyph>
<glyph name="onehalf" format="1">
  <advance width="673"/>
  <unicode hex="00BD"/>
  <outline>
	<contour>
	  <point x="15" y="581" type="line"/>
	  <point x="63" y="594"/>
	  <point x="110" y="621"/>
	  <point x="132" y="660" type="curve"/>
	  <point x="116" y="660" type="line"/>
	  <point x="97" y="628"/>
	  <point x="55" y="606"/>
	  <point x="15" y="595" type="curve"/>
	</contour>
	<contour>
	  <point x="116" y="660" type="line"/>
	  <point x="116" y="518" type="line"/>
	  <point x="116" y="306" type="line"/>
	  <point x="132" y="306" type="line"/>
	  <point x="132" y="518" type="line"/>
	  <point x="132" y="660" type="line"/>
	</contour>
	<contour>
	  <point x="451" y="359"/>
	  <point x="407" y="319"/>
	  <point x="400" y="250" type="curve"/>
	  <point x="415" y="244" type="line"/>
	  <point x="419" y="306"/>
	  <point x="459" y="345"/>
	  <point x="516" y="345" type="curve" smooth="yes"/>
	  <point x="584" y="345"/>
	  <point x="619" y="312"/>
	  <point x="619" y="248" type="curve" smooth="yes"/>
	  <point x="619" y="165"/>
	  <point x="512" y="107"/>
	  <point x="402" y="14" type="curve"/>
	  <point x="414" y="6" type="line"/>
	  <point x="532" y="100"/>
	  <point x="635" y="164"/>
	  <point x="635" y="248" type="curve" smooth="yes"/>
	  <point x="635" y="322"/>
	  <point x="595" y="359"/>
	  <point x="516" y="359" type="curve" smooth="yes"/>
	</contour>
	<contour>
	  <point x="445" y="14" type="line"/>
	  <point x="402" y="14" type="line"/>
	  <point x="402" y="0" type="line"/>
	  <point x="445" y="0" type="line"/>
	  <point x="644" y="0" type="line"/>
	  <point x="644" y="14" type="line"/>
	</contour>
	<component base="fraction" xOffset="76"/>
  </outline>
</glyph>
<glyph name="Aring" format="1">
  <advance width="558"/>
  <unicode hex="00C5"/>
  <outline>
	<contour>
	  <point x="270" y="660" type="line"/>
	  <point x="-2" y="0" type="line"/>
	  <point x="15" y="0" type="line"/>
	  <point x="262" y="597" type="line"/>
	  <point x="279" y="642" type="line"/>
	  <point x="279" y="642" type="line"/>
	  <point x="296" y="596" type="line"/>
	  <point x="543" y="0" type="line"/>
	  <point x="560" y="0" type="line"/>
	  <point x="288" y="660" type="line"/>
	</contour>
	<contour>
	  <point x="104" y="248" type="line"/>
	  <point x="104" y="234" type="line"/>
	  <point x="453" y="234" type="line"/>
	  <point x="453" y="248" type="line"/>
	</contour>
	<contour>
	  <point x="236" y="786"/>
	  <point x="207" y="758"/>
	  <point x="207" y="716" type="curve" smooth="yes"/>
	  <point x="207" y="674"/>
	  <point x="236" y="646"/>
	  <point x="279" y="646" type="curve" smooth="yes"/>
	  <point x="322" y="646"/>
	  <point x="351" y="674"/>
	  <point x="351" y="716" type="curve" smooth="yes"/>
	  <point x="351" y="758"/>
	  <point x="322" y="786"/>
	  <point x="279" y="786" type="curve" smooth="yes"/>
	</contour>
	<contour>
	  <point x="313" y="772"/>
	  <point x="335" y="750"/>
	  <point x="335" y="716" type="curve" smooth="yes"/>
	  <point x="335" y="682"/>
	  <point x="313" y="660"/>
	  <point x="279" y="660" type="curve" smooth="yes"/>
	  <point x="245" y="660"/>
	  <point x="223" y="682"/>
	  <point x="223" y="716" type="curve" smooth="yes"/>
	  <point x="223" y="750"/>
	  <point x="245" y="772"/>
	  <point x="279" y="772" type="curve" smooth="yes"/>
	</contour>
	<contour>
	  <point x="560" y="0" type="move" name="ogonek"/>
	</contour>
	<contour>
	  <point x="279" y="660" type="move" name="top"/>
	</contour>
  </outline>
</glyph>
<glyph name="AE" format="1">
  <advance width="861"/>
  <unicode hex="00C6"/>
  <outline>
	<contour>
	  <point x="405" y="660" type="line"/>
	  <point x="-15" y="0" type="line"/>
	  <point x="8" y="0" type="line"/>
	  <point x="422" y="660" type="line"/>
	</contour>
	<contour>
	  <point x="166" y="268" type="line"/>
	  <point x="156" y="254" type="line"/>
	  <point x="436" y="254" type="line"/>
	  <point x="436" y="268" type="line"/>
	</contour>
	<contour>
	  <point x="440" y="14" type="line"/>
	  <point x="440" y="0" type="line"/>
	  <point x="848" y="0" type="line"/>
	  <point x="848" y="14" type="line"/>
	</contour>
	<contour>
	  <point x="431" y="660" type="line"/>
	  <point x="431" y="0" type="line"/>
	  <point x="447" y="0" type="line"/>
	  <point x="447" y="660" type="line"/>
	</contour>
	<contour>
	  <point x="440" y="342" type="line"/>
	  <point x="440" y="328" type="line"/>
	  <point x="755" y="328" type="line"/>
	  <point x="755" y="342" type="line"/>
	</contour>
	<contour>
	  <point x="417" y="660" type="line"/>
	  <point x="406" y="646" type="line"/>
	  <point x="437" y="646" type="line"/>
	  <point x="440" y="646" type="line"/>
	  <point x="832" y="646" type="line"/>
	  <point x="832" y="660" type="line"/>
	</contour>
  </outline>
</glyph>
<glyph name="Oslash" format="1">
  <advance width="716"/>
  <unicode hex="00D8"/>
  <outline>
	<contour>
	  <point x="609" y="690" type="line"/>
	  <point x="543" y="599" type="line"/>
	  <point x="556" y="590" type="line"/>
	  <point x="629" y="690" type="line"/>
	</contour>
	<contour>
	  <point x="161" y="71" type="line"/>
	  <point x="171" y="59" type="line"/>
	  <point x="556" y="590" type="line"/>
	  <point x="543" y="599" type="line"/>
	</contour>
	<contour>
	  <point x="107" y="-30" type="line"/>
	  <point x="171" y="59" type="line"/>
	  <point x="161" y="71" type="line"/>
	  <point x="87" y="-30" type="line"/>
	</contour>
	<component base="O"/>
  </outline>
</glyph>
<glyph name="Thorn" format="1">
  <advance width="585"/>
  <unicode hex="00DE"/>
  <outline>
	<contour>
	  <point x="109" y="525" type="line"/>
	  <point x="109" y="511" type="line"/>
	  <point x="304" y="511" type="line" smooth="yes"/>
	  <point x="442" y="511"/>
	  <point x="512" y="453"/>
	  <point x="512" y="340" type="curve" smooth="yes"/>
	  <point x="512" y="227"/>
	  <point x="442" y="169"/>
	  <point x="304" y="169" type="curve" smooth="yes"/>
	  <point x="109" y="169" type="line"/>
	  <point x="109" y="155" type="line"/>
	  <point x="295" y="155" type="line" smooth="yes"/>
	  <point x="449" y="155"/>
	  <point x="528" y="218"/>
	  <point x="528" y="340" type="curve" smooth="yes"/>
	  <point x="528" y="462"/>
	  <point x="449" y="525"/>
	  <point x="295" y="525" type="curve" smooth="yes"/>
	</contour>
	<contour>
	  <point x="100" y="660" type="line"/>
	  <point x="100" y="0" type="line"/>
	  <point x="116" y="0" type="line"/>
	  <point x="116" y="660" type="line"/>
	</contour>
  </outline>
</glyph>
<glyph name="germandbls" format="1">
  <advance width="545"/>
  <unicode hex="00DF"/>
  <outline>
	<contour>
	  <point x="324" y="378" type="line"/>
	  <point x="410" y="382"/>
	  <point x="478" y="453"/>
	  <point x="478" y="561" type="curve" smooth="yes"/>
	  <point x="478" y="671"/>
	  <point x="408" y="735"/>
	  <point x="294" y="735" type="curve" smooth="yes"/>
	  <point x="158" y="735"/>
	  <point x="86" y="660"/>
	  <point x="86" y="516" type="curve" smooth="yes"/>
	  <point x="86" y="0" type="line"/>
	  <point x="101" y="0" type="line"/>
	  <point x="101" y="505" type="line" smooth="yes"/>
	  <point x="101" y="647"/>
	  <point x="168" y="721"/>
	  <point x="294" y="721" type="curve" smooth="yes"/>
	  <point x="398" y="721"/>
	  <point x="462" y="662"/>
	  <point x="462" y="563" type="curve" smooth="yes"/>
	  <point x="462" y="449"/>
	  <point x="391" y="384"/>
	  <point x="293" y="384" type="curve" smooth="yes"/>
	  <point x="249" y="384" type="line"/>
	  <point x="249" y="370" type="line"/>
	  <point x="293" y="370" type="line" smooth="yes"/>
	  <point x="409" y="370"/>
	  <point x="491" y="310"/>
	  <point x="491" y="182" type="curve" smooth="yes"/>
	  <point x="491" y="73"/>
	  <point x="423" y="3"/>
	  <point x="321" y="3" type="curve" smooth="yes"/>
	  <point x="280" y="3"/>
	  <point x="250" y="15"/>
	  <point x="225" y="44" type="curve"/>
	  <point x="216" y="34" type="line"/>
	  <point x="239" y="5"/>
	  <point x="277" y="-10"/>
	  <point x="321" y="-10" type="curve" smooth="yes"/>
	  <point x="432" y="-10"/>
	  <point x="507" y="65"/>
	  <point x="507" y="182" type="curve" smooth="yes"/>
	  <point x="507" y="299"/>
	  <point x="441" y="371"/>
	  <point x="324" y="377" type="curve"/>
	</contour>
  </outline>
</glyph>
<glyph name="eth" format="1">
  <advance width="562"/>
  <unicode hex="00F0"/>
  <outline>
	<contour>
	  <point x="240" y="730" type="line"/>
	  <point x="382" y="676"/>
	  <point x="498" y="535"/>
	  <point x="498" y="290" type="curve"/>
	  <point x="499" y="257" type="line"/>
	  <point x="493" y="95"/>
	  <point x="417" y="4"/>
	  <point x="288" y="4" type="curve" smooth="yes"/>
	  <point x="151" y="4"/>
	  <point x="68" y="95"/>
	  <point x="68" y="237" type="curve" smooth="yes"/>
	  <point x="68" y="379"/>
	  <point x="152" y="471"/>
	  <point x="280" y="471" type="curve" smooth="yes"/>
	  <point x="425" y="471"/>
	  <point x="499" y="366"/>
	  <point x="499" y="257" type="curve"/>
	  <point x="505" y="281" type="line"/>
	  <point x="498" y="405"/>
	  <point x="414" y="485"/>
	  <point x="280" y="485" type="curve" smooth="yes"/>
	  <point x="143" y="485"/>
	  <point x="52" y="388"/>
	  <point x="52" y="237" type="curve" smooth="yes"/>
	  <point x="52" y="88"/>
	  <point x="142" y="-10"/>
	  <point x="288" y="-10" type="curve" smooth="yes"/>
	  <point x="426" y="-10"/>
	  <point x="512" y="85"/>
	  <point x="512" y="283" type="curve" smooth="yes"/>
	  <point x="512" y="550"/>
	  <point x="399" y="672"/>
	  <point x="271" y="730" type="curve"/>
	</contour>
	<contour>
	  <point x="225" y="587" type="line"/>
	  <point x="229" y="574" type="line"/>
	  <point x="415" y="613" type="line"/>
	  <point x="407" y="625" type="line"/>
	</contour>
	<contour>
	  <point x="407" y="625" type="line"/>
	  <point x="415" y="613" type="line"/>
	  <point x="531" y="638" type="line"/>
	  <point x="527" y="651" type="line"/>
	</contour>
  </outline>
</glyph>
<glyph name="oslash" format="1">
  <advance width="568"/>
  <unicode hex="00F8"/>
  <outline>
	<contour>
	  <point x="125" y="55" type="line"/>
	  <point x="58" y="-30" type="line"/>
	  <point x="79" y="-30" type="line"/>
	  <point x="136" y="42" type="line"/>
	</contour>
	<contour>
	  <point x="446" y="434" type="line"/>
	  <point x="522" y="530" type="line"/>
	  <point x="501" y="530" type="line"/>
	  <point x="435" y="446" type="line"/>
	</contour>
	<contour>
	  <point x="136" y="42" type="line"/>
	  <point x="446" y="434" type="line"/>
	  <point x="435" y="446" type="line"/>
	  <point x="125" y="55" type="line"/>
	</contour>
	<component base="o"/>
  </outline>
</glyph>
<glyph name="thorn" format="1">
  <advance width="581"/>
  <unicode hex="00FE"/>
  <outline>
	<contour>
	  <point x="86" y="730" type="line"/>
	  <point x="86" y="-210" type="line"/>
	  <point x="102" y="-210" type="line"/>
	  <point x="102" y="730" type="line"/>
	</contour>
	<contour>
	  <point x="177" y="510"/>
	  <point x="92" y="420"/>
	  <point x="92" y="267" type="curve"/>
	  <point x="102" y="253" type="line"/>
	  <point x="102" y="404"/>
	  <point x="181" y="496"/>
	  <point x="303" y="496" type="curve" smooth="yes"/>
	  <point x="439" y="496"/>
	  <point x="519" y="405"/>
	  <point x="519" y="250" type="curve" smooth="yes"/>
	  <point x="519" y="95"/>
	  <point x="439" y="4"/>
	  <point x="303" y="4" type="curve" smooth="yes"/>
	  <point x="182" y="4"/>
	  <point x="102" y="95"/>
	  <point x="102" y="246" type="curve"/>
	  <point x="93" y="230" type="line"/>
	  <point x="93" y="79"/>
	  <point x="176" y="-10"/>
	  <point x="306" y="-10" type="curve" smooth="yes"/>
	  <point x="450" y="-10"/>
	  <point x="535" y="87"/>
	  <point x="535" y="250" type="curve" smooth="yes"/>
	  <point x="535" y="413"/>
	  <point x="450" y="510"/>
	  <point x="306" y="510" type="curve" smooth="yes"/>
	</contour>
  </outline>
</glyph>
<glyph name="dcroat" format="1">
  <advance width="602"/>
  <unicode hex="0111"/>
  <outline>
	<contour>
	  <point x="302" y="606" type="line"/>
	  <point x="302" y="594" type="line"/>
	  <point x="597" y="594" type="line"/>
	  <point x="597" y="606" type="line"/>
	</contour>
	<component base="d" xOffset="5"/>
  </outline>
</glyph>
<glyph name="Lslash" format="1">
  <advance width="533"/>
  <unicode hex="0141"/>
  <outline>
	<contour>
	  <point x="-1" y="232" type="line"/>
	  <point x="-1" y="212" type="line"/>
	  <point x="324" y="419" type="line"/>
	  <point x="324" y="439" type="line"/>
	</contour>
	<component base="L"/>
  </outline>
</glyph>
<glyph name="OE" format="1">
  <advance width="1034"/>
  <unicode hex="0152"/>
  <outline>
	<contour>
	  <point x="168" y="670"/>
	  <point x="57" y="539"/>
	  <point x="57" y="330" type="curve" smooth="yes"/>
	  <point x="57" y="121"/>
	  <point x="168" y="-10"/>
	  <point x="338" y="-10" type="curve" smooth="yes"/>
	  <point x="526" y="-10"/>
	  <point x="607" y="101"/>
	  <point x="607" y="330" type="curve" smooth="yes"/>
	  <point x="607" y="559"/>
	  <point x="526" y="670"/>
	  <point x="338" y="670" type="curve" smooth="yes"/>
	</contour>
	<contour>
	  <point x="518" y="656"/>
	  <point x="593" y="550"/>
	  <point x="593" y="330" type="curve" smooth="yes"/>
	  <point x="593" y="110"/>
	  <point x="518" y="4"/>
	  <point x="338" y="4" type="curve" smooth="yes"/>
	  <point x="178" y="4"/>
	  <point x="73" y="130"/>
	  <point x="73" y="330" type="curve" smooth="yes"/>
	  <point x="73" y="530"/>
	  <point x="178" y="656"/>
	  <point x="338" y="656" type="curve" smooth="yes"/>
	</contour>
	<contour>
	  <point x="607" y="14" type="line"/>
	  <point x="599" y="0" type="line"/>
	  <point x="1021" y="0" type="line"/>
	  <point x="1021" y="14" type="line"/>
	</contour>
	<contour>
	  <point x="593" y="660" type="line"/>
	  <point x="593" y="0" type="line"/>
	  <point x="609" y="0" type="line"/>
	  <point x="609" y="660" type="line"/>
	</contour>
	<contour>
	  <point x="599" y="344" type="line"/>
	  <point x="599" y="330" type="line"/>
	  <point x="932" y="330" type="line"/>
	  <point x="932" y="344" type="line"/>
	</contour>
	<contour>
	  <point x="599" y="660" type="line"/>
	  <point x="599" y="646" type="line"/>
	  <point x="1004" y="646" type="line"/>
	  <point x="1004" y="660" type="line"/>
	</contour>
  </outline>
</glyph>
<glyph name="uni0162" format="1">
  <advance width="537"/>
  <unicode hex="0162"/>
  <outline>
	<contour>
	  <point x="318" y="-36"/>
	  <point x="345" y="-68"/>
	  <point x="345" y="-117" type="curve" smooth="yes"/>
	  <point x="345" y="-160"/>
	  <point x="316" y="-189"/>
	  <point x="271" y="-189" type="curve" smooth="yes"/>
	  <point x="230" y="-189"/>
	  <point x="208" y="-174"/>
	  <point x="187" y="-148" type="curve"/>
	  <point x="178" y="-158" type="line"/>
	  <point x="198" y="-184"/>
	  <point x="224" y="-202"/>
	  <point x="271" y="-202" type="curve" smooth="yes"/>
	  <point x="325" y="-202"/>
	  <point x="360" y="-168"/>
	  <point x="360" y="-117" type="curve" smooth="yes"/>
	  <point x="360" y="-65"/>
	  <point x="333" y="-32"/>
	  <point x="276" y="3" type="curve"/>
	  <point x="261" y="0" type="line"/>
	</contour>
	<component base="T"/>
  </outline>
</glyph>
<glyph name="uni0163" format="1">
  <advance width="339"/>
  <unicode hex="0163"/>
  <outline>
	<contour>
	  <point x="258" y="-45"/>
	  <point x="280" y="-77"/>
	  <point x="280" y="-119" type="curve" smooth="yes"/>
	  <point x="280" y="-161"/>
	  <point x="252" y="-189"/>
	  <point x="209" y="-189" type="curve" smooth="yes"/>
	  <point x="169" y="-189"/>
	  <point x="146" y="-178"/>
	  <point x="121" y="-148" type="curve"/>
	  <point x="113" y="-160" type="line"/>
	  <point x="137" y="-190"/>
	  <point x="163" y="-202"/>
	  <point x="209" y="-202" type="curve" smooth="yes"/>
	  <point x="261" y="-202"/>
	  <point x="295" y="-168"/>
	  <point x="295" y="-118" type="curve" smooth="yes"/>
	  <point x="295" y="-71"/>
	  <point x="267" y="-36"/>
	  <point x="185" y="8" type="curve"/>
	  <point x="168" y="8" type="line"/>
	</contour>
	<component base="t"/>
  </outline>
</glyph>
<glyph name="uogonek" format="1">
  <advance width="568"/>
  <unicode hex="0173"/>
  <outline>
	<contour>
	  <point x="82" y="500" type="line"/>
	  <point x="82" y="167" type="line" smooth="yes"/>
	  <point x="82" y="54"/>
	  <point x="155" y="-10"/>
	  <point x="257" y="-10" type="curve" smooth="yes"/>
	  <point x="384" y="-10"/>
	  <point x="473" y="77"/>
	  <point x="473" y="183" type="curve"/>
	  <point x="466" y="199" type="line"/>
	  <point x="466" y="95"/>
	  <point x="379" y="4"/>
	  <point x="260" y="4" type="curve" smooth="yes"/>
	  <point x="165" y="4"/>
	  <point x="98" y="63"/>
	  <point x="98" y="169" type="curve" smooth="yes"/>
	  <point x="98" y="500" type="line"/>
	</contour>
	<contour>
	  <point x="360" y="-78"/>
	  <point x="394" y="-52"/>
	  <point x="482" y="0" type="curve"/>
	  <point x="470" y="9" type="line"/>
	  <point x="379" y="-44"/>
	  <point x="345" y="-75"/>
	  <point x="345" y="-128" type="curve" smooth="yes"/>
	  <point x="345" y="-176"/>
	  <point x="383" y="-202"/>
	  <point x="433" y="-202" type="curve" smooth="yes"/>
	  <point x="469" y="-202"/>
	  <point x="490" y="-191"/>
	  <point x="506" y="-178" type="curve"/>
	  <point x="498" y="-168" type="line"/>
	  <point x="484" y="-181"/>
	  <point x="467" y="-188"/>
	  <point x="433" y="-188" type="curve" smooth="yes"/>
	  <point x="391" y="-188"/>
	  <point x="360" y="-167"/>
	  <point x="360" y="-128" type="curve" smooth="yes"/>
	</contour>
	<contour>
	  <point x="466" y="500" type="line"/>
	  <point x="466" y="199" type="line"/>
	  <point x="466" y="155" type="line"/>
	  <point x="466" y="0" type="line"/>
	  <point x="482" y="0" type="line"/>
	  <point x="482" y="199" type="line"/>
	  <point x="482" y="500" type="line"/>
	</contour>
	<contour>
	  <point x="482" y="0" type="move" name="ogonek"/>
	</contour>
	<contour>
	  <point x="277" y="500" type="move" name="top"/>
	</contour>
  </outline>
</glyph>
<glyph name="caron" format="1">
  <advance width="550"/>
  <unicode hex="02C7"/>
  <outline>
	<contour>
	  <point x="350" y="725" type="line"/>
	  <point x="250" y="596" type="line"/>
	  <point x="150" y="725" type="line"/>
	  <point x="133" y="725" type="line"/>
	  <point x="241" y="583" type="line"/>
	  <point x="259" y="583" type="line"/>
	  <point x="367" y="725" type="line"/>
	</contour>
	<contour>
	  <point x="250" y="500" type="move" name="_top"/>
	</contour>
  </outline>
</glyph>
<glyph name="breve" format="1">
  <advance width="550"/>
  <unicode hex="02D8"/>
  <outline>
	<contour>
	  <point x="362" y="702" type="line"/>
	  <point x="362" y="637"/>
	  <point x="321" y="595"/>
	  <point x="255" y="595" type="curve" smooth="yes"/>
	  <point x="189" y="595"/>
	  <point x="148" y="637"/>
	  <point x="148" y="702" type="curve"/>
	  <point x="134" y="702" type="line"/>
	  <point x="134" y="626"/>
	  <point x="179" y="581"/>
	  <point x="255" y="581" type="curve" smooth="yes"/>
	  <point x="331" y="581"/>
	  <point x="376" y="626"/>
	  <point x="376" y="702" type="curve"/>
	</contour>
	<contour>
	  <point x="255" y="500" type="move" name="_top"/>
	</contour>
  </outline>
</glyph>
<glyph name="ring" format="1">
  <advance width="550"/>
  <unicode hex="02DA"/>
  <outline>
	<contour>
	  <point x="204" y="735"/>
	  <point x="169" y="700"/>
	  <point x="169" y="655" type="curve" smooth="yes"/>
	  <point x="169" y="610"/>
	  <point x="204" y="575"/>
	  <point x="251" y="575" type="curve" smooth="yes"/>
	  <point x="298" y="575"/>
	  <point x="333" y="610"/>
	  <point x="333" y="655" type="curve" smooth="yes"/>
	  <point x="333" y="700"/>
	  <point x="298" y="735"/>
	  <point x="251" y="735" type="curve" smooth="yes"/>
	</contour>
	<contour>
	  <point x="288" y="721"/>
	  <point x="317" y="692"/>
	  <point x="317" y="655" type="curve" smooth="yes"/>
	  <point x="317" y="618"/>
	  <point x="288" y="589"/>
	  <point x="251" y="589" type="curve" smooth="yes"/>
	  <point x="214" y="589"/>
	  <point x="185" y="618"/>
	  <point x="185" y="655" type="curve" smooth="yes"/>
	  <point x="185" y="692"/>
	  <point x="214" y="721"/>
	  <point x="251" y="721" type="curve" smooth="yes"/>
	</contour>
	<contour>
	  <point x="253" y="500" type="move" name="_top"/>
	</contour>
  </outline>
</glyph>
<glyph name="ogonek" format="1">
  <advance width="660"/>
  <unicode hex="02DB"/>
  <outline>
	<contour>
	  <point x="372" y="8" type="line"/>
	  <point x="272" y="-32"/>
	  <point x="239" y="-72"/>
	  <point x="239" y="-124" type="curve" smooth="yes"/>
	  <point x="239" y="-176"/>
	  <point x="279" y="-202"/>
	  <point x="327" y="-202" type="curve" smooth="yes"/>
	  <point x="368" y="-202"/>
	  <point x="388" y="-192"/>
	  <point x="404" y="-181" type="curve"/>
	  <point x="398" y="-168" type="line"/>
	  <point x="384" y="-179"/>
	  <point x="364" y="-188"/>
	  <point x="327" y="-188" type="curve" smooth="yes"/>
	  <point x="287" y="-188"/>
	  <point x="254" y="-167"/>
	  <point x="254" y="-124" type="curve" smooth="yes"/>
	  <point x="254" y="-75"/>
	  <point x="287" y="-38"/>
	  <point x="395" y="8" type="curve"/>
	</contour>
	<contour>
	  <point x="395" y="8" type="move" name="_ogonek"/>
	</contour>
  </outline>
</glyph>
<glyph name="tilde" format="1">
  <advance width="550"/>
  <unicode hex="02DC"/>
  <outline>
	<contour>
	  <point x="395" y="683" type="line"/>
	  <point x="385" y="638"/>
	  <point x="371" y="613"/>
	  <point x="325" y="613" type="curve" smooth="yes"/>
	  <point x="257" y="613"/>
	  <point x="257" y="682"/>
	  <point x="179" y="682" type="curve" smooth="yes"/>
	  <point x="129" y="682"/>
	  <point x="105" y="655"/>
	  <point x="94" y="598" type="curve"/>
	  <point x="109" y="598" type="line"/>
	  <point x="119" y="643"/>
	  <point x="132" y="668"/>
	  <point x="178" y="668" type="curve" smooth="yes"/>
	  <point x="247" y="668"/>
	  <point x="246" y="599"/>
	  <point x="325" y="599" type="curve" smooth="yes"/>
	  <point x="375" y="599"/>
	  <point x="399" y="626"/>
	  <point x="410" y="683" type="curve"/>
	</contour>
	<contour>
	  <point x="251" y="500" type="move" name="_top"/>
	</contour>
  </outline>
</glyph>
<glyph name="hungarumlaut" format="1">
  <advance width="500"/>
  <unicode hex="02DD"/>
  <outline>
	<contour>
	  <point x="356" y="730" type="line"/>
	  <point x="271" y="583" type="line"/>
	  <point x="286" y="583" type="line"/>
	  <point x="374" y="730" type="line"/>
	</contour>
	<contour>
	  <point x="225" y="730" type="line"/>
	  <point x="140" y="583" type="line"/>
	  <point x="155" y="583" type="line"/>
	  <point x="243" y="730" type="line"/>
	</contour>
	<contour>
	  <point x="223" y="500" type="move" name="_top"/>
	</contour>
  </outline>
</glyph>
<glyph name="pi" format="1">
  <advance width="678"/>
  <unicode hex="03C0"/>
  <outline>
	<contour>
	  <point x="668" y="500" type="line"/>
	  <point x="10" y="500" type="line"/>
	  <point x="10" y="486" type="line"/>
	  <point x="668" y="486" type="line"/>
	</contour>
	<contour>
	  <point x="176" y="494" type="line"/>
	  <point x="176" y="0" type="line"/>
	  <point x="192" y="0" type="line"/>
	  <point x="192" y="494" type="line"/>
	</contour>
	<contour>
	  <point x="485" y="494" type="line"/>
	  <point x="485" y="94" type="line" smooth="yes"/>
	  <point x="485" y="23"/>
	  <point x="542" y="0"/>
	  <point x="610" y="0" type="curve"/>
	  <point x="613" y="14" type="line"/>
	  <point x="553" y="14"/>
	  <point x="501" y="30"/>
	  <point x="501" y="94" type="curve" smooth="yes"/>
	  <point x="501" y="494" type="line"/>
	</contour>
  </outline>
</glyph>
<glyph name="U0951" format="1">
  <advance width="0"/>
  <unicode hex="0951"/>
  <outline>
	<contour>
	  <point x="-234" y="1061" type="line"/>
	  <point x="-234" y="1541" type="line"/>
	  <point x="-300" y="1541" type="line"/>
	  <point x="-300" y="1061" type="line"/>
	</contour>
  </outline>
</glyph>
<glyph name="U0964" format="1">
  <advance width="298"/>
  <unicode hex="0964"/>
  <outline>
	<contour>
	  <point x="235" y="-85" type="line"/>
	  <point x="235" y="608" type="line"/>
	  <point x="125" y="608" type="line"/>
	  <point x="125" y="-85" type="line"/>
	</contour>
  </outline>
</glyph>
<glyph name="U0C01" format="1">
  <advance width="384"/>
  <unicode hex="0C01"/>
  <outline>
	<contour>
	  <point x="301" y="-7"/>
	  <point x="322" y="-4"/>
	  <point x="342" y="4" type="curve"/>
	  <point x="342" y="98" type="line"/>
	  <point x="322" y="91"/>
	  <point x="305" y="87"/>
	  <point x="279" y="87" type="curve" smooth="yes"/>
	  <point x="192" y="87"/>
	  <point x="139" y="157"/>
	  <point x="139" y="252" type="curve" smooth="yes"/>
	  <point x="139" y="344"/>
	  <point x="190" y="412"/>
	  <point x="302" y="412" type="curve" smooth="yes"/>
	  <point x="322" y="412"/>
	  <point x="340" y="410"/>
	  <point x="356" y="406" type="curve"/>
	  <point x="356" y="497" type="line"/>
	  <point x="333" y="503"/>
	  <point x="318" y="505"/>
	  <point x="294" y="505" type="curve" smooth="yes"/>
	  <point x="140" y="505"/>
	  <point x="21" y="400"/>
	  <point x="21" y="242" type="curve" smooth="yes"/>
	  <point x="21" y="98"/>
	  <point x="122" y="-7"/>
	  <point x="276" y="-7" type="curve" smooth="yes"/>
	</contour>
  </outline>
</glyph>
<glyph name="U0C02" format="1">
  <advance width="594"/>
  <unicode hex="0C02"/>
  <outline>
	<contour>
	  <point x="428" y="35"/>
	  <point x="520" y="124"/>
	  <point x="520" y="253" type="curve" smooth="yes"/>
	  <point x="520" y="383"/>
	  <point x="428" y="472"/>
	  <point x="293" y="472" type="curve" smooth="yes"/>
	  <point x="158" y="472"/>
	  <point x="65" y="383"/>
	  <point x="65" y="253" type="curve" smooth="yes"/>
	  <point x="65" y="124"/>
	  <point x="158" y="35"/>
	  <point x="293" y="35" type="curve" smooth="yes"/>
	</contour>
	<contour>
	  <point x="218" y="136"/>
	  <point x="169" y="183"/>
	  <point x="169" y="253" type="curve" smooth="yes"/>
	  <point x="169" y="323"/>
	  <point x="218" y="371"/>
	  <point x="293" y="371" type="curve" smooth="yes"/>
	  <point x="367" y="371"/>
	  <point x="416" y="323"/>
	  <point x="416" y="253" type="curve" smooth="yes"/>
	  <point x="416" y="183"/>
	  <point x="367" y="136"/>
	  <point x="293" y="136" type="curve" smooth="yes"/>
	</contour>
  </outline>
</glyph>
<glyph name="U0C05" format="1">
  <advance width="689"/>
  <unicode hex="0C05"/>
  <outline>
	<contour>
	  <point x="498" y="-7"/>
	  <point x="661" y="118"/>
	  <point x="661" y="301" type="curve" smooth="yes"/>
	  <point x="661" y="444"/>
	  <point x="584" y="550"/>
	  <point x="459" y="550" type="curve" smooth="yes"/>
	  <point x="360" y="550"/>
	  <point x="277" y="487"/>
	  <point x="277" y="382" type="curve" smooth="yes"/>
	  <point x="277" y="350"/>
	  <point x="288" y="325"/>
	  <point x="307" y="307" type="curve"/>
	  <point x="454" y="337" type="line"/>
	  <point x="409" y="337"/>
	  <point x="386" y="346"/>
	  <point x="386" y="377" type="curve" smooth="yes"/>
	  <point x="386" y="416"/>
	  <point x="412" y="445"/>
	  <point x="455" y="445" type="curve" smooth="yes"/>
	  <point x="514" y="445"/>
	  <point x="553" y="379"/>
	  <point x="553" y="304" type="curve" smooth="yes"/>
	  <point x="553" y="182"/>
	  <point x="461" y="97"/>
	  <point x="343" y="97" type="curve" smooth="yes"/>
	  <point x="185" y="97"/>
	  <point x="137" y="168"/>
	  <point x="137" y="291" type="curve" smooth="yes"/>
	  <point x="137" y="337"/>
	  <point x="155" y="459"/>
	  <point x="256" y="445" type="curve"/>
	  <point x="256" y="549" type="line"/>
	  <point x="125" y="549"/>
	  <point x="21" y="433"/>
	  <point x="21" y="291" type="curve" smooth="yes"/>
	  <point x="21" y="104"/>
	  <point x="137" y="-7"/>
	  <point x="339" y="-7" type="curve" smooth="yes"/>
	</contour>
	<contour>
	  <point x="454" y="244" type="line"/>
	  <point x="454" y="337" type="line"/>
	  <point x="169" y="337" type="line"/>
	  <point x="169" y="244" type="line"/>
	</contour>
  </outline>
</glyph>
<glyph name="U0C07" format="1">
  <advance width="693"/>
  <unicode hex="0C07"/>
  <outline>
	<contour>
	  <point x="665" y="-49" type="line"/>
	  <point x="564" y="249"/>
	  <point x="358" y="308"/>
	  <point x="251" y="308" type="curve" smooth="yes"/>
	  <point x="167" y="308"/>
	  <point x="34" y="279"/>
	  <point x="34" y="153" type="curve" smooth="yes"/>
	  <point x="34" y="62"/>
	  <point x="131" y="-7"/>
	  <point x="266" y="-7" type="curve" smooth="yes"/>
	  <point x="435" y="-7"/>
	  <point x="603" y="161"/>
	  <point x="603" y="347" type="curve" smooth="yes"/>
	  <point x="603" y="461"/>
	  <point x="540" y="560"/>
	  <point x="435" y="560" type="curve" smooth="yes"/>
	  <point x="384" y="560"/>
	  <point x="328" y="542"/>
	  <point x="315" y="494" type="curve"/>
	  <point x="279" y="535"/>
	  <point x="246" y="545"/>
	  <point x="202" y="545" type="curve" smooth="yes"/>
	  <point x="84" y="545"/>
	  <point x="21" y="466"/>
	  <point x="21" y="337" type="curve"/>
	  <point x="162" y="337" type="line"/>
	  <point x="153" y="353"/>
	  <point x="147" y="372"/>
	  <point x="147" y="389" type="curve" smooth="yes"/>
	  <point x="147" y="419"/>
	  <point x="161" y="442"/>
	  <point x="195" y="442" type="curve" smooth="yes"/>
	  <point x="216" y="442"/>
	  <point x="265" y="426"/>
	  <point x="265" y="344" type="curve"/>
	  <point x="388" y="344" type="line"/>
	  <point x="378" y="364"/>
	  <point x="372" y="384"/>
	  <point x="372" y="402" type="curve" smooth="yes"/>
	  <point x="372" y="431"/>
	  <point x="392" y="455"/>
	  <point x="431" y="455" type="curve" smooth="yes"/>
	  <point x="470" y="455"/>
	  <point x="503" y="430"/>
	  <point x="503" y="328" type="curve" smooth="yes"/>
	  <point x="503" y="213"/>
	  <point x="393" y="97"/>
	  <point x="266" y="97" type="curve" smooth="yes"/>
	  <point x="186" y="97"/>
	  <point x="144" y="118"/>
	  <point x="144" y="150" type="curve" smooth="yes"/>
	  <point x="144" y="192"/>
	  <point x="189" y="210"/>
	  <point x="253" y="210" type="curve" smooth="yes"/>
	  <point x="371" y="210"/>
	  <point x="472" y="126"/>
	  <point x="531" y="-49" type="curve"/>
	</contour>
  </outline>
</glyph>
<glyph name="U0C0A" format="1">
  <advance width="1085"/>
  <unicode hex="0C0A"/>
  <outline>
	<contour>
	  <point x="343" y="-8"/>
	  <point x="385" y="24"/>
	  <point x="405" y="70" type="curve"/>
	  <point x="423" y="27"/>
	  <point x="462" y="-7"/>
	  <point x="519" y="-7" type="curve" smooth="yes"/>
	  <point x="623" y="-7"/>
	  <point x="704" y="56"/>
	  <point x="704" y="162" type="curve" smooth="yes"/>
	  <point x="704" y="190"/>
	  <point x="703" y="203"/>
	  <point x="697" y="220" type="curve"/>
	  <point x="587" y="220" type="line"/>
	  <point x="591" y="211"/>
	  <point x="592" y="202"/>
	  <point x="592" y="178" type="curve" smooth="yes"/>
	  <point x="592" y="134"/>
	  <point x="570" y="102"/>
	  <point x="524" y="102" type="curve" smooth="yes"/>
	  <point x="483" y="102"/>
	  <point x="458" y="127"/>
	  <point x="458" y="168" type="curve" smooth="yes"/>
	  <point x="458" y="206" type="line"/>
	  <point x="361" y="206" type="line"/>
	  <point x="361" y="169" type="line" smooth="yes"/>
	  <point x="361" y="129"/>
	  <point x="340" y="102"/>
	  <point x="297" y="102" type="curve" smooth="yes"/>
	  <point x="253" y="102"/>
	  <point x="220" y="129"/>
	  <point x="220" y="227" type="curve" smooth="yes"/>
	  <point x="220" y="353"/>
	  <point x="281" y="455"/>
	  <point x="426" y="455" type="curve" smooth="yes"/>
	  <point x="491" y="455"/>
	  <point x="525" y="437"/>
	  <point x="545" y="402" type="curve"/>
	  <point x="648" y="402" type="line"/>
	  <point x="619" y="514"/>
	  <point x="521" y="547"/>
	  <point x="406" y="547" type="curve" smooth="yes"/>
	  <point x="217" y="547"/>
	  <point x="98" y="410"/>
	  <point x="98" y="228" type="curve" smooth="yes"/>
	  <point x="98" y="83"/>
	  <point x="167" y="-8"/>
	  <point x="279" y="-8" type="curve" smooth="yes"/>
	</contour>
	<contour>
	  <point x="174" y="251" type="line"/>
	  <point x="174" y="347" type="line"/>
	  <point x="21" y="347" type="line"/>
	  <point x="21" y="251" type="line"/>
	</contour>
	<contour>
	  <point x="349" y="477" type="line"/>
	  <point x="349" y="687" type="line"/>
	  <point x="249" y="687" type="line"/>
	  <point x="249" y="477" type="line"/>
	</contour>
	<contour>
	  <point x="497" y="504" type="line"/>
	  <point x="497" y="686" type="line"/>
	  <point x="396" y="686" type="line"/>
	  <point x="396" y="504" type="line"/>
	</contour>
	<component base="U0C08.part" xOffset="46" yOffset="32"/>
  </outline>
</glyph>
<glyph name="U0C0C" format="1">
  <advance width="792"/>
  <unicode hex="0C0C"/>
  <outline>
	<contour>
	  <point x="683" y="-8"/>
	  <point x="764" y="112"/>
	  <point x="764" y="304" type="curve"/>
	  <point x="647" y="304" type="line"/>
	  <point x="647" y="269" type="line" smooth="yes"/>
	  <point x="647" y="148"/>
	  <point x="588" y="97"/>
	  <point x="510" y="97" type="curve" smooth="yes"/>
	  <point x="436" y="97"/>
	  <point x="412" y="141"/>
	  <point x="412" y="182" type="curve" smooth="yes"/>
	  <point x="412" y="231"/>
	  <point x="435" y="263"/>
	  <point x="519" y="304" type="curve" smooth="yes"/>
	  <point x="580" y="332"/>
	  <point x="623" y="377"/>
	  <point x="623" y="461" type="curve" smooth="yes"/>
	  <point x="623" y="566"/>
	  <point x="533" y="622"/>
	  <point x="449" y="622" type="curve" smooth="yes"/>
	  <point x="391" y="622"/>
	  <point x="336" y="598"/>
	  <point x="321" y="545" type="curve"/>
	  <point x="295" y="598"/>
	  <point x="249" y="620"/>
	  <point x="197" y="620" type="curve" smooth="yes"/>
	  <point x="84" y="620"/>
	  <point x="21" y="528"/>
	  <point x="21" y="437" type="curve" smooth="yes"/>
	  <point x="21" y="322"/>
	  <point x="84" y="276"/>
	  <point x="216" y="276" type="curve"/>
	  <point x="216" y="386" type="line"/>
	  <point x="207" y="382"/>
	  <point x="195" y="381"/>
	  <point x="176" y="381" type="curve" smooth="yes"/>
	  <point x="143" y="381"/>
	  <point x="126" y="400"/>
	  <point x="126" y="440" type="curve" smooth="yes"/>
	  <point x="126" y="483"/>
	  <point x="153" y="515"/>
	  <point x="193" y="515" type="curve" smooth="yes"/>
	  <point x="232" y="515"/>
	  <point x="258" y="484"/>
	  <point x="258" y="437" type="curve" smooth="yes"/>
	  <point x="258" y="407" type="line"/>
	  <point x="364" y="407" type="line"/>
	  <point x="364" y="430" type="line" smooth="yes"/>
	  <point x="364" y="493"/>
	  <point x="407" y="517"/>
	  <point x="448" y="517" type="curve" smooth="yes"/>
	  <point x="475" y="517"/>
	  <point x="510" y="491"/>
	  <point x="510" y="452" type="curve" smooth="yes"/>
	  <point x="510" y="419"/>
	  <point x="494" y="402"/>
	  <point x="437" y="374" type="curve" smooth="yes"/>
	  <point x="360" y="336"/>
	  <point x="304" y="286"/>
	  <point x="304" y="188" type="curve" smooth="yes"/>
	  <point x="304" y="94"/>
	  <point x="360" y="-8"/>
	  <point x="512" y="-8" type="curve" smooth="yes"/>
	</contour>
  </outline>
</glyph>
<glyph name="U0C12" format="1">
  <advance width="654"/>
  <unicode hex="0C12"/>
  <outline>
	<contour>
	  <point x="626" y="168" type="line"/>
	  <point x="626" y="281"/>
	  <point x="559" y="333"/>
	  <point x="462" y="333" type="curve" smooth="yes"/>
	  <point x="433" y="333" type="line"/>
	  <point x="433" y="225" type="line"/>
	  <point x="442" y="228"/>
	  <point x="447" y="230"/>
	  <point x="458" y="230" type="curve" smooth="yes"/>
	  <point x="497" y="230"/>
	  <point x="524" y="207"/>
	  <point x="524" y="168" type="curve"/>
	  <point x="571" y="153" type="line"/>
	</contour>
	<component base="U0C12.part"/>
  </outline>
</glyph>
<glyph name="U0C13" format="1">
  <advance width="654"/>
  <unicode hex="0C13"/>
  <outline>
	<contour>
	  <point x="224" y="517" type="line"/>
	  <point x="207" y="528"/>
	  <point x="203" y="538"/>
	  <point x="203" y="561" type="curve" smooth="yes"/>
	  <point x="203" y="599"/>
	  <point x="227" y="620"/>
	  <point x="269" y="620" type="curve" smooth="yes"/>
	  <point x="309" y="620"/>
	  <point x="333" y="598"/>
	  <point x="333" y="519" type="curve"/>
	  <point x="456" y="519" type="line"/>
	  <point x="454" y="675"/>
	  <point x="374" y="721"/>
	  <point x="262" y="721" type="curve" smooth="yes"/>
	  <point x="168" y="721"/>
	  <point x="91" y="668"/>
	  <point x="91" y="577" type="curve" smooth="yes"/>
	  <point x="91" y="546"/>
	  <point x="104" y="508"/>
	  <point x="119" y="491" type="curve"/>
	</contour>
	<component base="U0C12"/>
  </outline>
</glyph>
<glyph name="U0C14" format="1">
  <advance width="743"/>
  <unicode hex="0C14"/>
  <outline>
	<contour>
	  <point x="648" y="347"/>
	  <point x="713" y="403"/>
	  <point x="713" y="529" type="curve" smooth="yes"/>
	  <point x="713" y="678"/>
	  <point x="609" y="718"/>
	  <point x="466" y="718" type="curve" smooth="yes"/>
	  <point x="32" y="718" type="line"/>
	  <point x="32" y="628" type="line"/>
	  <point x="489" y="627" type="line" smooth="yes"/>
	  <point x="545" y="627"/>
	  <point x="577" y="624"/>
	  <point x="599" y="591" type="curve"/>
	  <point x="596" y="591" type="line"/>
	  <point x="591" y="598"/>
	  <point x="571" y="605"/>
	  <point x="556" y="605" type="curve" smooth="yes"/>
	  <point x="476" y="605"/>
	  <point x="426" y="542"/>
	  <point x="426" y="477" type="curve" smooth="yes"/>
	  <point x="426" y="396"/>
	  <point x="480" y="347"/>
	  <point x="556" y="347" type="curve" smooth="yes"/>
	</contour>
	<contour>
	  <point x="213" y="493" type="line" smooth="yes"/>
	  <point x="294" y="493"/>
	  <point x="318" y="542"/>
	  <point x="318" y="574" type="curve" smooth="yes"/>
	  <point x="318" y="616"/>
	  <point x="304" y="624"/>
	  <point x="283" y="640" type="curve"/>
	  <point x="168" y="640" type="line"/>
	  <point x="192" y="636"/>
	  <point x="237" y="622"/>
	  <point x="237" y="595" type="curve" smooth="yes"/>
	  <point x="237" y="566"/>
	  <point x="213" y="553"/>
	  <point x="182" y="553" type="curve" smooth="yes"/>
	  <point x="73" y="553" type="line"/>
	  <point x="73" y="528"/>
	  <point x="71" y="505"/>
	  <point x="88" y="493" type="curve"/>
	</contour>
	<contour>
	  <point x="542" y="441"/>
	  <point x="524" y="459"/>
	  <point x="524" y="479" type="curve" smooth="yes"/>
	  <point x="524" y="500"/>
	  <point x="542" y="517"/>
	  <point x="561" y="517" type="curve" smooth="yes"/>
	  <point x="585" y="517"/>
	  <point x="599" y="501"/>
	  <point x="599" y="479" type="curve" smooth="yes"/>
	  <point x="599" y="459"/>
	  <point x="582" y="441"/>
	  <point x="561" y="441" type="curve" smooth="yes"/>
	</contour>
	<component base="U0C12"/>
  </outline>
</glyph>
<glyph name="U0C19" format="1">
  <advance width="654"/>
  <unicode hex="0C19"/>
  <outline>
	<contour>
	  <point x="571" y="372" type="line"/>
	  <point x="571" y="475" type="line"/>
	  <point x="496" y="475" type="line"/>
	  <point x="496" y="553" type="line"/>
	  <point x="391" y="553" type="line"/>
	  <point x="391" y="475" type="line"/>
	  <point x="284" y="475" type="line"/>
	  <point x="284" y="372" type="line"/>
	</contour>
	<component base="U0C12"/>
  </outline>
</glyph>
<glyph name="U0C1F" format="1">
  <advance width="729"/>
  <unicode hex="0C1F"/>
  <outline>
	<contour>
	  <point x="308" y="-7"/>
	  <point x="379" y="59"/>
	  <point x="379" y="195" type="curve"/>
	  <point x="304" y="195" type="line"/>
	  <point x="304" y="126"/>
	  <point x="273" y="90"/>
	  <point x="230" y="90" type="curve" smooth="yes"/>
	  <point x="157" y="90"/>
	  <point x="129" y="165"/>
	  <point x="129" y="225" type="curve" smooth="yes"/>
	  <point x="129" y="245"/>
	  <point x="130" y="262"/>
	  <point x="136" y="274" type="curve"/>
	  <point x="153" y="248"/>
	  <point x="179" y="234"/>
	  <point x="209" y="234" type="curve" smooth="yes"/>
	  <point x="311" y="234"/>
	  <point x="370" y="286"/>
	  <point x="370" y="382" type="curve" smooth="yes"/>
	  <point x="370" y="487"/>
	  <point x="311" y="538"/>
	  <point x="225" y="538" type="curve" smooth="yes"/>
	  <point x="90" y="538"/>
	  <point x="21" y="391"/>
	  <point x="21" y="232" type="curve" smooth="yes"/>
	  <point x="21" y="108"/>
	  <point x="91" y="-7"/>
	  <point x="227" y="-7" type="curve" smooth="yes"/>
	</contour>
	<contour>
	  <point x="195" y="330"/>
	  <point x="171" y="354"/>
	  <point x="171" y="382" type="curve" smooth="yes"/>
	  <point x="171" y="409"/>
	  <point x="195" y="433"/>
	  <point x="223" y="433" type="curve" smooth="yes"/>
	  <point x="249" y="433"/>
	  <point x="273" y="409"/>
	  <point x="273" y="382" type="curve" smooth="yes"/>
	  <point x="273" y="354"/>
	  <point x="249" y="330"/>
	  <point x="223" y="330" type="curve" smooth="yes"/>
	</contour>
	<contour>
	  <point x="594" y="-7"/>
	  <point x="701" y="76"/>
	  <point x="701" y="273" type="curve" smooth="yes"/>
	  <point x="701" y="417"/>
	  <point x="617" y="528"/>
	  <point x="472" y="528" type="curve" smooth="yes"/>
	  <point x="461" y="528"/>
	  <point x="447" y="526"/>
	  <point x="434" y="525" type="curve"/>
	  <point x="434" y="427" type="line"/>
	  <point x="442" y="428"/>
	  <point x="451" y="430"/>
	  <point x="458" y="430" type="curve" smooth="yes"/>
	  <point x="529" y="430"/>
	  <point x="595" y="374"/>
	  <point x="595" y="265" type="curve" smooth="yes"/>
	  <point x="595" y="140"/>
	  <point x="536" y="90"/>
	  <point x="498" y="90" type="curve" smooth="yes"/>
	  <point x="448" y="90"/>
	  <point x="421" y="129"/>
	  <point x="421" y="195" type="curve"/>
	  <point x="337" y="195" type="line"/>
	  <point x="337" y="59"/>
	  <point x="398" y="-7"/>
	  <point x="484" y="-7" type="curve" smooth="yes"/>
	</contour>
	<contour>
	  <point x="280" y="486" type="line"/>
	  <point x="280" y="686" type="line"/>
	  <point x="164" y="686" type="line"/>
	  <point x="164" y="486" type="line"/>
	</contour>
  </outline>
</glyph>
<glyph name="U0C24" format="1">
  <advance width="721"/>
  <unicode hex="0C24"/>
  <outline>
	<contour>
	  <point x="542" y="-7"/>
	  <point x="692" y="92"/>
	  <point x="692" y="256" type="curve" smooth="yes"/>
	  <point x="692" y="358"/>
	  <point x="601" y="396"/>
	  <point x="522" y="396" type="curve" smooth="yes"/>
	  <point x="421" y="396"/>
	  <point x="363" y="349"/>
	  <point x="363" y="273" type="curve" smooth="yes"/>
	  <point x="363" y="210"/>
	  <point x="413" y="162"/>
	  <point x="491" y="162" type="curve" smooth="yes"/>
	  <point x="526" y="162"/>
	  <point x="561" y="172"/>
	  <point x="585" y="216" type="curve"/>
	  <point x="587" y="214" type="line"/>
	  <point x="561" y="133"/>
	  <point x="468" y="85"/>
	  <point x="357" y="85" type="curve" smooth="yes"/>
	  <point x="217" y="85"/>
	  <point x="160" y="143"/>
	  <point x="146" y="176" type="curve"/>
	  <point x="147" y="178" type="line"/>
	  <point x="165" y="167"/>
	  <point x="179" y="161"/>
	  <point x="203" y="161" type="curve" smooth="yes"/>
	  <point x="255" y="161"/>
	  <point x="307" y="210"/>
	  <point x="307" y="276" type="curve" smooth="yes"/>
	  <point x="307" y="333"/>
	  <point x="263" y="391"/>
	  <point x="178" y="391" type="curve" smooth="yes"/>
	  <point x="99" y="391"/>
	  <point x="22" y="340"/>
	  <point x="22" y="238" type="curve" smooth="yes"/>
	  <point x="22" y="92"/>
	  <point x="172" y="-7"/>
	  <point x="357" y="-7" type="curve" smooth="yes"/>
	</contour>
	<contour>
	  <point x="141" y="228"/>
	  <point x="123" y="244"/>
	  <point x="123" y="267" type="curve" smooth="yes"/>
	  <point x="123" y="291"/>
	  <point x="141" y="307"/>
	  <point x="169" y="307" type="curve" smooth="yes"/>
	  <point x="196" y="307"/>
	  <point x="214" y="291"/>
	  <point x="214" y="267" type="curve" smooth="yes"/>
	  <point x="214" y="244"/>
	  <point x="196" y="228"/>
	  <point x="169" y="228" type="curve" smooth="yes"/>
	</contour>
	<contour>
	  <point x="482" y="253"/>
	  <point x="465" y="269"/>
	  <point x="465" y="294" type="curve" smooth="yes"/>
	  <point x="465" y="319"/>
	  <point x="482" y="335"/>
	  <point x="507" y="335" type="curve" smooth="yes"/>
	  <point x="533" y="335"/>
	  <point x="552" y="319"/>
	  <point x="552" y="294" type="curve" smooth="yes"/>
	  <point x="552" y="269"/>
	  <point x="533" y="253"/>
	  <point x="507" y="253" type="curve" smooth="yes"/>
	</contour>
	<contour>
	  <point x="633" y="454"/>
	  <point x="504" y="514"/>
	  <point x="421" y="514" type="curve"/>
	  <point x="293" y="414" type="line"/>
	  <point x="456" y="414"/>
	  <point x="538" y="398"/>
	  <point x="538" y="363" type="curve"/>
	  <point x="633" y="358" type="line"/>
	</contour>
	<component base="U0C24.topmark"/>
  </outline>
</glyph>
<glyph name="U0C28" format="1">
  <advance width="672"/>
  <unicode hex="0C28"/>
  <outline>
	<contour>
	  <point x="541" y="-10"/>
	  <point x="644" y="92"/>
	  <point x="644" y="255" type="curve" smooth="yes"/>
	  <point x="644" y="379"/>
	  <point x="554" y="496"/>
	  <point x="408" y="496" type="curve" smooth="yes"/>
	  <point x="366" y="496"/>
	  <point x="340" y="487"/>
	  <point x="284" y="487" type="curve"/>
	  <point x="193" y="392" type="line"/>
	  <point x="305" y="392"/>
	  <point x="337" y="400"/>
	  <point x="393" y="400" type="curve" smooth="yes"/>
	  <point x="474" y="400"/>
	  <point x="533" y="346"/>
	  <point x="533" y="244" type="curve" smooth="yes"/>
	  <point x="533" y="157"/>
	  <point x="480" y="92"/>
	  <point x="422" y="92" type="curve" smooth="yes"/>
	  <point x="382" y="92"/>
	  <point x="354" y="113"/>
	  <point x="354" y="164" type="curve" smooth="yes"/>
	  <point x="354" y="181"/>
	  <point x="359" y="207"/>
	  <point x="359" y="230" type="curve" smooth="yes"/>
	  <point x="359" y="295"/>
	  <point x="313" y="347"/>
	  <point x="219" y="347" type="curve" smooth="yes"/>
	  <point x="104" y="347"/>
	  <point x="30" y="255"/>
	  <point x="30" y="160" type="curve" smooth="yes"/>
	  <point x="30" y="87"/>
	  <point x="67" y="31"/>
	  <point x="105" y="1" type="curve"/>
	  <point x="246" y="1" type="line"/>
	  <point x="177" y="57"/>
	  <point x="144" y="113"/>
	  <point x="144" y="168" type="curve" smooth="yes"/>
	  <point x="144" y="214"/>
	  <point x="168" y="251"/>
	  <point x="215" y="251" type="curve" smooth="yes"/>
	  <point x="232" y="251"/>
	  <point x="256" y="245"/>
	  <point x="256" y="204" type="curve" smooth="yes"/>
	  <point x="256" y="186"/>
	  <point x="249" y="165"/>
	  <point x="249" y="143" type="curve" smooth="yes"/>
	  <point x="249" y="53"/>
	  <point x="318" y="-10"/>
	  <point x="420" y="-10" type="curve" smooth="yes"/>
	</contour>
	<component base="U0C24.topmark" xOffset="-100" yOffset="-22"/>
  </outline>
</glyph>
<glyph name="U0C2C" format="1">
  <advance width="685"/>
  <unicode hex="0C2C"/>
  <outline>
	<contour>
	  <point x="657" y="409"/>
	  <point x="550" y="504"/>
	  <point x="442" y="504" type="curve" smooth="yes"/>
	  <point x="399" y="504" type="line"/>
	  <point x="399" y="393" type="line"/>
	  <point x="410" y="399"/>
	  <point x="420" y="402"/>
	  <point x="437" y="402" type="curve" smooth="yes"/>
	  <point x="490" y="402"/>
	  <point x="557" y="360"/>
	  <point x="557" y="248" type="curve"/>
	  <point x="657" y="239" type="line"/>
	</contour>
	<component base="U0C2D.part"/>
  </outline>
</glyph>
<glyph name="U0C30" format="1">
  <advance width="598"/>
  <unicode hex="0C30"/>
  <outline>
	<contour>
	  <point x="290" y="413"/>
	  <point x="342" y="442"/>
	  <point x="384" y="493" type="curve" smooth="yes"/>
	  <point x="426" y="543"/>
	  <point x="461" y="552"/>
	  <point x="498" y="552" type="curve" smooth="yes"/>
	  <point x="515" y="552"/>
	  <point x="533" y="545"/>
	  <point x="545" y="535" type="curve"/>
	  <point x="545" y="641" type="line"/>
	  <point x="529" y="650"/>
	  <point x="507" y="657"/>
	  <point x="483" y="657" type="curve" smooth="yes"/>
	  <point x="420" y="657"/>
	  <point x="391" y="643"/>
	  <point x="337" y="570" type="curve" smooth="yes"/>
	  <point x="301" y="519"/>
	  <point x="280" y="512"/>
	  <point x="241" y="512" type="curve" smooth="yes"/>
	  <point x="195" y="512"/>
	  <point x="171" y="533"/>
	  <point x="171" y="566" type="curve"/>
	  <point x="50" y="566" type="line"/>
	  <point x="50" y="550" type="line" smooth="yes"/>
	  <point x="50" y="486"/>
	  <point x="90" y="413"/>
	  <point x="214" y="413" type="curve" smooth="yes"/>
	</contour>
	<component base="U0C30.base" xOffset="3"/>
  </outline>
</glyph>
<glyph name="U0C32" format="1">
  <advance width="659"/>
  <unicode hex="0C32"/>
  <outline>
	<contour>
	  <point x="486" y="-7"/>
	  <point x="631" y="94"/>
	  <point x="631" y="274" type="curve" smooth="yes"/>
	  <point x="631" y="393"/>
	  <point x="561" y="500"/>
	  <point x="427" y="503" type="curve" smooth="yes"/>
	  <point x="419" y="503"/>
	  <point x="402" y="501"/>
	  <point x="402" y="501" type="curve"/>
	  <point x="402" y="407" type="line"/>
	  <point x="494" y="407"/>
	  <point x="531" y="350"/>
	  <point x="531" y="269" type="curve" smooth="yes"/>
	  <point x="531" y="154"/>
	  <point x="437" y="97"/>
	  <point x="325" y="97" type="curve" smooth="yes"/>
	  <point x="216" y="97"/>
	  <point x="129" y="154"/>
	  <point x="129" y="267" type="curve"/>
	  <point x="140" y="245"/>
	  <point x="176" y="232"/>
	  <point x="206" y="232" type="curve" smooth="yes"/>
	  <point x="286" y="232"/>
	  <point x="343" y="287"/>
	  <point x="343" y="368" type="curve" smooth="yes"/>
	  <point x="343" y="449"/>
	  <point x="297" y="507"/>
	  <point x="210" y="507" type="curve" smooth="yes"/>
	  <point x="83" y="507"/>
	  <point x="21" y="409"/>
	  <point x="21" y="276" type="curve" smooth="yes"/>
	  <point x="21" y="96"/>
	  <point x="141" y="-7"/>
	  <point x="316" y="-7" type="curve" smooth="yes"/>
	</contour>
	<contour>
	  <point x="169" y="326"/>
	  <point x="151" y="344"/>
	  <point x="151" y="372" type="curve" smooth="yes"/>
	  <point x="151" y="400"/>
	  <point x="169" y="419"/>
	  <point x="197" y="419" type="curve" smooth="yes"/>
	  <point x="225" y="419"/>
	  <point x="244" y="400"/>
	  <point x="244" y="372" type="curve" smooth="yes"/>
	  <point x="244" y="344"/>
	  <point x="225" y="326"/>
	  <point x="197" y="326" type="curve" smooth="yes"/>
	</contour>
  </outline>
</glyph>
<glyph name="U0C3E" format="1">
  <advance width="783"/>
  <unicode hex="0C3E"/>
  <outline>
	<contour>
	  <point x="241" y="433" type="line"/>
	  <point x="241" y="543" type="line"/>
	  <point x="-284" y="543" type="line"/>
	  <point x="-284" y="433" type="line"/>
	</contour>
	<component base="U0C3E.mark"/>
  </outline>
</glyph>
<glyph name="U0C42" format="1">
  <advance width="728"/>
  <unicode hex="0C42"/>
  <outline>
	<contour>
	  <point x="116" y="487" type="line"/>
	  <point x="116" y="529" type="line"/>
	  <point x="25" y="529" type="line"/>
	  <point x="25" y="487" type="line"/>
	</contour>
	<component base="U0C41"/>
	<component base="U0C3E.mark" xOffset="-53" yOffset="-14"/>
  </outline>
</glyph>
<glyph name="U0C4A" format="1">
  <advance width="774"/>
  <unicode hex="0C4A"/>
  <outline>
	<contour>
	  <point x="688" y="186"/>
	  <point x="745" y="288"/>
	  <point x="745" y="433" type="curve" smooth="yes"/>
	  <point x="745" y="577"/>
	  <point x="655" y="700"/>
	  <point x="519" y="700" type="curve" smooth="yes"/>
	  <point x="458" y="700"/>
	  <point x="399" y="672"/>
	  <point x="365" y="617" type="curve"/>
	  <point x="328" y="711"/>
	  <point x="210" y="743"/>
	  <point x="99" y="743" type="curve" smooth="yes"/>
	  <point x="-32" y="743"/>
	  <point x="-176" y="689"/>
	  <point x="-176" y="584" type="curve" smooth="yes"/>
	  <point x="-176" y="496"/>
	  <point x="-85" y="431"/>
	  <point x="6" y="431" type="curve" smooth="yes"/>
	  <point x="13" y="431"/>
	  <point x="15" y="431"/>
	  <point x="24" y="433" type="curve"/>
	  <point x="24" y="529" type="line"/>
	  <point x="-43" y="529"/>
	  <point x="-60" y="552"/>
	  <point x="-60" y="582" type="curve" smooth="yes"/>
	  <point x="-60" y="629"/>
	  <point x="6" y="648"/>
	  <point x="76" y="648" type="curve" smooth="yes"/>
	  <point x="218" y="648"/>
	  <point x="294" y="587"/>
	  <point x="294" y="491" type="curve"/>
	  <point x="412" y="491" type="line"/>
	  <point x="412" y="548"/>
	  <point x="464" y="589"/>
	  <point x="522" y="589" type="curve" smooth="yes"/>
	  <point x="585" y="589"/>
	  <point x="636" y="532"/>
	  <point x="636" y="470" type="curve"/>
	  <point x="616" y="490"/>
	  <point x="594" y="501"/>
	  <point x="556" y="501" type="curve" smooth="yes"/>
	  <point x="462" y="501"/>
	  <point x="384" y="442"/>
	  <point x="384" y="349" type="curve" smooth="yes"/>
	  <point x="384" y="259"/>
	  <point x="451" y="186"/>
	  <point x="550" y="186" type="curve" smooth="yes"/>
	</contour>
	<contour>
	  <point x="532" y="293"/>
	  <point x="507" y="318"/>
	  <point x="507" y="350" type="curve" smooth="yes"/>
	  <point x="507" y="382"/>
	  <point x="532" y="407"/>
	  <point x="564" y="407" type="curve" smooth="yes"/>
	  <point x="596" y="407"/>
	  <point x="622" y="382"/>
	  <point x="622" y="350" type="curve" smooth="yes"/>
	  <point x="622" y="318"/>
	  <point x="596" y="293"/>
	  <point x="564" y="293" type="curve" smooth="yes"/>
	</contour>
  </outline>
</glyph>
<glyph name="U0C4C" format="1">
  <advance width="787"/>
  <unicode hex="0C4C"/>
  <outline>
	<contour>
	  <point x="675" y="224"/>
	  <point x="756" y="307"/>
	  <point x="756" y="458" type="curve" smooth="yes"/>
	  <point x="756" y="634"/>
	  <point x="657" y="734"/>
	  <point x="486" y="734" type="curve" smooth="yes"/>
	  <point x="-238" y="734" type="line"/>
	  <point x="-238" y="626" type="line"/>
	  <point x="497" y="626" type="line" smooth="yes"/>
	  <point x="591" y="626"/>
	  <point x="640" y="566"/>
	  <point x="652" y="490" type="curve"/>
	  <point x="650" y="490" type="line"/>
	  <point x="640" y="504"/>
	  <point x="606" y="531"/>
	  <point x="559" y="531" type="curve" smooth="yes"/>
	  <point x="463" y="531"/>
	  <point x="386" y="479"/>
	  <point x="386" y="386" type="curve" smooth="yes"/>
	  <point x="386" y="290"/>
	  <point x="467" y="224"/>
	  <point x="564" y="224" type="curve" smooth="yes"/>
	</contour>
	<contour>
	  <point x="127" y="434" type="line" smooth="yes"/>
	  <point x="223" y="434"/>
	  <point x="252" y="517"/>
	  <point x="252" y="556" type="curve" smooth="yes"/>
	  <point x="252" y="605"/>
	  <point x="235" y="622"/>
	  <point x="210" y="640" type="curve"/>
	  <point x="73" y="640" type="line"/>
	  <point x="102" y="636"/>
	  <point x="137" y="610"/>
	  <point x="137" y="578" type="curve" smooth="yes"/>
	  <point x="137" y="543"/>
	  <point x="126" y="529"/>
	  <point x="90" y="529" type="curve" smooth="yes"/>
	  <point x="-174" y="529" type="line"/>
	  <point x="-174" y="434" type="line"/>
	</contour>
	<contour>
	  <point x="531" y="335"/>
	  <point x="505" y="360"/>
	  <point x="505" y="392" type="curve" smooth="yes"/>
	  <point x="505" y="424"/>
	  <point x="531" y="449"/>
	  <point x="563" y="449" type="curve" smooth="yes"/>
	  <point x="598" y="449"/>
	  <point x="620" y="426"/>
	  <point x="620" y="392" type="curve" smooth="yes"/>
	  <point x="620" y="360"/>
	  <point x="595" y="335"/>
	  <point x="563" y="335" type="curve" smooth="yes"/>
	</contour>
  </outline>
</glyph>
<glyph name="U0C61" format="1">
  <advance width="1193"/>
  <unicode hex="0C61"/>
  <outline>
	<contour>
	  <point x="672" y="-8"/>
	  <point x="764" y="118"/>
	  <point x="764" y="280" type="curve" smooth="yes"/>
	  <point x="764" y="428" type="line"/>
	  <point x="651" y="428" type="line"/>
	  <point x="651" y="242" type="line" smooth="yes"/>
	  <point x="651" y="167"/>
	  <point x="592" y="97"/>
	  <point x="515" y="97" type="curve" smooth="yes"/>
	  <point x="441" y="97"/>
	  <point x="412" y="137"/>
	  <point x="412" y="189" type="curve" smooth="yes"/>
	  <point x="412" y="238"/>
	  <point x="434" y="265"/>
	  <point x="501" y="294" type="curve" smooth="yes"/>
	  <point x="595" y="335"/>
	  <point x="616" y="384"/>
	  <point x="616" y="475" type="curve" smooth="yes"/>
	  <point x="616" y="552"/>
	  <point x="548" y="622"/>
	  <point x="455" y="622" type="curve" smooth="yes"/>
	  <point x="406" y="622"/>
	  <point x="349" y="596"/>
	  <point x="330" y="543" type="curve"/>
	  <point x="307" y="595"/>
	  <point x="269" y="620"/>
	  <point x="193" y="620" type="curve" smooth="yes"/>
	  <point x="97" y="620"/>
	  <point x="21" y="542"/>
	  <point x="21" y="437" type="curve" smooth="yes"/>
	  <point x="21" y="322"/>
	  <point x="76" y="276"/>
	  <point x="216" y="276" type="curve"/>
	  <point x="216" y="386" type="line"/>
	  <point x="207" y="382"/>
	  <point x="195" y="381"/>
	  <point x="176" y="381" type="curve" smooth="yes"/>
	  <point x="148" y="381"/>
	  <point x="126" y="400"/>
	  <point x="126" y="447" type="curve" smooth="yes"/>
	  <point x="126" y="491"/>
	  <point x="151" y="515"/>
	  <point x="186" y="515" type="curve" smooth="yes"/>
	  <point x="232" y="515"/>
	  <point x="258" y="489"/>
	  <point x="258" y="437" type="curve" smooth="yes"/>
	  <point x="258" y="407" type="line"/>
	  <point x="364" y="407" type="line"/>
	  <point x="364" y="428" type="line" smooth="yes"/>
	  <point x="364" y="487"/>
	  <point x="402" y="517"/>
	  <point x="449" y="517" type="curve" smooth="yes"/>
	  <point x="490" y="517"/>
	  <point x="510" y="496"/>
	  <point x="510" y="452" type="curve" smooth="yes"/>
	  <point x="510" y="416"/>
	  <point x="486" y="393"/>
	  <point x="437" y="374" type="curve" smooth="yes"/>
	  <point x="351" y="339"/>
	  <point x="304" y="283"/>
	  <point x="304" y="182" type="curve" smooth="yes"/>
	  <point x="304" y="94"/>
	  <point x="360" y="-8"/>
	  <point x="512" y="-8" type="curve" smooth="yes"/>
	</contour>
	<component base="U0C60.mark" xOffset="641" yOffset="-81"/>
  </outline>
</glyph>
<glyph name="U0C67" format="1">
  <advance width="603"/>
  <unicode hex="0C67"/>
  <outline>
	<contour>
	  <point x="189" y="52" type="line"/>
	  <point x="134" y="106"/>
	  <point x="108" y="169"/>
	  <point x="108" y="241" type="curve" smooth="yes"/>
	  <point x="108" y="336"/>
	  <point x="176" y="419"/>
	  <point x="279" y="419" type="curve" smooth="yes"/>
	  <point x="381" y="419"/>
	  <point x="449" y="336"/>
	  <point x="449" y="241" type="curve" smooth="yes"/>
	  <point x="449" y="169"/>
	  <point x="423" y="106"/>
	  <point x="368" y="52" type="curve"/>
	  <point x="452" y="-17" type="line"/>
	  <point x="522" y="52"/>
	  <point x="557" y="139"/>
	  <point x="557" y="241" type="curve" smooth="yes"/>
	  <point x="557" y="399"/>
	  <point x="445" y="525"/>
	  <point x="279" y="525" type="curve" smooth="yes"/>
	  <point x="112" y="525"/>
	  <point x="0" y="399"/>
	  <point x="0" y="241" type="curve" smooth="yes"/>
	  <point x="0" y="139"/>
	  <point x="35" y="52"/>
	  <point x="105" y="-17" type="curve"/>
	</contour>
  </outline>
</glyph>
<glyph name="U0C68" format="1">
  <advance width="694"/>
  <unicode hex="0C68"/>
  <outline>
	<contour>
	  <point x="374" y="-17" type="line" smooth="yes"/>
	  <point x="524" y="-17"/>
	  <point x="637" y="105"/>
	  <point x="637" y="256" type="curve" smooth="yes"/>
	  <point x="637" y="400"/>
	  <point x="526" y="519"/>
	  <point x="396" y="519" type="curve" smooth="yes"/>
	  <point x="309" y="519"/>
	  <point x="244" y="466"/>
	  <point x="244" y="389" type="curve" smooth="yes"/>
	  <point x="244" y="312"/>
	  <point x="302" y="259"/>
	  <point x="374" y="259" type="curve" smooth="yes"/>
	  <point x="434" y="259"/>
	  <point x="497" y="305"/>
	  <point x="497" y="372" type="curve" smooth="yes"/>
	  <point x="497" y="384"/>
	  <point x="496" y="396"/>
	  <point x="491" y="409" type="curve"/>
	  <point x="430" y="434" type="line"/>
	  <point x="434" y="370"/>
	  <point x="403" y="356"/>
	  <point x="377" y="356" type="curve" smooth="yes"/>
	  <point x="356" y="356"/>
	  <point x="340" y="367"/>
	  <point x="340" y="389" type="curve" smooth="yes"/>
	  <point x="340" y="410"/>
	  <point x="354" y="424"/>
	  <point x="381" y="424" type="curve" smooth="yes"/>
	  <point x="449" y="424"/>
	  <point x="542" y="354"/>
	  <point x="542" y="256" type="curve" smooth="yes"/>
	  <point x="542" y="162"/>
	  <point x="470" y="99"/>
	  <point x="374" y="99" type="curve" smooth="yes"/>
	  <point x="0" y="99" type="line"/>
	  <point x="0" y="-17" type="line"/>
	</contour>
  </outline>
</glyph>
<glyph name="U0C6A" format="1">
  <advance width="650"/>
  <unicode hex="0C6A"/>
  <outline>
	<contour>
	  <point x="376" y="-17"/>
	  <point x="426" y="43"/>
	  <point x="426" y="123" type="curve" smooth="yes"/>
	  <point x="426" y="146"/>
	  <point x="421" y="162"/>
	  <point x="414" y="175" type="curve"/>
	  <point x="503" y="199"/>
	  <point x="592" y="294"/>
	  <point x="592" y="400" type="curve" smooth="yes"/>
	  <point x="592" y="468"/>
	  <point x="537" y="519"/>
	  <point x="466" y="519" type="curve"/>
	  <point x="452" y="434" type="line"/>
	  <point x="476" y="434"/>
	  <point x="493" y="423"/>
	  <point x="493" y="400" type="curve" smooth="yes"/>
	  <point x="493" y="316"/>
	  <point x="386" y="252"/>
	  <point x="298" y="252" type="curve" smooth="yes"/>
	  <point x="211" y="252"/>
	  <point x="99" y="316"/>
	  <point x="99" y="400" type="curve" smooth="yes"/>
	  <point x="99" y="422"/>
	  <point x="118" y="434"/>
	  <point x="141" y="434" type="curve"/>
	  <point x="127" y="519" type="line"/>
	  <point x="56" y="519"/>
	  <point x="0" y="469"/>
	  <point x="0" y="400" type="curve" smooth="yes"/>
	  <point x="0" y="294"/>
	  <point x="89" y="200"/>
	  <point x="176" y="175" type="curve"/>
	  <point x="169" y="165"/>
	  <point x="167" y="147"/>
	  <point x="167" y="123" type="curve" smooth="yes"/>
	  <point x="167" y="38"/>
	  <point x="214" y="-17"/>
	  <point x="297" y="-17" type="curve" smooth="yes"/>
	</contour>
	<contour>
	  <point x="279" y="90"/>
	  <point x="262" y="105"/>
	  <point x="262" y="123" type="curve" smooth="yes"/>
	  <point x="262" y="141"/>
	  <point x="279" y="157"/>
	  <point x="297" y="157" type="curve" smooth="yes"/>
	  <point x="315" y="157"/>
	  <point x="330" y="142"/>
	  <point x="330" y="123" type="curve" smooth="yes"/>
	  <point x="330" y="105"/>
	  <point x="315" y="90"/>
	  <point x="297" y="90" type="curve" smooth="yes"/>
	</contour>
  </outline>
</glyph>
<glyph name="U0C79" format="1">
  <advance width="307"/>
  <unicode hex="0C79"/>
  <outline>
	<contour>
	  <point x="217" y="-6" type="line"/>
	  <point x="217" y="672" type="line"/>
	  <point x="112" y="672" type="line"/>
	  <point x="112" y="-6" type="line"/>
	</contour>
  </outline>
</glyph>
<glyph name="U0C7C" format="1">
  <advance width="714"/>
  <unicode hex="0C7C"/>
  <outline>
	<contour>
	  <point x="696" y="281" type="line"/>
	  <point x="696" y="375" type="line"/>
	  <point x="41" y="375" type="line"/>
	  <point x="41" y="281" type="line"/>
	</contour>
  </outline>
</glyph>
<glyph name="endash" format="1">
  <advance width="477"/>
  <unicode hex="2013"/>
  <outline>
	<contour>
	  <point x="2" y="278" type="line"/>
	  <point x="2" y="262" type="line"/>
	  <point x="475" y="262" type="line"/>
	  <point x="475" y="278" type="line"/>
	</contour>
  </outline>
</glyph>
<glyph name="emdash" format="1">
  <advance width="899"/>
  <unicode hex="2014"/>
  <outline>
	<contour>
	  <point x="48" y="278" type="line"/>
	  <point x="48" y="262" type="line"/>
	  <point x="851" y="262" type="line"/>
	  <point x="851" y="278" type="line"/>
	</contour>
  </outline>
</glyph>
<glyph name="dagger" format="1">
  <advance width="563"/>
  <unicode hex="2020"/>
  <outline>
	<contour>
	  <point x="274" y="660" type="line"/>
	  <point x="274" y="-210" type="line"/>
	  <point x="290" y="-210" type="line"/>
	  <point x="290" y="660" type="line"/>
	</contour>
	<contour>
	  <point x="76" y="431" type="line"/>
	  <point x="76" y="418" type="line"/>
	  <point x="487" y="418" type="line"/>
	  <point x="487" y="431" type="line"/>
	</contour>
  </outline>
</glyph>
<glyph name="U2022" format="1">
  <advance width="406"/>
  <unicode hex="2022"/>
  <outline>
	<contour>
	  <point x="174" y="388"/>
	  <point x="153" y="367"/>
	  <point x="153" y="338" type="curve" smooth="yes"/>
	  <point x="153" y="309"/>
	  <point x="174" y="288"/>
	  <point x="203" y="288" type="curve" smooth="yes"/>
	  <point x="232" y="288"/>
	  <point x="253" y="309"/>
	  <point x="253" y="338" type="curve" smooth="yes"/>
	  <point x="253" y="367"/>
	  <point x="232" y="388"/>
	  <point x="203" y="388" type="curve" smooth="yes"/>
	</contour>
  </outline>
</glyph>
<glyph name="Euro" format="1">
  <advance width="560"/>
  <unicode hex="20AC"/>
  <outline>
	<contour>
	  <point x="177" y="670"/>
	  <point x="80" y="543"/>
	  <point x="80" y="330" type="curve" smooth="yes"/>
	  <point x="80" y="117"/>
	  <point x="178" y="-10"/>
	  <point x="341" y="-10" type="curve" smooth="yes"/>
	  <point x="435" y="-10"/>
	  <point x="526" y="49"/>
	  <point x="556" y="169" type="curve"/>
	  <point x="542" y="176" type="line"/>
	  <point x="514" y="61"/>
	  <point x="431" y="4"/>
	  <point x="341" y="4" type="curve" smooth="yes"/>
	  <point x="188" y="4"/>
	  <point x="96" y="126"/>
	  <point x="96" y="330" type="curve" smooth="yes"/>
	  <point x="96" y="534"/>
	  <point x="187" y="656"/>
	  <point x="340" y="656" type="curve" smooth="yes"/>
	  <point x="439" y="656"/>
	  <point x="505" y="609"/>
	  <point x="536" y="518" type="curve"/>
	  <point x="548" y="528" type="line"/>
	  <point x="517" y="621"/>
	  <point x="444" y="670"/>
	  <point x="340" y="670" type="curve" smooth="yes"/>
	</contour>
	<contour>
	  <point x="-6" y="263" type="line"/>
	  <point x="-6" y="248" type="line"/>
	  <point x="344" y="248" type="line"/>
	  <point x="354" y="263" type="line"/>
	</contour>
	<contour>
	  <point x="-6" y="413" type="line"/>
	  <point x="-6" y="398" type="line"/>
	  <point x="384" y="398" type="line"/>
	  <point x="394" y="413" type="line"/>
	</contour>
  </outline>
</glyph>
<glyph name="trademark" format="1">
  <advance width="727"/>
  <unicode hex="2122"/>
  <outline>
	<contour>
	  <point x="135" y="660" type="line"/>
	  <point x="135" y="330" type="line"/>
	  <point x="151" y="330" type="line"/>
	  <point x="151" y="660" type="line"/>
	</contour>
	<contour>
	  <point x="7" y="660" type="line"/>
	  <point x="7" y="646" type="line"/>
	  <point x="278" y="646" type="line"/>
	  <point x="278" y="660" type="line"/>
	</contour>
	<contour>
	  <point x="635" y="660" type="line"/>
	  <point x="500" y="356" type="line"/>
	  <point x="495" y="342" type="line"/>
	  <point x="495" y="342" type="line"/>
	  <point x="489" y="356" type="line"/>
	  <point x="355" y="660" type="line"/>
	  <point x="338" y="660" type="line"/>
	  <point x="338" y="330" type="line"/>
	  <point x="354" y="330" type="line"/>
	  <point x="354" y="599" type="line"/>
	  <point x="352" y="633" type="line"/>
	  <point x="352" y="633" type="line"/>
	  <point x="361" y="609" type="line"/>
	  <point x="486" y="330" type="line"/>
	  <point x="503" y="330" type="line"/>
	  <point x="629" y="609" type="line"/>
	  <point x="637" y="633" type="line"/>
	  <point x="637" y="633" type="line"/>
	  <point x="635" y="599" type="line"/>
	  <point x="635" y="330" type="line"/>
	  <point x="651" y="330" type="line"/>
	  <point x="651" y="660" type="line"/>
	</contour>
  </outline>
</glyph>
<glyph name="estimated" format="1">
  <advance width="731"/>
  <unicode hex="212E"/>
  <outline>
	<contour>
	  <point x="160" y="670"/>
	  <point x="26" y="536"/>
	  <point x="26" y="330" type="curve" smooth="yes"/>
	  <point x="26" y="124"/>
	  <point x="160" y="-10"/>
	  <point x="386" y="-10" type="curve" smooth="yes"/>
	  <point x="512" y="-10"/>
	  <point x="613" y="35"/>
	  <point x="673" y="131" type="curve"/>
	  <point x="673" y="168" type="line"/>
	  <point x="612" y="72"/>
	  <point x="505" y="15"/>
	  <point x="387" y="15" type="curve" smooth="yes"/>
	  <point x="274" y="15"/>
	  <point x="186" y="50"/>
	  <point x="129" y="113" type="curve"/>
	  <point x="129" y="319" type="line"/>
	  <point x="705" y="319" type="line"/>
	  <point x="706" y="542"/>
	  <point x="578" y="670"/>
	  <point x="366" y="670" type="curve" smooth="yes"/>
	</contour>
	<contour>
	  <point x="469" y="645"/>
	  <point x="550" y="608"/>
	  <point x="603" y="541" type="curve"/>
	  <point x="603" y="344" type="line"/>
	  <point x="129" y="344" type="line"/>
	  <point x="129" y="553" type="line"/>
	  <point x="182" y="612"/>
	  <point x="263" y="645"/>
	  <point x="365" y="645" type="curve" smooth="yes"/>
	</contour>
  </outline>
</glyph>
<glyph name="onethird" format="1">
  <advance width="635"/>
  <unicode hex="2153"/>
  <outline>
	<contour>
	  <point x="15" y="581" type="line"/>
	  <point x="63" y="594"/>
	  <point x="110" y="621"/>
	  <point x="132" y="660" type="curve"/>
	  <point x="116" y="660" type="line"/>
	  <point x="97" y="628"/>
	  <point x="55" y="606"/>
	  <point x="15" y="595" type="curve"/>
	</contour>
	<contour>
	  <point x="116" y="660" type="line"/>
	  <point x="116" y="518" type="line"/>
	  <point x="116" y="306" type="line"/>
	  <point x="132" y="306" type="line"/>
	  <point x="132" y="518" type="line"/>
	  <point x="132" y="660" type="line"/>
	</contour>
	<contour>
	  <point x="557" y="176" type="line"/>
	  <point x="601" y="176"/>
	  <point x="632" y="214"/>
	  <point x="632" y="262" type="curve" smooth="yes"/>
	  <point x="632" y="323"/>
	  <point x="588" y="359"/>
	  <point x="516" y="359" type="curve" smooth="yes"/>
	  <point x="453" y="359"/>
	  <point x="414" y="331"/>
	  <point x="402" y="275" type="curve"/>
	  <point x="416" y="269" type="line"/>
	  <point x="428" y="318"/>
	  <point x="453" y="345"/>
	  <point x="516" y="345" type="curve" smooth="yes"/>
	  <point x="579" y="345"/>
	  <point x="616" y="312"/>
	  <point x="616" y="257" type="curve" smooth="yes"/>
	  <point x="616" y="208"/>
	  <point x="587" y="180"/>
	  <point x="520" y="180" type="curve" smooth="yes"/>
	  <point x="479" y="180" type="line"/>
	  <point x="479" y="166" type="line"/>
	  <point x="520" y="166" type="line" smooth="yes"/>
	  <point x="592" y="166"/>
	  <point x="623" y="138"/>
	  <point x="624" y="94" type="curve" smooth="yes"/>
	  <point x="626" y="41"/>
	  <point x="587" y="9"/>
	  <point x="513" y="9" type="curve" smooth="yes"/>
	  <point x="453" y="9"/>
	  <point x="414" y="38"/>
	  <point x="397" y="93" type="curve"/>
	  <point x="386" y="87" type="line"/>
	  <point x="402" y="26"/>
	  <point x="446" y="-5"/>
	  <point x="515" y="-5" type="curve" smooth="yes"/>
	  <point x="596" y="-5"/>
	  <point x="640" y="32"/>
	  <point x="640" y="92" type="curve" smooth="yes"/>
	  <point x="640" y="143"/>
	  <point x="601" y="174"/>
	  <point x="557" y="174" type="curve"/>
	</contour>
	<component base="fraction" xOffset="76"/>
  </outline>
</glyph>
<glyph name="arrowleft" format="1">
  <advance width="914"/>
  <unicode hex="2190"/>
  <outline>
	<contour>
	  <point x="314" y="246"/>
	  <point x="283" y="299"/>
	  <point x="245" y="351" type="curve"/>
	  <point x="869" y="351" type="line"/>
	  <point x="869" y="410" type="line"/>
	  <point x="248" y="410" type="line"/>
	  <point x="281" y="450"/>
	  <point x="314" y="524"/>
	  <point x="314" y="594" type="curve"/>
	  <point x="243" y="496"/>
	  <point x="154" y="423"/>
	  <point x="34" y="381" type="curve"/>
	  <point x="154" y="336"/>
	  <point x="241" y="264"/>
	  <point x="314" y="165" type="curve"/>
	</contour>
  </outline>
</glyph>
<glyph name="arrowup" format="1">
  <advance width="507"/>
  <unicode hex="2191"/>
  <outline>
	<contour>
	  <point x="279" y="-38" type="line"/>
	  <point x="279" y="585" type="line"/>
	  <point x="317" y="553"/>
	  <point x="393" y="519"/>
	  <point x="461" y="519" type="curve"/>
	  <point x="364" y="588"/>
	  <point x="291" y="680"/>
	  <point x="248" y="801" type="curve"/>
	  <point x="205" y="681"/>
	  <point x="132" y="588"/>
	  <point x="36" y="519" type="curve"/>
	  <point x="111" y="519"/>
	  <point x="170" y="551"/>
	  <point x="218" y="587" type="curve"/>
	  <point x="218" y="-38" type="line"/>
	</contour>
  </outline>
</glyph>
<glyph name="product" format="1">
  <advance width="584"/>
  <unicode hex="220F"/>
  <outline>
	<contour>
	  <point x="510" y="660" type="line"/>
	  <point x="510" y="-128" type="line"/>
	  <point x="526" y="-128" type="line"/>
	  <point x="526" y="660" type="line"/>
	</contour>
	<contour>
	  <point x="58" y="660" type="line"/>
	  <point x="58" y="-128" type="line"/>
	  <point x="74" y="-128" type="line"/>
	  <point x="74" y="660" type="line"/>
	</contour>
	<contour>
	  <point x="66" y="660" type="line"/>
	  <point x="66" y="646" type="line"/>
	  <point x="519" y="646" type="line"/>
	  <point x="519" y="660" type="line"/>
	</contour>
  </outline>
</glyph>
<glyph name="radical" format="1">
  <advance width="538"/>
  <unicode hex="221A"/>
  <outline>
	<contour>
	  <point x="553" y="818" type="line"/>
	  <point x="256" y="50" type="line"/>
	  <point x="239" y="0" type="line"/>
	  <point x="253" y="0" type="line"/>
	  <point x="570" y="818" type="line"/>
	</contour>
	<contour>
	  <point x="3" y="341" type="line"/>
	  <point x="3" y="327" type="line"/>
	  <point x="106" y="327" type="line"/>
	  <point x="235" y="0" type="line"/>
	  <point x="249" y="0" type="line"/>
	  <point x="232" y="52" type="line"/>
	  <point x="118" y="341" type="line"/>
	</contour>
  </outline>
</glyph>
<glyph name="infinity" format="1">
  <advance width="804"/>
  <unicode hex="221E"/>
  <outline>
	<contour>
	  <point x="551" y="475"/>
	  <point x="538" y="462"/>
	  <point x="396" y="288" type="curve" smooth="yes"/>
	  <point x="248" y="107"/>
	  <point x="241" y="104"/>
	  <point x="178" y="104" type="curve" smooth="yes"/>
	  <point x="107" y="104"/>
	  <point x="45" y="174"/>
	  <point x="45" y="282" type="curve" smooth="yes"/>
	  <point x="45" y="391"/>
	  <point x="107" y="461"/>
	  <point x="178" y="461" type="curve" smooth="yes"/>
	  <point x="243" y="461"/>
	  <point x="249" y="456"/>
	  <point x="400" y="271" type="curve" smooth="yes"/>
	  <point x="545" y="95"/>
	  <point x="551" y="90"/>
	  <point x="630" y="90" type="curve" smooth="yes"/>
	  <point x="708" y="90"/>
	  <point x="775" y="158"/>
	  <point x="775" y="282" type="curve" smooth="yes"/>
	  <point x="775" y="407"/>
	  <point x="708" y="475"/>
	  <point x="630" y="475" type="curve" smooth="yes"/>
	</contour>
	<contour>
	  <point x="96" y="475"/>
	  <point x="29" y="407"/>
	  <point x="29" y="282" type="curve" smooth="yes"/>
	  <point x="29" y="158"/>
	  <point x="96" y="90"/>
	  <point x="175" y="90" type="curve" smooth="yes"/>
	  <point x="255" y="90"/>
	  <point x="262" y="98"/>
	  <point x="405" y="275" type="curve" smooth="yes"/>
	  <point x="540" y="442"/>
	  <point x="566" y="461"/>
	  <point x="627" y="461" type="curve" smooth="yes"/>
	  <point x="697" y="461"/>
	  <point x="759" y="391"/>
	  <point x="759" y="282" type="curve" smooth="yes"/>
	  <point x="759" y="174"/>
	  <point x="697" y="102"/>
	  <point x="626" y="104" type="curve" smooth="yes"/>
	  <point x="561" y="105"/>
	  <point x="554" y="111"/>
	  <point x="401" y="297" type="curve" smooth="yes"/>
	  <point x="260" y="470"/>
	  <point x="253" y="475"/>
	  <point x="175" y="475" type="curve" smooth="yes"/>
	</contour>
  </outline>
</glyph>
<glyph name="approxequal" format="1">
  <advance width="553"/>
  <unicode hex="2248"/>
  <outline>
	<contour>
	  <point x="108" y="434"/>
	  <point x="76" y="419"/>
	  <point x="33" y="382" type="curve"/>
	  <point x="33" y="363" type="line"/>
	  <point x="73" y="401"/>
	  <point x="106" y="420"/>
	  <point x="155" y="420" type="curve" smooth="yes"/>
	  <point x="241" y="420"/>
	  <point x="321" y="350"/>
	  <point x="401" y="350" type="curve" smooth="yes"/>
	  <point x="440" y="350"/>
	  <point x="480" y="366"/>
	  <point x="520" y="402" type="curve"/>
	  <point x="520" y="421" type="line"/>
	  <point x="474" y="377"/>
	  <point x="436" y="364"/>
	  <point x="402" y="364" type="curve" smooth="yes"/>
	  <point x="319" y="364"/>
	  <point x="240" y="434"/>
	  <point x="155" y="434" type="curve" smooth="yes"/>
	</contour>
	<contour>
	  <point x="108" y="270"/>
	  <point x="76" y="255"/>
	  <point x="33" y="218" type="curve"/>
	  <point x="33" y="199" type="line"/>
	  <point x="73" y="237"/>
	  <point x="106" y="256"/>
	  <point x="155" y="256" type="curve" smooth="yes"/>
	  <point x="241" y="256"/>
	  <point x="321" y="186"/>
	  <point x="401" y="186" type="curve" smooth="yes"/>
	  <point x="440" y="186"/>
	  <point x="480" y="202"/>
	  <point x="520" y="238" type="curve"/>
	  <point x="520" y="257" type="line"/>
	  <point x="474" y="213"/>
	  <point x="436" y="200"/>
	  <point x="402" y="200" type="curve" smooth="yes"/>
	  <point x="319" y="200"/>
	  <point x="240" y="270"/>
	  <point x="155" y="270" type="curve" smooth="yes"/>
	</contour>
  </outline>
</glyph>
<glyph name="U0C0B.part" format="1">
  <advance width="1306"/>
  <outline>
	<contour>
	  <point x="1173" y="-7"/>
	  <point x="1275" y="90"/>
	  <point x="1275" y="265" type="curve" smooth="yes"/>
	  <point x="1275" y="409"/>
	  <point x="1169" y="504"/>
	  <point x="1061" y="504" type="curve" smooth="yes"/>
	  <point x="1018" y="504" type="line"/>
	  <point x="1018" y="400" type="line"/>
	  <point x="1029" y="406"/>
	  <point x="1039" y="409"/>
	  <point x="1056" y="409" type="curve" smooth="yes"/>
	  <point x="1123" y="409"/>
	  <point x="1176" y="356"/>
	  <point x="1176" y="252" type="curve" smooth="yes"/>
	  <point x="1176" y="153"/>
	  <point x="1130" y="102"/>
	  <point x="1071" y="102" type="curve" smooth="yes"/>
	  <point x="1008" y="102"/>
	  <point x="966" y="157"/>
	  <point x="966" y="242" type="curve" smooth="yes"/>
	  <point x="966" y="265" type="line"/>
	  <point x="888" y="193" type="line"/>
	  <point x="888" y="88"/>
	  <point x="939" y="-7"/>
	  <point x="1071" y="-7" type="curve" smooth="yes"/>
	</contour>
  </outline>
</glyph>
<glyph name="U0C15.haln_U0C37.haln" format="1">
  <advance width="619"/>
  <outline>
	<contour>
	  <point x="392" y="-7"/>
	  <point x="533" y="90"/>
	  <point x="533" y="207" type="curve" smooth="yes"/>
	  <point x="533" y="282"/>
	  <point x="474" y="330"/>
	  <point x="399" y="330" type="curve" smooth="yes"/>
	  <point x="351" y="330"/>
	  <point x="304" y="307"/>
	  <point x="262" y="307" type="curve" smooth="yes"/>
	  <point x="197" y="307"/>
	  <point x="165" y="322"/>
	  <point x="165" y="353" type="curve" smooth="yes"/>
	  <point x="165" y="400"/>
	  <point x="202" y="424"/>
	  <point x="273" y="424" type="curve" smooth="yes"/>
	  <point x="331" y="424"/>
	  <point x="374" y="405"/>
	  <point x="391" y="368" type="curve"/>
	  <point x="503" y="368" type="line"/>
	  <point x="503" y="426"/>
	  <point x="475" y="468"/>
	  <point x="419" y="491" type="curve"/>
	  <point x="419" y="533" type="line"/>
	  <point x="178" y="533" type="line" smooth="yes"/>
	  <point x="162" y="533"/>
	  <point x="155" y="539"/>
	  <point x="155" y="550" type="curve" smooth="yes"/>
	  <point x="155" y="567"/>
	  <point x="164" y="575"/>
	  <point x="179" y="575" type="curve" smooth="yes"/>
	  <point x="419" y="575" type="line"/>
	  <point x="419" y="675" type="line"/>
	  <point x="176" y="675" type="line" smooth="yes"/>
	  <point x="161" y="675"/>
	  <point x="154" y="680"/>
	  <point x="154" y="692" type="curve" smooth="yes"/>
	  <point x="154" y="707"/>
	  <point x="162" y="714"/>
	  <point x="178" y="714" type="curve" smooth="yes"/>
	  <point x="546" y="714" type="line"/>
	  <point x="546" y="819" type="line"/>
	  <point x="150" y="819" type="line" smooth="yes"/>
	  <point x="95" y="819"/>
	  <point x="34" y="740"/>
	  <point x="34" y="687" type="curve" smooth="yes"/>
	  <point x="34" y="661"/>
	  <point x="49" y="636"/>
	  <point x="81" y="609" type="curve"/>
	  <point x="59" y="585"/>
	  <point x="48" y="563"/>
	  <point x="48" y="542" type="curve" smooth="yes"/>
	  <point x="48" y="517"/>
	  <point x="77" y="468"/>
	  <point x="99" y="458" type="curve"/>
	  <point x="99" y="454" type="line"/>
	  <point x="60" y="419"/>
	  <point x="41" y="385"/>
	  <point x="41" y="351" type="curve" smooth="yes"/>
	  <point x="41" y="270"/>
	  <point x="129" y="210"/>
	  <point x="211" y="210" type="curve"/>
	  <point x="357" y="225" type="line" smooth="yes"/>
	  <point x="398" y="229"/>
	  <point x="419" y="211"/>
	  <point x="419" y="176" type="curve" smooth="yes"/>
	  <point x="419" y="124"/>
	  <point x="344" y="95"/>
	  <point x="280" y="95" type="curve" smooth="yes"/>
	  <point x="222" y="95"/>
	  <point x="140" y="128"/>
	  <point x="140" y="179" type="curve"/>
	  <point x="21" y="179" type="line"/>
	  <point x="21" y="62"/>
	  <point x="149" y="-7"/>
	  <point x="273" y="-7" type="curve" smooth="yes"/>
	</contour>
	<contour>
	  <point x="619" y="-290" type="line"/>
	  <point x="603" y="-279"/>
	  <point x="596" y="-251"/>
	  <point x="596" y="-206" type="curve"/>
	  <point x="603" y="-157" type="line"/>
	  <point x="603" y="-106" type="line" smooth="yes"/>
	  <point x="603" y="-38"/>
	  <point x="574" y="10"/>
	  <point x="515" y="36" type="curve"/>
	  <point x="470" y="-14" type="line"/>
	  <point x="490" y="-24"/>
	  <point x="500" y="-39"/>
	  <point x="500" y="-63" type="curve" smooth="yes"/>
	  <point x="500" y="-100"/>
	  <point x="471" y="-134"/>
	  <point x="431" y="-134" type="curve" smooth="yes"/>
	  <point x="391" y="-134"/>
	  <point x="371" y="-112"/>
	  <point x="371" y="-66" type="curve"/>
	  <point x="375" y="-49" type="line"/>
	  <point x="375" y="-34" type="line"/>
	  <point x="273" y="-34" type="line"/>
	  <point x="273" y="-49" type="line"/>
	  <point x="277" y="-66" type="line"/>
	  <point x="277" y="-115"/>
	  <point x="252" y="-140"/>
	  <point x="202" y="-140" type="curve" smooth="yes"/>
	  <point x="158" y="-140"/>
	  <point x="127" y="-106"/>
	  <point x="127" y="-63" type="curve" smooth="yes"/>
	  <point x="127" y="-50"/>
	  <point x="127" y="-37"/>
	  <point x="127" y="-24" type="curve"/>
	  <point x="31" y="-24" type="line"/>
	  <point x="25" y="-39"/>
	  <point x="22" y="-56"/>
	  <point x="22" y="-71" type="curve" smooth="yes"/>
	  <point x="22" y="-155"/>
	  <point x="100" y="-239"/>
	  <point x="185" y="-239" type="curve" smooth="yes"/>
	  <point x="251" y="-239"/>
	  <point x="294" y="-221"/>
	  <point x="315" y="-183" type="curve"/>
	  <point x="356" y="-218"/>
	  <point x="391" y="-235"/>
	  <point x="421" y="-235" type="curve" smooth="yes"/>
	  <point x="441" y="-235"/>
	  <point x="473" y="-224"/>
	  <point x="519" y="-203" type="curve"/>
	  <point x="519" y="-255" type="line" smooth="yes"/>
	  <point x="519" y="-284"/>
	  <point x="529" y="-311"/>
	  <point x="550" y="-335" type="curve"/>
	</contour>
  </outline>
</glyph>
<glyph name="U0C15_U0C41" format="1">
  <advance width="868"/>
  <outline>
	<contour>
	  <point x="751" y="-8"/>
	  <point x="853" y="113"/>
	  <point x="853" y="245" type="curve" smooth="yes"/>
	  <point x="853" y="383"/>
	  <point x="771" y="507"/>
	  <point x="638" y="507" type="curve" smooth="yes"/>
	  <point x="592" y="507" type="line"/>
	  <point x="592" y="407" type="line"/>
	  <point x="634" y="407" type="line" smooth="yes"/>
	  <point x="703" y="407"/>
	  <point x="750" y="335"/>
	  <point x="750" y="258" type="curve" smooth="yes"/>
	  <point x="750" y="192"/>
	  <point x="707" y="104"/>
	  <point x="644" y="104" type="curve" smooth="yes"/>
	  <point x="584" y="104"/>
	  <point x="559" y="159"/>
	  <point x="536" y="209" type="curve"/>
	  <point x="536" y="283"/>
	  <point x="476" y="330"/>
	  <point x="402" y="330" type="curve" smooth="yes"/>
	  <point x="354" y="330"/>
	  <point x="307" y="307"/>
	  <point x="265" y="307" type="curve" smooth="yes"/>
	  <point x="200" y="307"/>
	  <point x="168" y="322"/>
	  <point x="168" y="353" type="curve" smooth="yes"/>
	  <point x="168" y="400"/>
	  <point x="204" y="424"/>
	  <point x="276" y="424" type="curve" smooth="yes"/>
	  <point x="334" y="424"/>
	  <point x="376" y="405"/>
	  <point x="393" y="368" type="curve"/>
	  <point x="505" y="368" type="line"/>
	  <point x="505" y="448"/>
	  <point x="455" y="494"/>
	  <point x="353" y="510" type="curve"/>
	  <point x="380" y="538"/>
	  <point x="412" y="573"/>
	  <point x="456" y="573" type="curve" smooth="yes"/>
	  <point x="484" y="573"/>
	  <point x="504" y="564"/>
	  <point x="515" y="549" type="curve"/>
	  <point x="515" y="658" type="line"/>
	  <point x="503" y="666"/>
	  <point x="483" y="671"/>
	  <point x="459" y="671" type="curve" smooth="yes"/>
	  <point x="405" y="671"/>
	  <point x="351" y="643"/>
	  <point x="302" y="588" type="curve" smooth="yes"/>
	  <point x="282" y="564"/>
	  <point x="252" y="514"/>
	  <point x="213" y="514" type="curve" smooth="yes"/>
	  <point x="175" y="514"/>
	  <point x="157" y="533"/>
	  <point x="157" y="571" type="curve" smooth="yes"/>
	  <point x="157" y="584" type="line"/>
	  <point x="39" y="584" type="line"/>
	  <point x="39" y="568" type="line" smooth="yes"/>
	  <point x="39" y="524"/>
	  <point x="70" y="486"/>
	  <point x="109" y="458" type="curve"/>
	  <point x="66" y="432"/>
	  <point x="43" y="382"/>
	  <point x="43" y="351" type="curve" smooth="yes"/>
	  <point x="43" y="270"/>
	  <point x="132" y="210"/>
	  <point x="214" y="210" type="curve"/>
	  <point x="360" y="225" type="line" smooth="yes"/>
	  <point x="401" y="229"/>
	  <point x="421" y="211"/>
	  <point x="421" y="176" type="curve" smooth="yes"/>
	  <point x="421" y="124"/>
	  <point x="347" y="95"/>
	  <point x="283" y="95" type="curve" smooth="yes"/>
	  <point x="224" y="95"/>
	  <point x="143" y="128"/>
	  <point x="143" y="179" type="curve"/>
	  <point x="24" y="179" type="line"/>
	  <point x="24" y="62"/>
	  <point x="152" y="-7"/>
	  <point x="276" y="-7" type="curve" smooth="yes"/>
	  <point x="347" y="-7"/>
	  <point x="411" y="21"/>
	  <point x="465" y="67" type="curve"/>
	  <point x="498" y="18"/>
	  <point x="552" y="-8"/>
	  <point x="622" y="-8" type="curve" smooth="yes"/>
	</contour>
  </outline>
</glyph>
<glyph name="U0C15_U0C4B" format="1">
  <advance width="920"/>
  <outline>
	<contour>
	  <point x="392" y="-7"/>
	  <point x="533" y="90"/>
	  <point x="533" y="207" type="curve" smooth="yes"/>
	  <point x="533" y="282"/>
	  <point x="474" y="330"/>
	  <point x="399" y="330" type="curve" smooth="yes"/>
	  <point x="351" y="330"/>
	  <point x="304" y="307"/>
	  <point x="262" y="307" type="curve" smooth="yes"/>
	  <point x="197" y="307"/>
	  <point x="165" y="322"/>
	  <point x="165" y="353" type="curve" smooth="yes"/>
	  <point x="165" y="400"/>
	  <point x="202" y="424"/>
	  <point x="273" y="424" type="curve" smooth="yes"/>
	  <point x="331" y="424"/>
	  <point x="374" y="405"/>
	  <point x="391" y="368" type="curve"/>
	  <point x="503" y="368" type="line"/>
	  <point x="503" y="465"/>
	  <point x="426" y="514"/>
	  <point x="272" y="514" type="curve"/>
	  <point x="211" y="510" type="line" smooth="yes"/>
	  <point x="180" y="507"/>
	  <point x="165" y="535"/>
	  <point x="165" y="563" type="curve" smooth="yes"/>
	  <point x="165" y="597"/>
	  <point x="232" y="620"/>
	  <point x="276" y="620" type="curve" smooth="yes"/>
	  <point x="379" y="620"/>
	  <point x="479" y="581"/>
	  <point x="479" y="491" type="curve"/>
	  <point x="592" y="491" type="line"/>
	  <point x="592" y="535"/>
	  <point x="622" y="556"/>
	  <point x="680" y="556" type="curve" smooth="yes"/>
	  <point x="736" y="556"/>
	  <point x="769" y="501"/>
	  <point x="784" y="449" type="curve"/>
	  <point x="764" y="456"/>
	  <point x="762" y="461"/>
	  <point x="729" y="461" type="curve" smooth="yes"/>
	  <point x="636" y="461"/>
	  <point x="566" y="408"/>
	  <point x="566" y="318" type="curve" smooth="yes"/>
	  <point x="566" y="249"/>
	  <point x="623" y="179"/>
	  <point x="696" y="179" type="curve" smooth="yes"/>
	  <point x="825" y="179"/>
	  <point x="892" y="272"/>
	  <point x="892" y="405" type="curve" smooth="yes"/>
	  <point x="892" y="545"/>
	  <point x="806" y="659"/>
	  <point x="678" y="659" type="curve" smooth="yes"/>
	  <point x="661" y="659"/>
	  <point x="652" y="673"/>
	  <point x="652" y="699" type="curve" smooth="yes"/>
	  <point x="652" y="731"/>
	  <point x="668" y="746"/>
	  <point x="700" y="746" type="curve" smooth="yes"/>
	  <point x="736" y="746"/>
	  <point x="755" y="727"/>
	  <point x="755" y="689" type="curve"/>
	  <point x="858" y="689" type="line"/>
	  <point x="858" y="782"/>
	  <point x="797" y="846"/>
	  <point x="708" y="846" type="curve" smooth="yes"/>
	  <point x="612" y="846"/>
	  <point x="549" y="787"/>
	  <point x="549" y="692" type="curve" smooth="yes"/>
	  <point x="549" y="675"/>
	  <point x="557" y="652"/>
	  <point x="575" y="626" type="curve"/>
	  <point x="550" y="612" type="line"/>
	  <point x="482" y="697"/>
	  <point x="444" y="725"/>
	  <point x="300" y="725" type="curve" smooth="yes"/>
	  <point x="172" y="725"/>
	  <point x="41" y="667"/>
	  <point x="41" y="549" type="curve" smooth="yes"/>
	  <point x="41" y="505"/>
	  <point x="64" y="470"/>
	  <point x="88" y="442" type="curve"/>
	  <point x="56" y="412"/>
	  <point x="41" y="381"/>
	  <point x="41" y="351" type="curve" smooth="yes"/>
	  <point x="41" y="270"/>
	  <point x="129" y="210"/>
	  <point x="211" y="210" type="curve"/>
	  <point x="357" y="225" type="line" smooth="yes"/>
	  <point x="398" y="229"/>
	  <point x="419" y="211"/>
	  <point x="419" y="176" type="curve" smooth="yes"/>
	  <point x="419" y="124"/>
	  <point x="344" y="95"/>
	  <point x="280" y="95" type="curve" smooth="yes"/>
	  <point x="222" y="95"/>
	  <point x="140" y="128"/>
	  <point x="140" y="179" type="curve"/>
	  <point x="21" y="179" type="line"/>
	  <point x="21" y="62"/>
	  <point x="149" y="-7"/>
	  <point x="273" y="-7" type="curve" smooth="yes"/>
	</contour>
	<contour>
	  <point x="683" y="276"/>
	  <point x="658" y="301"/>
	  <point x="658" y="332" type="curve" smooth="yes"/>
	  <point x="658" y="358"/>
	  <point x="690" y="389"/>
	  <point x="715" y="389" type="curve" smooth="yes"/>
	  <point x="746" y="389"/>
	  <point x="770" y="363"/>
	  <point x="770" y="332" type="curve" smooth="yes"/>
	  <point x="770" y="304"/>
	  <point x="745" y="276"/>
	  <point x="715" y="276" type="curve" smooth="yes"/>
	</contour>
  </outline>
</glyph>
<glyph name="U0C15_U0C4D_U0C37.botmark" format="1">
  <advance width="658"/>
  <outline>
	<contour>
	  <point x="536" y="-239"/>
	  <point x="612" y="-162"/>
	  <point x="612" y="-105" type="curve" smooth="yes"/>
	  <point x="612" y="-27"/>
	  <point x="570" y="14"/>
	  <point x="524" y="36" type="curve"/>
	  <point x="482" y="-11" type="line"/>
	  <point x="503" y="-22"/>
	  <point x="519" y="-45"/>
	  <point x="519" y="-78" type="curve" smooth="yes"/>
	  <point x="519" y="-120"/>
	  <point x="494" y="-144"/>
	  <point x="448" y="-144" type="curve" smooth="yes"/>
	  <point x="402" y="-144"/>
	  <point x="375" y="-116"/>
	  <point x="375" y="-71" type="curve" smooth="yes"/>
	  <point x="375" y="-55"/>
	  <point x="377" y="-43"/>
	  <point x="379" y="-32" type="curve"/>
	  <point x="295" y="-32" type="line"/>
	  <point x="295" y="-102"/>
	  <point x="314" y="-239"/>
	  <point x="456" y="-239" type="curve" smooth="yes"/>
	</contour>
	<contour>
	  <point x="325" y="-239"/>
	  <point x="360" y="-143"/>
	  <point x="360" y="-32" type="curve"/>
	  <point x="281" y="-32" type="line"/>
	  <point x="283" y="-41"/>
	  <point x="284" y="-50"/>
	  <point x="284" y="-63" type="curve" smooth="yes"/>
	  <point x="284" y="-108"/>
	  <point x="258" y="-144"/>
	  <point x="206" y="-144" type="curve" smooth="yes"/>
	  <point x="160" y="-144"/>
	  <point x="129" y="-119"/>
	  <point x="129" y="-62" type="curve" smooth="yes"/>
	  <point x="129" y="-48"/>
	  <point x="132" y="-35"/>
	  <point x="137" y="-24" type="curve"/>
	  <point x="42" y="-24" type="line"/>
	  <point x="35" y="-41"/>
	  <point x="32" y="-57"/>
	  <point x="32" y="-77" type="curve" smooth="yes"/>
	  <point x="32" y="-174"/>
	  <point x="97" y="-239"/>
	  <point x="195" y="-239" type="curve" smooth="yes"/>
	</contour>
	<contour>
	  <point x="624" y="-291" type="line"/>
	  <point x="606" y="-269"/>
	  <point x="605" y="-237"/>
	  <point x="605" y="-203" type="curve" smooth="yes"/>
	  <point x="605" y="-171"/>
	  <point x="612" y="-139"/>
	  <point x="612" y="-105" type="curve"/>
	  <point x="578" y="-105" type="line"/>
	  <point x="553" y="-160"/>
	  <point x="529" y="-216"/>
	  <point x="529" y="-258" type="curve" smooth="yes"/>
	  <point x="529" y="-290"/>
	  <point x="540" y="-312"/>
	  <point x="559" y="-333" type="curve"/>
	</contour>
  </outline>
</glyph>
<glyph name="U0C15_U0C4D_U0C37_U0C41" format="1">
  <advance width="906"/>
  <outline>
	<contour>
	  <point x="773" y="-8"/>
	  <point x="875" y="113"/>
	  <point x="875" y="245" type="curve" smooth="yes"/>
	  <point x="875" y="383"/>
	  <point x="794" y="507"/>
	  <point x="661" y="507" type="curve" smooth="yes"/>
	  <point x="615" y="507" type="line"/>
	  <point x="615" y="407" type="line"/>
	  <point x="655" y="407" type="line" smooth="yes"/>
	  <point x="724" y="407"/>
	  <point x="773" y="334"/>
	  <point x="773" y="258" type="curve" smooth="yes"/>
	  <point x="773" y="192"/>
	  <point x="729" y="104"/>
	  <point x="666" y="104" type="curve" smooth="yes"/>
	  <point x="606" y="104"/>
	  <point x="581" y="159"/>
	  <point x="559" y="209" type="curve"/>
	  <point x="559" y="284"/>
	  <point x="498" y="330"/>
	  <point x="423" y="330" type="curve" smooth="yes"/>
	  <point x="375" y="330"/>
	  <point x="328" y="307"/>
	  <point x="286" y="307" type="curve" smooth="yes"/>
	  <point x="223" y="307"/>
	  <point x="190" y="322"/>
	  <point x="190" y="353" type="curve" smooth="yes"/>
	  <point x="190" y="400"/>
	  <point x="227" y="424"/>
	  <point x="298" y="424" type="curve" smooth="yes"/>
	  <point x="356" y="424"/>
	  <point x="399" y="405"/>
	  <point x="416" y="368" type="curve"/>
	  <point x="528" y="368" type="line"/>
	  <point x="528" y="448"/>
	  <point x="477" y="494"/>
	  <point x="375" y="510" type="curve"/>
	  <point x="402" y="538"/>
	  <point x="434" y="573"/>
	  <point x="479" y="573" type="curve" smooth="yes"/>
	  <point x="507" y="573"/>
	  <point x="526" y="564"/>
	  <point x="538" y="549" type="curve"/>
	  <point x="538" y="658" type="line"/>
	  <point x="524" y="666"/>
	  <point x="505" y="671"/>
	  <point x="482" y="671" type="curve" smooth="yes"/>
	  <point x="427" y="671"/>
	  <point x="374" y="643"/>
	  <point x="325" y="588" type="curve" smooth="yes"/>
	  <point x="305" y="564"/>
	  <point x="273" y="514"/>
	  <point x="235" y="514" type="curve" smooth="yes"/>
	  <point x="196" y="514"/>
	  <point x="178" y="533"/>
	  <point x="178" y="571" type="curve" smooth="yes"/>
	  <point x="178" y="584" type="line"/>
	  <point x="62" y="584" type="line"/>
	  <point x="62" y="568" type="line" smooth="yes"/>
	  <point x="62" y="525"/>
	  <point x="93" y="487"/>
	  <point x="130" y="458" type="curve"/>
	  <point x="89" y="427"/>
	  <point x="66" y="385"/>
	  <point x="66" y="351" type="curve" smooth="yes"/>
	  <point x="66" y="270"/>
	  <point x="154" y="210"/>
	  <point x="237" y="210" type="curve"/>
	  <point x="383" y="225" type="line" smooth="yes"/>
	  <point x="423" y="229"/>
	  <point x="444" y="211"/>
	  <point x="444" y="176" type="curve" smooth="yes"/>
	  <point x="444" y="124"/>
	  <point x="369" y="95"/>
	  <point x="305" y="95" type="curve" smooth="yes"/>
	  <point x="247" y="95"/>
	  <point x="164" y="127"/>
	  <point x="164" y="179" type="curve"/>
	  <point x="46" y="179" type="line"/>
	  <point x="46" y="61"/>
	  <point x="174" y="-7"/>
	  <point x="298" y="-7" type="curve" smooth="yes"/>
	  <point x="366" y="-7"/>
	  <point x="437" y="19"/>
	  <point x="486" y="67" type="curve"/>
	  <point x="523" y="20"/>
	  <point x="571" y="-8"/>
	  <point x="644" y="-8" type="curve" smooth="yes"/>
	</contour>
	<contour>
	  <point x="631" y="-332" type="line"/>
	  <point x="616" y="-321"/>
	  <point x="609" y="-293"/>
	  <point x="609" y="-248" type="curve"/>
	  <point x="616" y="-196" type="line"/>
	  <point x="616" y="-147" type="line" smooth="yes"/>
	  <point x="616" y="-78"/>
	  <point x="587" y="-31"/>
	  <point x="528" y="-6" type="curve"/>
	  <point x="483" y="-56" type="line"/>
	  <point x="503" y="-66"/>
	  <point x="512" y="-81"/>
	  <point x="512" y="-102" type="curve" smooth="yes"/>
	  <point x="512" y="-141"/>
	  <point x="480" y="-176"/>
	  <point x="444" y="-176" type="curve" smooth="yes"/>
	  <point x="403" y="-176"/>
	  <point x="384" y="-153"/>
	  <point x="384" y="-106" type="curve"/>
	  <point x="388" y="-87" type="line"/>
	  <point x="388" y="-74" type="line"/>
	  <point x="286" y="-74" type="line"/>
	  <point x="286" y="-87" type="line"/>
	  <point x="290" y="-106" type="line"/>
	  <point x="290" y="-155"/>
	  <point x="265" y="-179"/>
	  <point x="214" y="-179" type="curve" smooth="yes"/>
	  <point x="167" y="-179"/>
	  <point x="140" y="-148"/>
	  <point x="140" y="-102" type="curve" smooth="yes"/>
	  <point x="140" y="-90"/>
	  <point x="140" y="-78"/>
	  <point x="140" y="-66" type="curve"/>
	  <point x="43" y="-66" type="line"/>
	  <point x="38" y="-80"/>
	  <point x="35" y="-95"/>
	  <point x="35" y="-112" type="curve" smooth="yes"/>
	  <point x="35" y="-197"/>
	  <point x="118" y="-280"/>
	  <point x="197" y="-280" type="curve" smooth="yes"/>
	  <point x="263" y="-280"/>
	  <point x="307" y="-262"/>
	  <point x="328" y="-224" type="curve"/>
	  <point x="368" y="-259"/>
	  <point x="403" y="-276"/>
	  <point x="434" y="-276" type="curve" smooth="yes"/>
	  <point x="455" y="-276"/>
	  <point x="487" y="-265"/>
	  <point x="532" y="-242" type="curve"/>
	  <point x="532" y="-294" type="line" smooth="yes"/>
	  <point x="532" y="-325"/>
	  <point x="542" y="-353"/>
	  <point x="563" y="-377" type="curve"/>
	</contour>
  </outline>
</glyph>
<glyph name="U0C15_U0C4D_U0C37_U0C4B" format="1">
  <advance width="942"/>
  <outline>
	<contour>
	  <point x="415" y="-7"/>
	  <point x="557" y="92"/>
	  <point x="557" y="207" type="curve" smooth="yes"/>
	  <point x="557" y="283"/>
	  <point x="496" y="330"/>
	  <point x="421" y="330" type="curve" smooth="yes"/>
	  <point x="373" y="330"/>
	  <point x="326" y="307"/>
	  <point x="284" y="307" type="curve" smooth="yes"/>
	  <point x="221" y="307"/>
	  <point x="189" y="322"/>
	  <point x="189" y="353" type="curve" smooth="yes"/>
	  <point x="189" y="400"/>
	  <point x="225" y="424"/>
	  <point x="297" y="424" type="curve" smooth="yes"/>
	  <point x="354" y="424"/>
	  <point x="398" y="404"/>
	  <point x="414" y="368" type="curve"/>
	  <point x="526" y="368" type="line"/>
	  <point x="526" y="465"/>
	  <point x="449" y="514"/>
	  <point x="295" y="514" type="curve"/>
	  <point x="235" y="510" type="line" smooth="yes"/>
	  <point x="204" y="507"/>
	  <point x="189" y="535"/>
	  <point x="189" y="563" type="curve" smooth="yes"/>
	  <point x="189" y="596"/>
	  <point x="255" y="620"/>
	  <point x="298" y="620" type="curve" smooth="yes"/>
	  <point x="401" y="620"/>
	  <point x="501" y="581"/>
	  <point x="501" y="491" type="curve"/>
	  <point x="616" y="491" type="line"/>
	  <point x="616" y="535"/>
	  <point x="645" y="556"/>
	  <point x="703" y="556" type="curve" smooth="yes"/>
	  <point x="759" y="556"/>
	  <point x="791" y="501"/>
	  <point x="806" y="449" type="curve"/>
	  <point x="788" y="456"/>
	  <point x="784" y="461"/>
	  <point x="753" y="461" type="curve" smooth="yes"/>
	  <point x="660" y="461"/>
	  <point x="589" y="409"/>
	  <point x="589" y="318" type="curve" smooth="yes"/>
	  <point x="589" y="250"/>
	  <point x="647" y="179"/>
	  <point x="718" y="179" type="curve" smooth="yes"/>
	  <point x="847" y="179"/>
	  <point x="914" y="272"/>
	  <point x="914" y="405" type="curve" smooth="yes"/>
	  <point x="914" y="546"/>
	  <point x="829" y="659"/>
	  <point x="700" y="659" type="curve" smooth="yes"/>
	  <point x="685" y="659"/>
	  <point x="676" y="673"/>
	  <point x="676" y="699" type="curve" smooth="yes"/>
	  <point x="676" y="731"/>
	  <point x="692" y="746"/>
	  <point x="724" y="746" type="curve" smooth="yes"/>
	  <point x="759" y="746"/>
	  <point x="777" y="727"/>
	  <point x="777" y="689" type="curve"/>
	  <point x="882" y="689" type="line"/>
	  <point x="882" y="782"/>
	  <point x="819" y="846"/>
	  <point x="731" y="846" type="curve" smooth="yes"/>
	  <point x="634" y="846"/>
	  <point x="573" y="786"/>
	  <point x="573" y="692" type="curve" smooth="yes"/>
	  <point x="573" y="675"/>
	  <point x="581" y="652"/>
	  <point x="599" y="626" type="curve"/>
	  <point x="574" y="612" type="line"/>
	  <point x="506" y="696"/>
	  <point x="466" y="725"/>
	  <point x="323" y="725" type="curve" smooth="yes"/>
	  <point x="195" y="725"/>
	  <point x="64" y="667"/>
	  <point x="64" y="549" type="curve" smooth="yes"/>
	  <point x="64" y="505"/>
	  <point x="87" y="470"/>
	  <point x="112" y="442" type="curve"/>
	  <point x="80" y="412"/>
	  <point x="64" y="381"/>
	  <point x="64" y="351" type="curve" smooth="yes"/>
	  <point x="64" y="270"/>
	  <point x="153" y="210"/>
	  <point x="235" y="210" type="curve"/>
	  <point x="380" y="225" type="line" smooth="yes"/>
	  <point x="420" y="229"/>
	  <point x="441" y="211"/>
	  <point x="441" y="176" type="curve" smooth="yes"/>
	  <point x="441" y="122"/>
	  <point x="368" y="95"/>
	  <point x="302" y="95" type="curve" smooth="yes"/>
	  <point x="245" y="95"/>
	  <point x="162" y="128"/>
	  <point x="162" y="179" type="curve"/>
	  <point x="45" y="179" type="line"/>
	  <point x="45" y="61"/>
	  <point x="173" y="-7"/>
	  <point x="297" y="-7" type="curve" smooth="yes"/>
	</contour>
	<contour>
	  <point x="617" y="-290" type="line"/>
	  <point x="602" y="-279"/>
	  <point x="595" y="-251"/>
	  <point x="595" y="-206" type="curve"/>
	  <point x="602" y="-157" type="line"/>
	  <point x="602" y="-106" type="line" smooth="yes"/>
	  <point x="602" y="-38"/>
	  <point x="573" y="10"/>
	  <point x="514" y="36" type="curve"/>
	  <point x="469" y="-14" type="line"/>
	  <point x="489" y="-24"/>
	  <point x="498" y="-39"/>
	  <point x="498" y="-63" type="curve" smooth="yes"/>
	  <point x="498" y="-100"/>
	  <point x="468" y="-134"/>
	  <point x="430" y="-134" type="curve" smooth="yes"/>
	  <point x="389" y="-134"/>
	  <point x="370" y="-112"/>
	  <point x="370" y="-66" type="curve"/>
	  <point x="374" y="-49" type="line"/>
	  <point x="374" y="-34" type="line"/>
	  <point x="272" y="-34" type="line"/>
	  <point x="272" y="-49" type="line"/>
	  <point x="276" y="-66" type="line"/>
	  <point x="276" y="-115"/>
	  <point x="251" y="-140"/>
	  <point x="200" y="-140" type="curve" smooth="yes"/>
	  <point x="155" y="-140"/>
	  <point x="126" y="-107"/>
	  <point x="126" y="-63" type="curve" smooth="yes"/>
	  <point x="126" y="-50"/>
	  <point x="126" y="-37"/>
	  <point x="126" y="-24" type="curve"/>
	  <point x="29" y="-24" type="line"/>
	  <point x="24" y="-39"/>
	  <point x="21" y="-56"/>
	  <point x="21" y="-71" type="curve" smooth="yes"/>
	  <point x="21" y="-155"/>
	  <point x="99" y="-239"/>
	  <point x="183" y="-239" type="curve" smooth="yes"/>
	  <point x="249" y="-239"/>
	  <point x="293" y="-221"/>
	  <point x="314" y="-183" type="curve"/>
	  <point x="354" y="-218"/>
	  <point x="389" y="-235"/>
	  <point x="420" y="-235" type="curve" smooth="yes"/>
	  <point x="440" y="-235"/>
	  <point x="472" y="-224"/>
	  <point x="518" y="-203" type="curve"/>
	  <point x="518" y="-255" type="line" smooth="yes"/>
	  <point x="518" y="-284"/>
	  <point x="528" y="-311"/>
	  <point x="549" y="-335" type="curve"/>
	</contour>
	<contour>
	  <point x="707" y="276"/>
	  <point x="682" y="301"/>
	  <point x="682" y="332" type="curve" smooth="yes"/>
	  <point x="682" y="359"/>
	  <point x="712" y="389"/>
	  <point x="739" y="389" type="curve" smooth="yes"/>
	  <point x="768" y="389"/>
	  <point x="792" y="363"/>
	  <point x="792" y="332" type="curve" smooth="yes"/>
	  <point x="792" y="305"/>
	  <point x="768" y="276"/>
	  <point x="739" y="276" type="curve" smooth="yes"/>
	</contour>
  </outline>
</glyph>
<glyph name="U0C15_U0C4D_U0C37_U0C4D_U0C30_U.913" format="1">
  <advance width="948"/>
  <outline>
	<contour>
	  <point x="432" y="-7"/>
	  <point x="574" y="90"/>
	  <point x="574" y="207" type="curve" smooth="yes"/>
	  <point x="574" y="282"/>
	  <point x="514" y="330"/>
	  <point x="440" y="330" type="curve" smooth="yes"/>
	  <point x="392" y="330"/>
	  <point x="345" y="307"/>
	  <point x="302" y="307" type="curve" smooth="yes"/>
	  <point x="238" y="307"/>
	  <point x="206" y="322"/>
	  <point x="206" y="353" type="curve" smooth="yes"/>
	  <point x="206" y="400"/>
	  <point x="242" y="424"/>
	  <point x="314" y="424" type="curve" smooth="yes"/>
	  <point x="371" y="424"/>
	  <point x="414" y="405"/>
	  <point x="431" y="368" type="curve"/>
	  <point x="543" y="368" type="line"/>
	  <point x="543" y="465"/>
	  <point x="466" y="514"/>
	  <point x="312" y="514" type="curve" smooth="yes"/>
	  <point x="288" y="514" type="line" smooth="yes"/>
	  <point x="277" y="514"/>
	  <point x="268" y="511"/>
	  <point x="259" y="511" type="curve" smooth="yes"/>
	  <point x="225" y="511"/>
	  <point x="209" y="533"/>
	  <point x="209" y="563" type="curve" smooth="yes"/>
	  <point x="209" y="597"/>
	  <point x="271" y="620"/>
	  <point x="319" y="620" type="curve" smooth="yes"/>
	  <point x="421" y="620"/>
	  <point x="519" y="582"/>
	  <point x="519" y="491" type="curve"/>
	  <point x="633" y="491" type="line"/>
	  <point x="633" y="535"/>
	  <point x="662" y="556"/>
	  <point x="721" y="556" type="curve" smooth="yes"/>
	  <point x="777" y="556"/>
	  <point x="810" y="501"/>
	  <point x="825" y="449" type="curve"/>
	  <point x="805" y="456"/>
	  <point x="803" y="461"/>
	  <point x="770" y="461" type="curve" smooth="yes"/>
	  <point x="676" y="461"/>
	  <point x="606" y="408"/>
	  <point x="606" y="318" type="curve" smooth="yes"/>
	  <point x="606" y="249"/>
	  <point x="664" y="179"/>
	  <point x="736" y="179" type="curve" smooth="yes"/>
	  <point x="866" y="179"/>
	  <point x="932" y="272"/>
	  <point x="932" y="405" type="curve" smooth="yes"/>
	  <point x="932" y="545"/>
	  <point x="849" y="659"/>
	  <point x="718" y="659" type="curve" smooth="yes"/>
	  <point x="659" y="659"/>
	  <point x="617" y="644"/>
	  <point x="591" y="612" type="curve"/>
	  <point x="530" y="688"/>
	  <point x="485" y="725"/>
	  <point x="343" y="725" type="curve" smooth="yes"/>
	  <point x="215" y="725"/>
	  <point x="85" y="667"/>
	  <point x="85" y="549" type="curve" smooth="yes"/>
	  <point x="85" y="501"/>
	  <point x="106" y="471"/>
	  <point x="132" y="444" type="curve"/>
	  <point x="98" y="412"/>
	  <point x="81" y="381"/>
	  <point x="81" y="351" type="curve" smooth="yes"/>
	  <point x="81" y="270"/>
	  <point x="170" y="210"/>
	  <point x="252" y="210" type="curve"/>
	  <point x="398" y="225" type="line" smooth="yes"/>
	  <point x="438" y="229"/>
	  <point x="459" y="211"/>
	  <point x="459" y="176" type="curve" smooth="yes"/>
	  <point x="459" y="124"/>
	  <point x="384" y="95"/>
	  <point x="321" y="95" type="curve" smooth="yes"/>
	  <point x="262" y="95"/>
	  <point x="181" y="128"/>
	  <point x="181" y="179" type="curve"/>
	  <point x="62" y="179" type="line"/>
	  <point x="62" y="62"/>
	  <point x="190" y="-7"/>
	  <point x="314" y="-7" type="curve" smooth="yes"/>
	</contour>
	<contour>
	  <point x="518" y="-475"/>
	  <point x="662" y="-381"/>
	  <point x="707" y="-234" type="curve"/>
	  <point x="602" y="-234" type="line"/>
	  <point x="568" y="-317"/>
	  <point x="462" y="-386"/>
	  <point x="349" y="-386" type="curve" smooth="yes"/>
	  <point x="231" y="-386"/>
	  <point x="120" y="-318"/>
	  <point x="90" y="-234" type="curve"/>
	  <point x="-15" y="-234" type="line"/>
	  <point x="30" y="-376"/>
	  <point x="169" y="-475"/>
	  <point x="340" y="-475" type="curve" smooth="yes"/>
	</contour>
	<contour>
	  <point x="570" y="-276"/>
	  <point x="589" y="-249"/>
	  <point x="602" y="-218" type="curve"/>
	  <point x="613" y="-218" type="line"/>
	  <point x="613" y="-206" type="line"/>
	  <point x="619" y="-157" type="line"/>
	  <point x="619" y="-106" type="line" smooth="yes"/>
	  <point x="619" y="-38"/>
	  <point x="589" y="10"/>
	  <point x="532" y="36" type="curve"/>
	  <point x="487" y="-14" type="line"/>
	  <point x="507" y="-24"/>
	  <point x="517" y="-39"/>
	  <point x="517" y="-63" type="curve" smooth="yes"/>
	  <point x="517" y="-100"/>
	  <point x="486" y="-134"/>
	  <point x="447" y="-134" type="curve" smooth="yes"/>
	  <point x="406" y="-134"/>
	  <point x="386" y="-112"/>
	  <point x="386" y="-66" type="curve"/>
	  <point x="391" y="-49" type="line"/>
	  <point x="391" y="-34" type="line"/>
	  <point x="288" y="-34" type="line"/>
	  <point x="293" y="-49" type="line"/>
	  <point x="293" y="-66" type="line" smooth="yes"/>
	  <point x="293" y="-115"/>
	  <point x="267" y="-140"/>
	  <point x="217" y="-140" type="curve" smooth="yes"/>
	  <point x="174" y="-140"/>
	  <point x="143" y="-106"/>
	  <point x="143" y="-63" type="curve" smooth="yes"/>
	  <point x="143" y="-50"/>
	  <point x="143" y="-37"/>
	  <point x="143" y="-24" type="curve"/>
	  <point x="46" y="-24" type="line"/>
	  <point x="42" y="-39"/>
	  <point x="39" y="-56"/>
	  <point x="39" y="-71" type="curve" smooth="yes"/>
	  <point x="39" y="-154"/>
	  <point x="117" y="-239"/>
	  <point x="200" y="-239" type="curve" smooth="yes"/>
	  <point x="266" y="-239"/>
	  <point x="309" y="-221"/>
	  <point x="332" y="-183" type="curve"/>
	  <point x="371" y="-218"/>
	  <point x="406" y="-235"/>
	  <point x="437" y="-235" type="curve" smooth="yes"/>
	  <point x="456" y="-235"/>
	  <point x="490" y="-224"/>
	  <point x="536" y="-203" type="curve"/>
	  <point x="536" y="-255" type="line" smooth="yes"/>
	  <point x="536" y="-270"/>
	  <point x="539" y="-286"/>
	  <point x="543" y="-298" type="curve"/>
	</contour>
	<contour>
	  <point x="724" y="276"/>
	  <point x="699" y="301"/>
	  <point x="699" y="332" type="curve" smooth="yes"/>
	  <point x="699" y="358"/>
	  <point x="730" y="389"/>
	  <point x="756" y="389" type="curve" smooth="yes"/>
	  <point x="787" y="389"/>
	  <point x="811" y="363"/>
	  <point x="811" y="332" type="curve" smooth="yes"/>
	  <point x="811" y="304"/>
	  <point x="785" y="276"/>
	  <point x="756" y="276" type="curve" smooth="yes"/>
	</contour>
  </outline>
</glyph>
<glyph name="U0C15_U0C4D_U0C37_U0C4D_U0C30_U.985" format="1">
  <advance width="1005"/>
  <outline>
	<contour>
	  <point x="463" y="-7"/>
	  <point x="603" y="90"/>
	  <point x="603" y="207" type="curve" smooth="yes"/>
	  <point x="603" y="284"/>
	  <point x="544" y="330"/>
	  <point x="468" y="330" type="curve" smooth="yes"/>
	  <point x="423" y="330"/>
	  <point x="373" y="307"/>
	  <point x="332" y="307" type="curve" smooth="yes"/>
	  <point x="269" y="307"/>
	  <point x="237" y="322"/>
	  <point x="237" y="353" type="curve" smooth="yes"/>
	  <point x="237" y="400"/>
	  <point x="272" y="424"/>
	  <point x="343" y="424" type="curve" smooth="yes"/>
	  <point x="400" y="424"/>
	  <point x="446" y="405"/>
	  <point x="461" y="368" type="curve"/>
	  <point x="574" y="368" type="line"/>
	  <point x="574" y="416"/>
	  <point x="556" y="451"/>
	  <point x="518" y="475" type="curve"/>
	  <point x="545" y="491"/>
	  <point x="557" y="517"/>
	  <point x="557" y="549" type="curve" smooth="yes"/>
	  <point x="557" y="577"/>
	  <point x="546" y="595"/>
	  <point x="525" y="603" type="curve"/>
	  <point x="745" y="603" type="line" smooth="yes"/>
	  <point x="790" y="603"/>
	  <point x="871" y="525"/>
	  <point x="871" y="476" type="curve"/>
	  <point x="778" y="476" type="line" smooth="yes"/>
	  <point x="711" y="476"/>
	  <point x="637" y="397"/>
	  <point x="637" y="328" type="curve" smooth="yes"/>
	  <point x="637" y="246"/>
	  <point x="713" y="186"/>
	  <point x="791" y="186" type="curve" smooth="yes"/>
	  <point x="911" y="186"/>
	  <point x="990" y="300"/>
	  <point x="990" y="427" type="curve" smooth="yes"/>
	  <point x="990" y="528"/>
	  <point x="904" y="703"/>
	  <point x="806" y="703" type="curve" smooth="yes"/>
	  <point x="62" y="703" type="line"/>
	  <point x="62" y="592" type="line"/>
	  <point x="398" y="592" type="line" smooth="yes"/>
	  <point x="419" y="592"/>
	  <point x="430" y="584"/>
	  <point x="430" y="568" type="curve" smooth="yes"/>
	  <point x="430" y="547"/>
	  <point x="420" y="536"/>
	  <point x="400" y="536" type="curve" smooth="yes"/>
	  <point x="157" y="536" type="line"/>
	  <point x="157" y="461" type="line"/>
	  <point x="181" y="461" type="line"/>
	  <point x="138" y="430"/>
	  <point x="112" y="386"/>
	  <point x="112" y="351" type="curve" smooth="yes"/>
	  <point x="112" y="270"/>
	  <point x="199" y="210"/>
	  <point x="281" y="210" type="curve"/>
	  <point x="429" y="225" type="line" smooth="yes"/>
	  <point x="469" y="229"/>
	  <point x="490" y="211"/>
	  <point x="490" y="176" type="curve" smooth="yes"/>
	  <point x="490" y="123"/>
	  <point x="413" y="95"/>
	  <point x="350" y="95" type="curve" smooth="yes"/>
	  <point x="292" y="95"/>
	  <point x="210" y="128"/>
	  <point x="210" y="179" type="curve"/>
	  <point x="91" y="179" type="line"/>
	  <point x="91" y="62"/>
	  <point x="219" y="-7"/>
	  <point x="343" y="-7" type="curve" smooth="yes"/>
	</contour>
	<contour>
	  <point x="518" y="-475"/>
	  <point x="662" y="-381"/>
	  <point x="707" y="-234" type="curve"/>
	  <point x="602" y="-234" type="line"/>
	  <point x="568" y="-317"/>
	  <point x="462" y="-386"/>
	  <point x="349" y="-386" type="curve" smooth="yes"/>
	  <point x="231" y="-386"/>
	  <point x="120" y="-318"/>
	  <point x="90" y="-234" type="curve"/>
	  <point x="-15" y="-234" type="line"/>
	  <point x="30" y="-376"/>
	  <point x="169" y="-475"/>
	  <point x="340" y="-475" type="curve" smooth="yes"/>
	</contour>
	<contour>
	  <point x="570" y="-276"/>
	  <point x="589" y="-249"/>
	  <point x="602" y="-218" type="curve"/>
	  <point x="613" y="-218" type="line"/>
	  <point x="613" y="-206" type="line"/>
	  <point x="619" y="-157" type="line"/>
	  <point x="619" y="-106" type="line" smooth="yes"/>
	  <point x="619" y="-38"/>
	  <point x="589" y="10"/>
	  <point x="532" y="36" type="curve"/>
	  <point x="487" y="-14" type="line"/>
	  <point x="507" y="-24"/>
	  <point x="517" y="-39"/>
	  <point x="517" y="-63" type="curve" smooth="yes"/>
	  <point x="517" y="-100"/>
	  <point x="486" y="-134"/>
	  <point x="447" y="-134" type="curve" smooth="yes"/>
	  <point x="406" y="-134"/>
	  <point x="386" y="-112"/>
	  <point x="386" y="-66" type="curve"/>
	  <point x="391" y="-49" type="line"/>
	  <point x="391" y="-34" type="line"/>
	  <point x="288" y="-34" type="line"/>
	  <point x="293" y="-49" type="line"/>
	  <point x="293" y="-66" type="line" smooth="yes"/>
	  <point x="293" y="-115"/>
	  <point x="267" y="-140"/>
	  <point x="217" y="-140" type="curve" smooth="yes"/>
	  <point x="174" y="-140"/>
	  <point x="143" y="-106"/>
	  <point x="143" y="-63" type="curve" smooth="yes"/>
	  <point x="143" y="-50"/>
	  <point x="143" y="-37"/>
	  <point x="143" y="-24" type="curve"/>
	  <point x="46" y="-24" type="line"/>
	  <point x="42" y="-39"/>
	  <point x="39" y="-56"/>
	  <point x="39" y="-71" type="curve" smooth="yes"/>
	  <point x="39" y="-154"/>
	  <point x="117" y="-239"/>
	  <point x="200" y="-239" type="curve" smooth="yes"/>
	  <point x="266" y="-239"/>
	  <point x="309" y="-221"/>
	  <point x="332" y="-183" type="curve"/>
	  <point x="371" y="-218"/>
	  <point x="406" y="-235"/>
	  <point x="437" y="-235" type="curve" smooth="yes"/>
	  <point x="456" y="-235"/>
	  <point x="490" y="-224"/>
	  <point x="536" y="-203" type="curve"/>
	  <point x="536" y="-255" type="line" smooth="yes"/>
	  <point x="536" y="-270"/>
	  <point x="539" y="-286"/>
	  <point x="543" y="-298" type="curve"/>
	</contour>
	<contour>
	  <point x="771" y="291"/>
	  <point x="757" y="309"/>
	  <point x="757" y="333" type="curve" smooth="yes"/>
	  <point x="757" y="397"/>
	  <point x="860" y="399"/>
	  <point x="860" y="336" type="curve" smooth="yes"/>
	  <point x="860" y="315"/>
	  <point x="819" y="291"/>
	  <point x="798" y="291" type="curve" smooth="yes"/>
	</contour>
  </outline>
</glyph>
<glyph name="U0C16_U0C41" format="1">
  <advance width="1081"/>
  <outline>
	<contour>
	  <point x="254" y="-10"/>
	  <point x="327" y="26"/>
	  <point x="358" y="57" type="curve"/>
	  <point x="414" y="4"/>
	  <point x="417" y="-1"/>
	  <point x="507" y="-1" type="curve" smooth="yes"/>
	  <point x="573" y="-1"/>
	  <point x="630" y="21"/>
	  <point x="679" y="67" type="curve"/>
	  <point x="709" y="17"/>
	  <point x="767" y="-8"/>
	  <point x="836" y="-8" type="curve" smooth="yes"/>
	  <point x="965" y="-8"/>
	  <point x="1065" y="113"/>
	  <point x="1065" y="245" type="curve" smooth="yes"/>
	  <point x="1065" y="385"/>
	  <point x="988" y="507"/>
	  <point x="854" y="507" type="curve" smooth="yes"/>
	  <point x="806" y="507" type="line"/>
	  <point x="806" y="407" type="line"/>
	  <point x="850" y="407" type="line" smooth="yes"/>
	  <point x="916" y="407"/>
	  <point x="965" y="332"/>
	  <point x="965" y="258" type="curve" smooth="yes"/>
	  <point x="965" y="192"/>
	  <point x="921" y="104"/>
	  <point x="858" y="104" type="curve" smooth="yes"/>
	  <point x="793" y="104"/>
	  <point x="775" y="167"/>
	  <point x="757" y="228" type="curve"/>
	  <point x="757" y="258" type="line" smooth="yes"/>
	  <point x="757" y="420"/>
	  <point x="672" y="504"/>
	  <point x="496" y="504" type="curve"/>
	  <point x="496" y="392" type="line"/>
	  <point x="531" y="396" type="line"/>
	  <point x="604" y="396"/>
	  <point x="644" y="330"/>
	  <point x="644" y="255" type="curve" smooth="yes"/>
	  <point x="644" y="179"/>
	  <point x="588" y="101"/>
	  <point x="511" y="101" type="curve" smooth="yes"/>
	  <point x="480" y="101"/>
	  <point x="437" y="121"/>
	  <point x="434" y="148" type="curve"/>
	  <point x="456" y="171"/>
	  <point x="476" y="239"/>
	  <point x="476" y="280" type="curve" smooth="yes"/>
	  <point x="476" y="440"/>
	  <point x="381" y="536"/>
	  <point x="238" y="536" type="curve" smooth="yes"/>
	  <point x="131" y="536"/>
	  <point x="29" y="469"/>
	  <point x="29" y="392" type="curve" smooth="yes"/>
	  <point x="29" y="308"/>
	  <point x="95" y="260"/>
	  <point x="183" y="260" type="curve" smooth="yes"/>
	  <point x="259" y="260"/>
	  <point x="313" y="322"/>
	  <point x="326" y="382" type="curve"/>
	  <point x="359" y="379"/>
	  <point x="372" y="310"/>
	  <point x="372" y="267" type="curve"/>
	  <point x="357" y="199" type="line"/>
	  <point x="316" y="228"/>
	  <point x="263" y="244"/>
	  <point x="197" y="244" type="curve" smooth="yes"/>
	  <point x="118" y="244"/>
	  <point x="24" y="187"/>
	  <point x="24" y="111" type="curve" smooth="yes"/>
	  <point x="24" y="29"/>
	  <point x="99" y="-10"/>
	  <point x="183" y="-10" type="curve" smooth="yes"/>
	</contour>
	<contour>
	  <point x="412" y="-165" type="line"/>
	  <point x="412" y="-7" type="line"/>
	  <point x="297" y="-7" type="line"/>
	  <point x="297" y="-165" type="line"/>
	</contour>
	<contour>
	  <point x="162" y="95"/>
	  <point x="144" y="105"/>
	  <point x="144" y="125" type="curve" smooth="yes"/>
	  <point x="144" y="143"/>
	  <point x="165" y="151"/>
	  <point x="206" y="151" type="curve" smooth="yes"/>
	  <point x="235" y="151"/>
	  <point x="259" y="143"/>
	  <point x="280" y="126" type="curve"/>
	  <point x="265" y="105"/>
	  <point x="238" y="95"/>
	  <point x="197" y="95" type="curve" smooth="yes"/>
	</contour>
	<contour>
	  <point x="151" y="350"/>
	  <point x="137" y="364"/>
	  <point x="137" y="392" type="curve" smooth="yes"/>
	  <point x="137" y="421"/>
	  <point x="151" y="435"/>
	  <point x="178" y="435" type="curve" smooth="yes"/>
	  <point x="204" y="435"/>
	  <point x="218" y="421"/>
	  <point x="218" y="392" type="curve" smooth="yes"/>
	  <point x="218" y="364"/>
	  <point x="204" y="350"/>
	  <point x="178" y="350" type="curve" smooth="yes"/>
	</contour>
  </outline>
</glyph>
<glyph name="U0C16_U0C4C" format="1">
  <advance width="1189"/>
  <outline>
	<contour>
	  <point x="252" y="-10"/>
	  <point x="324" y="26"/>
	  <point x="356" y="57" type="curve"/>
	  <point x="411" y="4"/>
	  <point x="414" y="-1"/>
	  <point x="504" y="-1" type="curve" smooth="yes"/>
	  <point x="646" y="-1"/>
	  <point x="755" y="114"/>
	  <point x="755" y="258" type="curve" smooth="yes"/>
	  <point x="755" y="340"/>
	  <point x="727" y="407"/>
	  <point x="679" y="455" type="curve"/>
	  <point x="717" y="500"/>
	  <point x="738" y="536"/>
	  <point x="708" y="595" type="curve"/>
	  <point x="932" y="595" type="line" smooth="yes"/>
	  <point x="1000" y="595"/>
	  <point x="1047" y="544"/>
	  <point x="1047" y="475" type="curve"/>
	  <point x="1015" y="493"/>
	  <point x="1006" y="504"/>
	  <point x="949" y="504" type="curve" smooth="yes"/>
	  <point x="860" y="504"/>
	  <point x="787" y="450"/>
	  <point x="787" y="363" type="curve" smooth="yes"/>
	  <point x="787" y="266"/>
	  <point x="846" y="207"/>
	  <point x="942" y="207" type="curve" smooth="yes"/>
	  <point x="1068" y="207"/>
	  <point x="1161" y="330"/>
	  <point x="1161" y="444" type="curve" smooth="yes"/>
	  <point x="1161" y="576"/>
	  <point x="1064" y="699"/>
	  <point x="939" y="699" type="curve" smooth="yes"/>
	  <point x="354" y="699" type="line"/>
	  <point x="354" y="587" type="line"/>
	  <point x="550" y="587" type="line" smooth="yes"/>
	  <point x="571" y="587"/>
	  <point x="581" y="575"/>
	  <point x="581" y="552" type="curve" smooth="yes"/>
	  <point x="581" y="528"/>
	  <point x="567" y="514"/>
	  <point x="542" y="511" type="curve"/>
	  <point x="491" y="511" type="line"/>
	  <point x="491" y="427" type="line"/>
	  <point x="522" y="427" type="line"/>
	  <point x="612" y="409"/>
	  <point x="658" y="343"/>
	  <point x="658" y="256" type="curve" smooth="yes"/>
	  <point x="658" y="172"/>
	  <point x="594" y="99"/>
	  <point x="508" y="99" type="curve" smooth="yes"/>
	  <point x="475" y="99"/>
	  <point x="434" y="118"/>
	  <point x="431" y="148" type="curve"/>
	  <point x="454" y="171"/>
	  <point x="473" y="239"/>
	  <point x="473" y="280" type="curve" smooth="yes"/>
	  <point x="473" y="440"/>
	  <point x="378" y="536"/>
	  <point x="235" y="536" type="curve" smooth="yes"/>
	  <point x="128" y="536"/>
	  <point x="27" y="469"/>
	  <point x="27" y="392" type="curve" smooth="yes"/>
	  <point x="27" y="308"/>
	  <point x="93" y="260"/>
	  <point x="181" y="260" type="curve" smooth="yes"/>
	  <point x="256" y="260"/>
	  <point x="310" y="322"/>
	  <point x="323" y="382" type="curve"/>
	  <point x="379" y="376"/>
	  <point x="375" y="283"/>
	  <point x="354" y="199" type="curve"/>
	  <point x="314" y="228"/>
	  <point x="260" y="244"/>
	  <point x="195" y="244" type="curve" smooth="yes"/>
	  <point x="116" y="244"/>
	  <point x="21" y="187"/>
	  <point x="21" y="111" type="curve" smooth="yes"/>
	  <point x="21" y="29"/>
	  <point x="96" y="-10"/>
	  <point x="181" y="-10" type="curve" smooth="yes"/>
	</contour>
	<contour>
	  <point x="409" y="-133" type="line"/>
	  <point x="409" y="-7" type="line"/>
	  <point x="294" y="-7" type="line"/>
	  <point x="294" y="-133" type="line"/>
	</contour>
	<contour>
	  <point x="160" y="95"/>
	  <point x="141" y="105"/>
	  <point x="141" y="125" type="curve" smooth="yes"/>
	  <point x="141" y="143"/>
	  <point x="162" y="151"/>
	  <point x="203" y="151" type="curve" smooth="yes"/>
	  <point x="232" y="151"/>
	  <point x="256" y="143"/>
	  <point x="277" y="126" type="curve"/>
	  <point x="262" y="105"/>
	  <point x="235" y="95"/>
	  <point x="195" y="95" type="curve" smooth="yes"/>
	</contour>
	<contour>
	  <point x="148" y="350"/>
	  <point x="134" y="364"/>
	  <point x="134" y="392" type="curve" smooth="yes"/>
	  <point x="134" y="421"/>
	  <point x="148" y="435"/>
	  <point x="175" y="435" type="curve" smooth="yes"/>
	  <point x="202" y="435"/>
	  <point x="216" y="421"/>
	  <point x="216" y="392" type="curve" smooth="yes"/>
	  <point x="216" y="364"/>
	  <point x="202" y="350"/>
	  <point x="175" y="350" type="curve" smooth="yes"/>
	</contour>
	<contour>
	  <point x="926" y="307"/>
	  <point x="892" y="325"/>
	  <point x="892" y="353" type="curve" smooth="yes"/>
	  <point x="892" y="389"/>
	  <point x="908" y="416"/>
	  <point x="941" y="419" type="curve" smooth="yes"/>
	  <point x="971" y="419"/>
	  <point x="1004" y="400"/>
	  <point x="1004" y="371" type="curve" smooth="yes"/>
	  <point x="1004" y="340"/>
	  <point x="987" y="307"/>
	  <point x="958" y="307" type="curve" smooth="yes"/>
	</contour>
  </outline>
</glyph>
<glyph name="U0C16_U0C4D" format="1">
  <advance width="0"/>
  <outline>
	<contour>
	  <point x="-388" y="-466"/>
	  <point x="-349" y="-452"/>
	  <point x="-319" y="-423" type="curve"/>
	  <point x="-298" y="-444"/>
	  <point x="-280" y="-458"/>
	  <point x="-244" y="-458" type="curve" smooth="yes"/>
	  <point x="-220" y="-458" type="line" smooth="yes"/>
	  <point x="-126" y="-458"/>
	  <point x="-52" y="-380"/>
	  <point x="-52" y="-284" type="curve" smooth="yes"/>
	  <point x="-52" y="-169"/>
	  <point x="-112" y="-118"/>
	  <point x="-232" y="-118" type="curve"/>
	  <point x="-232" y="-195" type="line"/>
	  <point x="-204" y="-195" type="line" smooth="yes"/>
	  <point x="-160" y="-195"/>
	  <point x="-133" y="-237"/>
	  <point x="-133" y="-287" type="curve" smooth="yes"/>
	  <point x="-133" y="-339"/>
	  <point x="-170" y="-385"/>
	  <point x="-218" y="-385" type="curve" smooth="yes"/>
	  <point x="-248" y="-385"/>
	  <point x="-265" y="-377"/>
	  <point x="-266" y="-358" type="curve"/>
	  <point x="-248" y="-340"/>
	  <point x="-238" y="-311"/>
	  <point x="-238" y="-270" type="curve" smooth="yes"/>
	  <point x="-238" y="-164"/>
	  <point x="-302" y="-98"/>
	  <point x="-399" y="-98" type="curve" smooth="yes"/>
	  <point x="-473" y="-98"/>
	  <point x="-540" y="-143"/>
	  <point x="-540" y="-196" type="curve" smooth="yes"/>
	  <point x="-540" y="-256"/>
	  <point x="-505" y="-286"/>
	  <point x="-434" y="-286" type="curve" smooth="yes"/>
	  <point x="-383" y="-286"/>
	  <point x="-349" y="-246"/>
	  <point x="-340" y="-206" type="curve"/>
	  <point x="-307" y="-206"/>
	  <point x="-307" y="-274"/>
	  <point x="-322" y="-318" type="curve"/>
	  <point x="-346" y="-300"/>
	  <point x="-379" y="-290"/>
	  <point x="-426" y="-290" type="curve" smooth="yes"/>
	  <point x="-479" y="-290"/>
	  <point x="-546" y="-329"/>
	  <point x="-546" y="-382" type="curve" smooth="yes"/>
	  <point x="-546" y="-438"/>
	  <point x="-491" y="-466"/>
	  <point x="-434" y="-466" type="curve" smooth="yes"/>
	</contour>
	<contour>
	  <point x="-283" y="-535" type="line"/>
	  <point x="-283" y="-452" type="line"/>
	  <point x="-363" y="-452" type="line"/>
	  <point x="-363" y="-535" type="line"/>
	</contour>
	<contour>
	  <point x="-448" y="-389"/>
	  <point x="-459" y="-385"/>
	  <point x="-459" y="-375" type="curve" smooth="yes"/>
	  <point x="-459" y="-364"/>
	  <point x="-447" y="-358"/>
	  <point x="-421" y="-358" type="curve" smooth="yes"/>
	  <point x="-403" y="-358"/>
	  <point x="-388" y="-363"/>
	  <point x="-375" y="-372" type="curve"/>
	  <point x="-385" y="-384"/>
	  <point x="-402" y="-389"/>
	  <point x="-427" y="-389" type="curve" smooth="yes"/>
	</contour>
	<contour>
	  <point x="-455" y="-221"/>
	  <point x="-463" y="-213"/>
	  <point x="-463" y="-196" type="curve" smooth="yes"/>
	  <point x="-463" y="-178"/>
	  <point x="-455" y="-169"/>
	  <point x="-438" y="-169" type="curve" smooth="yes"/>
	  <point x="-423" y="-169"/>
	  <point x="-414" y="-181"/>
	  <point x="-414" y="-196" type="curve" smooth="yes"/>
	  <point x="-414" y="-213"/>
	  <point x="-423" y="-221"/>
	  <point x="-438" y="-221" type="curve" smooth="yes"/>
	</contour>
  </outline>
</glyph>
<glyph name="U0C16_U0C4D_U0C30_U0C3F" format="1">
  <advance width="771"/>
  <outline>
	<contour>
	  <point x="245" y="-8"/>
	  <point x="331" y="33"/>
	  <point x="358" y="59" type="curve"/>
	  <point x="398" y="19"/>
	  <point x="429" y="1"/>
	  <point x="507" y="1" type="curve" smooth="yes"/>
	  <point x="646" y="1"/>
	  <point x="756" y="117"/>
	  <point x="756" y="258" type="curve" smooth="yes"/>
	  <point x="756" y="360"/>
	  <point x="718" y="435"/>
	  <point x="643" y="482" type="curve"/>
	  <point x="683" y="522"/>
	  <point x="703" y="566"/>
	  <point x="703" y="615" type="curve" smooth="yes"/>
	  <point x="703" y="738"/>
	  <point x="634" y="799"/>
	  <point x="498" y="799" type="curve" smooth="yes"/>
	  <point x="416" y="799"/>
	  <point x="336" y="748"/>
	  <point x="336" y="673" type="curve" smooth="yes"/>
	  <point x="336" y="589"/>
	  <point x="382" y="547"/>
	  <point x="473" y="547" type="curve" smooth="yes"/>
	  <point x="521" y="547"/>
	  <point x="563" y="574"/>
	  <point x="598" y="629" type="curve"/>
	  <point x="603" y="619"/>
	  <point x="606" y="609"/>
	  <point x="606" y="596" type="curve" smooth="yes"/>
	  <point x="606" y="545"/>
	  <point x="548" y="501"/>
	  <point x="496" y="507" type="curve"/>
	  <point x="496" y="395" type="line"/>
	  <point x="503" y="396"/>
	  <point x="515" y="398"/>
	  <point x="532" y="398" type="curve" smooth="yes"/>
	  <point x="604" y="398"/>
	  <point x="643" y="334"/>
	  <point x="643" y="255" type="curve" smooth="yes"/>
	  <point x="643" y="181"/>
	  <point x="585" y="102"/>
	  <point x="511" y="102" type="curve" smooth="yes"/>
	  <point x="479" y="102"/>
	  <point x="435" y="126"/>
	  <point x="435" y="151" type="curve"/>
	  <point x="456" y="169"/>
	  <point x="476" y="243"/>
	  <point x="476" y="283" type="curve" smooth="yes"/>
	  <point x="476" y="439"/>
	  <point x="380" y="538"/>
	  <point x="238" y="538" type="curve" smooth="yes"/>
	  <point x="129" y="538"/>
	  <point x="29" y="470"/>
	  <point x="29" y="392" type="curve" smooth="yes"/>
	  <point x="29" y="306"/>
	  <point x="98" y="260"/>
	  <point x="186" y="260" type="curve" smooth="yes"/>
	  <point x="267" y="260"/>
	  <point x="307" y="316"/>
	  <point x="326" y="386" type="curve"/>
	  <point x="356" y="374"/>
	  <point x="372" y="313"/>
	  <point x="372" y="270" type="curve"/>
	  <point x="357" y="202" type="line"/>
	  <point x="318" y="231"/>
	  <point x="265" y="245"/>
	  <point x="199" y="245" type="curve" smooth="yes"/>
	  <point x="118" y="245"/>
	  <point x="24" y="191"/>
	  <point x="24" y="112" type="curve" smooth="yes"/>
	  <point x="24" y="30"/>
	  <point x="101" y="-8"/>
	  <point x="186" y="-8" type="curve" smooth="yes"/>
	</contour>
	<contour>
	  <point x="536" y="-259"/>
	  <point x="687" y="-167"/>
	  <point x="732" y="-18" type="curve"/>
	  <point x="626" y="-18" type="line"/>
	  <point x="589" y="-103"/>
	  <point x="482" y="-171"/>
	  <point x="364" y="-171" type="curve" smooth="yes"/>
	  <point x="244" y="-171"/>
	  <point x="135" y="-103"/>
	  <point x="101" y="-18" type="curve"/>
	  <point x="-7" y="-18" type="line"/>
	  <point x="38" y="-160"/>
	  <point x="185" y="-259"/>
	  <point x="357" y="-259" type="curve" smooth="yes"/>
	</contour>
	<contour>
	  <point x="413" y="-165" type="line"/>
	  <point x="413" y="-7" type="line"/>
	  <point x="298" y="-7" type="line"/>
	  <point x="298" y="-165" type="line"/>
	</contour>
	<contour>
	  <point x="161" y="97"/>
	  <point x="144" y="106"/>
	  <point x="144" y="126" type="curve" smooth="yes"/>
	  <point x="144" y="146"/>
	  <point x="165" y="155"/>
	  <point x="206" y="155" type="curve" smooth="yes"/>
	  <point x="237" y="155"/>
	  <point x="262" y="146"/>
	  <point x="280" y="127" type="curve"/>
	  <point x="265" y="106"/>
	  <point x="237" y="97"/>
	  <point x="196" y="97" type="curve" smooth="yes"/>
	</contour>
	<contour>
	  <point x="155" y="357"/>
	  <point x="144" y="368"/>
	  <point x="144" y="392" type="curve" smooth="yes"/>
	  <point x="144" y="417"/>
	  <point x="155" y="430"/>
	  <point x="179" y="430" type="curve" smooth="yes"/>
	  <point x="204" y="430"/>
	  <point x="217" y="417"/>
	  <point x="217" y="392" type="curve" smooth="yes"/>
	  <point x="217" y="368"/>
	  <point x="204" y="357"/>
	  <point x="179" y="357" type="curve" smooth="yes"/>
	</contour>
	<contour>
	  <point x="455" y="641"/>
	  <point x="442" y="652"/>
	  <point x="442" y="673" type="curve" smooth="yes"/>
	  <point x="442" y="700"/>
	  <point x="455" y="713"/>
	  <point x="480" y="713" type="curve" smooth="yes"/>
	  <point x="504" y="713"/>
	  <point x="515" y="700"/>
	  <point x="515" y="673" type="curve" smooth="yes"/>
	  <point x="515" y="652"/>
	  <point x="504" y="641"/>
	  <point x="480" y="641" type="curve" smooth="yes"/>
	</contour>
  </outline>
</glyph>
<glyph name="U0C16_U0C4D_U0C30_U0C40" format="1">
  <advance width="773"/>
  <outline>
	<contour>
	  <point x="254" y="-10"/>
	  <point x="327" y="26"/>
	  <point x="358" y="57" type="curve"/>
	  <point x="414" y="4"/>
	  <point x="417" y="-1"/>
	  <point x="507" y="-1" type="curve" smooth="yes"/>
	  <point x="649" y="-1"/>
	  <point x="757" y="114"/>
	  <point x="757" y="258" type="curve" smooth="yes"/>
	  <point x="757" y="358"/>
	  <point x="720" y="433"/>
	  <point x="644" y="480" type="curve"/>
	  <point x="683" y="518"/>
	  <point x="703" y="563"/>
	  <point x="703" y="612" type="curve" smooth="yes"/>
	  <point x="703" y="701"/>
	  <point x="638" y="802"/>
	  <point x="549" y="802" type="curve"/>
	  <point x="531" y="798" type="line"/>
	  <point x="511" y="811"/>
	  <point x="501" y="832"/>
	  <point x="501" y="858" type="curve" smooth="yes"/>
	  <point x="501" y="885"/>
	  <point x="517" y="899"/>
	  <point x="549" y="899" type="curve" smooth="yes"/>
	  <point x="577" y="899"/>
	  <point x="591" y="881"/>
	  <point x="591" y="846" type="curve"/>
	  <point x="696" y="846" type="line"/>
	  <point x="696" y="948"/>
	  <point x="654" y="1000"/>
	  <point x="568" y="1000" type="curve" smooth="yes"/>
	  <point x="482" y="1000"/>
	  <point x="392" y="929"/>
	  <point x="392" y="850" type="curve" smooth="yes"/>
	  <point x="392" y="843"/>
	  <point x="399" y="819"/>
	  <point x="412" y="778" type="curve"/>
	  <point x="361" y="752"/>
	  <point x="336" y="715"/>
	  <point x="336" y="672" type="curve" smooth="yes"/>
	  <point x="336" y="589"/>
	  <point x="394" y="546"/>
	  <point x="473" y="546" type="curve" smooth="yes"/>
	  <point x="522" y="546"/>
	  <point x="563" y="574"/>
	  <point x="598" y="629" type="curve"/>
	  <point x="603" y="615"/>
	  <point x="606" y="603"/>
	  <point x="606" y="595" type="curve" smooth="yes"/>
	  <point x="606" y="544"/>
	  <point x="547" y="498"/>
	  <point x="496" y="504" type="curve"/>
	  <point x="496" y="392" type="line"/>
	  <point x="531" y="396" type="line"/>
	  <point x="604" y="396"/>
	  <point x="644" y="330"/>
	  <point x="644" y="255" type="curve" smooth="yes"/>
	  <point x="644" y="179"/>
	  <point x="588" y="101"/>
	  <point x="511" y="101" type="curve" smooth="yes"/>
	  <point x="480" y="101"/>
	  <point x="437" y="121"/>
	  <point x="434" y="148" type="curve"/>
	  <point x="456" y="171"/>
	  <point x="476" y="239"/>
	  <point x="476" y="280" type="curve" smooth="yes"/>
	  <point x="476" y="440"/>
	  <point x="381" y="536"/>
	  <point x="238" y="536" type="curve" smooth="yes"/>
	  <point x="131" y="536"/>
	  <point x="29" y="469"/>
	  <point x="29" y="392" type="curve" smooth="yes"/>
	  <point x="29" y="308"/>
	  <point x="95" y="260"/>
	  <point x="183" y="260" type="curve" smooth="yes"/>
	  <point x="259" y="260"/>
	  <point x="313" y="322"/>
	  <point x="326" y="382" type="curve"/>
	  <point x="359" y="379"/>
	  <point x="372" y="310"/>
	  <point x="372" y="267" type="curve"/>
	  <point x="357" y="199" type="line"/>
	  <point x="316" y="228"/>
	  <point x="263" y="244"/>
	  <point x="197" y="244" type="curve" smooth="yes"/>
	  <point x="118" y="244"/>
	  <point x="24" y="187"/>
	  <point x="24" y="111" type="curve" smooth="yes"/>
	  <point x="24" y="29"/>
	  <point x="99" y="-10"/>
	  <point x="183" y="-10" type="curve" smooth="yes"/>
	</contour>
	<contour>
	  <point x="536" y="-259"/>
	  <point x="687" y="-167"/>
	  <point x="732" y="-18" type="curve"/>
	  <point x="626" y="-18" type="line"/>
	  <point x="589" y="-103"/>
	  <point x="482" y="-171"/>
	  <point x="364" y="-171" type="curve" smooth="yes"/>
	  <point x="244" y="-171"/>
	  <point x="135" y="-103"/>
	  <point x="101" y="-18" type="curve"/>
	  <point x="-7" y="-18" type="line"/>
	  <point x="38" y="-160"/>
	  <point x="185" y="-259"/>
	  <point x="357" y="-259" type="curve" smooth="yes"/>
	</contour>
	<contour>
	  <point x="412" y="-130" type="line"/>
	  <point x="412" y="-7" type="line"/>
	  <point x="297" y="-7" type="line"/>
	  <point x="297" y="-130" type="line"/>
	</contour>
	<contour>
	  <point x="162" y="95"/>
	  <point x="144" y="105"/>
	  <point x="144" y="125" type="curve" smooth="yes"/>
	  <point x="144" y="143"/>
	  <point x="165" y="151"/>
	  <point x="206" y="151" type="curve" smooth="yes"/>
	  <point x="235" y="151"/>
	  <point x="259" y="143"/>
	  <point x="280" y="126" type="curve"/>
	  <point x="265" y="105"/>
	  <point x="238" y="95"/>
	  <point x="197" y="95" type="curve" smooth="yes"/>
	</contour>
	<contour>
	  <point x="154" y="357"/>
	  <point x="143" y="368"/>
	  <point x="143" y="392" type="curve" smooth="yes"/>
	  <point x="143" y="417"/>
	  <point x="154" y="430"/>
	  <point x="178" y="430" type="curve" smooth="yes"/>
	  <point x="202" y="430"/>
	  <point x="214" y="417"/>
	  <point x="214" y="392" type="curve" smooth="yes"/>
	  <point x="214" y="368"/>
	  <point x="202" y="357"/>
	  <point x="178" y="357" type="curve" smooth="yes"/>
	</contour>
	<contour>
	  <point x="454" y="641"/>
	  <point x="441" y="652"/>
	  <point x="441" y="673" type="curve" smooth="yes"/>
	  <point x="441" y="700"/>
	  <point x="454" y="713"/>
	  <point x="479" y="713" type="curve" smooth="yes"/>
	  <point x="503" y="713"/>
	  <point x="514" y="700"/>
	  <point x="514" y="673" type="curve" smooth="yes"/>
	  <point x="514" y="652"/>
	  <point x="503" y="641"/>
	  <point x="479" y="641" type="curve" smooth="yes"/>
	</contour>
  </outline>
</glyph>
<glyph name="U0C17.haln" format="1">
  <advance width="592"/>
  <outline>
	<contour>
	  <point x="150" y="-6" type="line"/>
	  <point x="190" y="35"/>
	  <point x="210" y="62"/>
	  <point x="214" y="74" type="curve"/>
	  <point x="214" y="80" type="line"/>
	  <point x="157" y="129"/>
	  <point x="143" y="128"/>
	  <point x="143" y="214" type="curve" smooth="yes"/>
	  <point x="143" y="319"/>
	  <point x="202" y="406"/>
	  <point x="304" y="406" type="curve" smooth="yes"/>
	  <point x="394" y="406"/>
	  <point x="452" y="332"/>
	  <point x="452" y="238" type="curve" smooth="yes"/>
	  <point x="452" y="185"/>
	  <point x="424" y="137"/>
	  <point x="373" y="96" type="curve"/>
	  <point x="434" y="0" type="line"/>
	  <point x="504" y="23"/>
	  <point x="564" y="142"/>
	  <point x="564" y="235" type="curve" smooth="yes"/>
	  <point x="564" y="340"/>
	  <point x="490" y="449"/>
	  <point x="419" y="486" type="curve"/>
	  <point x="419" y="515" type="line"/>
	  <point x="210" y="515" type="line" smooth="yes"/>
	  <point x="195" y="515"/>
	  <point x="188" y="522"/>
	  <point x="188" y="533" type="curve" smooth="yes"/>
	  <point x="188" y="549"/>
	  <point x="196" y="557"/>
	  <point x="211" y="557" type="curve" smooth="yes"/>
	  <point x="472" y="557" type="line"/>
	  <point x="472" y="658" type="line"/>
	  <point x="209" y="658" type="line" smooth="yes"/>
	  <point x="193" y="658"/>
	  <point x="185" y="664"/>
	  <point x="185" y="673" type="curve" smooth="yes"/>
	  <point x="185" y="689"/>
	  <point x="193" y="697"/>
	  <point x="210" y="697" type="curve" smooth="yes"/>
	  <point x="557" y="697" type="line"/>
	  <point x="557" y="799" type="line"/>
	  <point x="181" y="799" type="line" smooth="yes"/>
	  <point x="128" y="799"/>
	  <point x="66" y="721"/>
	  <point x="66" y="668" type="curve" smooth="yes"/>
	  <point x="66" y="641"/>
	  <point x="81" y="616"/>
	  <point x="112" y="591" type="curve"/>
	  <point x="91" y="567"/>
	  <point x="80" y="546"/>
	  <point x="80" y="525" type="curve" smooth="yes"/>
	  <point x="80" y="497"/>
	  <point x="102" y="463"/>
	  <point x="126" y="445" type="curve"/>
	  <point x="60" y="405"/>
	  <point x="21" y="308"/>
	  <point x="21" y="232" type="curve" smooth="yes"/>
	  <point x="21" y="105"/>
	  <point x="62" y="27"/>
	  <point x="144" y="-6" type="curve"/>
	</contour>
  </outline>
</glyph>
